<?xml version="1.0" encoding="UTF-8"?>
<!DOCTYPE svg PUBLIC "-//W3C//DTD SVG 1.1//EN" "http://www.w3.org/Graphics/SVG/1.1/DTD/svg11.dtd">
<!-- Creator: CorelDRAW 2021.5 -->
<svg xmlns="http://www.w3.org/2000/svg" xml:space="preserve" width="1195px" height="97px" version="1.1" style="shape-rendering:geometricPrecision; text-rendering:geometricPrecision; image-rendering:optimizeQuality; fill-rule:evenodd; clip-rule:evenodd"
viewBox="0 0 438.13 35.57"
 xmlns:xlink="http://www.w3.org/1999/xlink"
 xmlns:xodm="http://www.corel.com/coreldraw/odm/2003">
 <defs>
  <style type="text/css">
   <![CDATA[
    .fil0 {fill:none}
    .fil5 {fill:#E6E7E8}
    .fil2 {fill:#FEFEFE;fill-rule:nonzero}
    .fil6 {fill:#373435;fill-rule:nonzero}
    .fil3 {fill:#526DF9;fill-rule:nonzero}
    .fil4 {fill:#917DFA;fill-rule:nonzero}
    .fil1 {fill:#FF2643;fill-rule:nonzero}
   ]]>
  </style>
 </defs>
 <g id="Слой_x0020_1">
  <metadata id="CorelCorpID_0Corel-Layer"/>
  <rect class="fil0" width="438.13" height="35.57"/>
  <path class="fil1" d="M65.24 2.24c19.22,23.31 38.43,-15.54 57.64,7.77 0,7.77 0,15.54 0,23.32 -19.21,-23.32 -38.42,15.54 -57.64,-7.78 0,-7.77 0,-15.54 0,-23.31z"/>
  <path class="fil2" d="M72.52 15.08l0 0.75c0.39,-0.38 1.04,-0.67 1.64,-0.67 0.69,0 1.11,0.32 1.11,0.88 0,0.54 -0.44,0.91 -1.11,0.91l-0.76 0 0 0.64 0.83 0c0.65,0 1.25,0.3 1.25,0.96 0,0.63 -0.52,1.04 -1.3,1.04 -0.67,0 -1.36,-0.28 -1.74,-0.67l0 0.75c0.26,0.29 0.99,0.57 1.77,0.57 1.17,0 1.99,-0.72 1.99,-1.66 0,-0.85 -0.65,-1.29 -1.11,-1.37 0.4,-0.12 0.91,-0.5 0.91,-1.21 0,-0.88 -0.7,-1.49 -1.81,-1.49 -0.71,0 -1.4,0.29 -1.67,0.57z"/>
  <path id="_1" class="fil2" d="M79.09 14.51c-1.32,0 -2.01,1.11 -2.01,2.86 0,1.75 0.69,2.87 2.01,2.87 1.32,0 2,-1.13 2,-2.87 0,-1.74 -0.68,-2.86 -2,-2.86zm-1.29 2.86c0,-1.32 0.39,-2.22 1.29,-2.22 0.9,0 1.28,0.9 1.28,2.22 0,1.32 -0.38,2.22 -1.28,2.22 -0.9,0 -1.29,-0.9 -1.29,-2.22z"/>
  <path id="_2" class="fil2" d="M85.49 14.51c-1.32,0 -2,1.11 -2,2.86 0,1.75 0.68,2.87 2,2.87 1.33,0 2.01,-1.13 2.01,-2.87 0,-1.74 -0.68,-2.86 -2.01,-2.86zm-1.28 2.86c0,-1.32 0.38,-2.22 1.28,-2.22 0.9,0 1.29,0.9 1.29,2.22 0,1.32 -0.39,2.22 -1.29,2.22 -0.9,0 -1.28,-0.9 -1.28,-2.22z"/>
  <path id="_3" class="fil2" d="M90.19 14.51c-1.32,0 -2.01,1.11 -2.01,2.86 0,1.75 0.69,2.87 2.01,2.87 1.32,0 2,-1.13 2,-2.87 0,-1.74 -0.68,-2.86 -2,-2.86zm-1.29 2.86c0,-1.32 0.39,-2.22 1.29,-2.22 0.9,0 1.28,0.9 1.28,2.22 0,1.32 -0.38,2.22 -1.28,2.22 -0.9,0 -1.29,-0.9 -1.29,-2.22z"/>
  <path id="_4" class="fil2" d="M94.88 14.51c-1.32,0 -2.01,1.11 -2.01,2.86 0,1.75 0.69,2.87 2.01,2.87 1.33,0 2,-1.13 2,-2.87 0,-1.74 -0.67,-2.86 -2,-2.86zm-1.29 2.86c0,-1.32 0.39,-2.22 1.29,-2.22 0.9,0 1.29,0.9 1.29,2.22 0,1.32 -0.39,2.22 -1.29,2.22 -0.9,0 -1.29,-0.9 -1.29,-2.22z"/>
  <path class="fil2" d="M76.69 23.73c0,-0.08 0,-0.16 0,-0.23 0.13,-0.14 0.39,-0.32 0.73,-0.32 0.42,0 0.68,0.33 0.68,0.8 0,0.47 -0.26,0.81 -0.68,0.81 -0.43,0 -0.73,-0.37 -0.73,-1.06zm-0.39 0c0,0.86 0.45,1.41 1.14,1.41 0.65,0 1.06,-0.52 1.06,-1.16 0,-0.74 -0.45,-1.14 -1.02,-1.14 -0.33,0 -0.6,0.14 -0.76,0.34 0.08,-0.57 0.33,-0.86 0.96,-0.91 0.25,-0.02 0.45,-0.05 0.59,-0.08l0 -0.37c-0.18,0.05 -0.42,0.07 -0.66,0.1 -0.93,0.12 -1.31,0.76 -1.31,1.81z"/>
  <path id="_1_0" class="fil2" d="M80 22.79c-0.65,0 -1.1,0.49 -1.1,1.17 0,0.69 0.45,1.18 1.1,1.18 0.64,0 1.1,-0.49 1.1,-1.18 0,-0.68 -0.46,-1.17 -1.1,-1.17zm-0.71 1.17c0,-0.49 0.29,-0.82 0.71,-0.82 0.42,0 0.7,0.33 0.7,0.82 0,0.5 -0.28,0.83 -0.7,0.83 -0.42,0 -0.71,-0.33 -0.71,-0.83z"/>
  <polygon id="_2_1" class="fil2" points="83.12,22.84 83.12,23.74 82.01,23.74 82.01,22.84 81.63,22.84 81.63,25.09 82.01,25.09 82.01,24.09 83.12,24.09 83.12,25.09 83.51,25.09 83.51,22.84 "/>
  <path id="_3_2" class="fil2" d="M85.64 22.84l-0.66 1.77 -0.66 -1.77 -0.42 0 0.87 2.23c-0.18,0.38 -0.35,0.6 -0.64,0.6 -0.1,0 -0.16,-0.02 -0.21,-0.06l0 0.36c0.04,0.02 0.14,0.05 0.26,0.05 0.48,0 0.78,-0.42 1.02,-1.04l0.84 -2.14 -0.4 0z"/>
  <path id="_4_3" class="fil2" d="M87.42 25.14c0.29,0 0.55,-0.1 0.67,-0.23l0 -0.39c-0.17,0.15 -0.38,0.27 -0.67,0.27 -0.47,0 -0.77,-0.34 -0.77,-0.83 0,-0.48 0.3,-0.82 0.77,-0.82 0.29,0 0.5,0.12 0.67,0.28l0 -0.39c-0.11,-0.14 -0.38,-0.24 -0.67,-0.24 -0.65,0 -1.16,0.45 -1.16,1.17 0,0.72 0.51,1.18 1.16,1.18z"/>
  <path id="_5" class="fil2" d="M89.59 22.79c-0.64,0 -1.09,0.49 -1.09,1.17 0,0.69 0.45,1.18 1.09,1.18 0.65,0 1.1,-0.49 1.1,-1.18 0,-0.68 -0.45,-1.17 -1.1,-1.17zm-0.7 1.17c0,-0.49 0.29,-0.82 0.7,-0.82 0.42,0 0.71,0.33 0.71,0.82 0,0.5 -0.29,0.83 -0.71,0.83 -0.41,0 -0.7,-0.33 -0.7,-0.83z"/>
  <path id="_6" class="fil2" d="M91.23 25.09l1.04 0c0.48,0 0.76,-0.28 0.76,-0.64 0,-0.33 -0.21,-0.51 -0.43,-0.56 0.19,-0.06 0.33,-0.22 0.33,-0.48 0,-0.32 -0.23,-0.57 -0.7,-0.57l-1 0 0 2.25zm0.38 -0.33l0 -0.67 0.63 0c0.24,0 0.4,0.12 0.4,0.33 0,0.22 -0.16,0.34 -0.4,0.34l-0.63 0zm0 -0.99l0 -0.61 0.58 0c0.22,0 0.36,0.11 0.36,0.31 0,0.19 -0.14,0.3 -0.36,0.3l-0.58 0z"/>
  <path class="fil3" d="M169.76 3.89l56.72 0 0 18.52 -28.36 9.27 -28.36 -9.27 0 -18.52zm28.36 0m28.36 9.26m-14.18 13.9m-28.36 0m-14.18 -13.9"/>
  <path class="fil2" d="M178.81 10.95l0 0.75c0.39,-0.39 1.03,-0.67 1.63,-0.67 0.69,0 1.12,0.31 1.12,0.88 0,0.53 -0.44,0.9 -1.12,0.9l-0.75 0 0 0.64 0.83 0c0.64,0 1.25,0.3 1.25,0.97 0,0.62 -0.53,1.03 -1.3,1.03 -0.67,0 -1.36,-0.27 -1.74,-0.66l0 0.75c0.26,0.28 0.99,0.57 1.77,0.57 1.17,0 1.99,-0.72 1.99,-1.67 0,-0.84 -0.65,-1.29 -1.11,-1.37 0.4,-0.11 0.91,-0.49 0.91,-1.2 0,-0.89 -0.71,-1.5 -1.81,-1.5 -0.71,0 -1.4,0.3 -1.67,0.58z"/>
  <path id="_1_4" class="fil2" d="M185.37 10.37c-1.32,0 -2,1.12 -2,2.87 0,1.75 0.68,2.87 2,2.87 1.33,0 2.01,-1.13 2.01,-2.87 0,-1.75 -0.68,-2.87 -2.01,-2.87zm-1.28 2.87c0,-1.33 0.38,-2.22 1.28,-2.22 0.9,0 1.29,0.89 1.29,2.22 0,1.32 -0.39,2.22 -1.29,2.22 -0.9,0 -1.28,-0.9 -1.28,-2.22z"/>
  <path id="_2_5" class="fil2" d="M191.78 10.37c-1.32,0 -2.01,1.12 -2.01,2.87 0,1.75 0.69,2.87 2.01,2.87 1.33,0 2.01,-1.13 2.01,-2.87 0,-1.75 -0.68,-2.87 -2.01,-2.87zm-1.29 2.87c0,-1.33 0.39,-2.22 1.29,-2.22 0.9,0 1.29,0.89 1.29,2.22 0,1.32 -0.39,2.22 -1.29,2.22 -0.9,0 -1.29,-0.9 -1.29,-2.22z"/>
  <path id="_3_6" class="fil2" d="M196.47 10.37c-1.32,0 -2,1.12 -2,2.87 0,1.75 0.68,2.87 2,2.87 1.33,0 2.01,-1.13 2.01,-2.87 0,-1.75 -0.68,-2.87 -2.01,-2.87zm-1.28 2.87c0,-1.33 0.38,-2.22 1.28,-2.22 0.9,0 1.29,0.89 1.29,2.22 0,1.32 -0.39,2.22 -1.29,2.22 -0.9,0 -1.28,-0.9 -1.28,-2.22z"/>
  <path id="_4_7" class="fil2" d="M201.17 10.37c-1.32,0 -2.01,1.12 -2.01,2.87 0,1.75 0.69,2.87 2.01,2.87 1.32,0 2,-1.13 2,-2.87 0,-1.75 -0.68,-2.87 -2,-2.87zm-1.29 2.87c0,-1.33 0.38,-2.22 1.29,-2.22 0.9,0 1.28,0.89 1.28,2.22 0,1.32 -0.38,2.22 -1.28,2.22 -0.91,0 -1.29,-0.9 -1.29,-2.22z"/>
  <path class="fil2" d="M182.98 19.59c0,-0.07 0,-0.15 0,-0.22 0.13,-0.14 0.39,-0.32 0.73,-0.32 0.41,0 0.68,0.33 0.68,0.8 0,0.47 -0.26,0.81 -0.68,0.81 -0.43,0 -0.73,-0.37 -0.73,-1.07zm-0.39 0c0,0.87 0.45,1.42 1.13,1.42 0.66,0 1.06,-0.52 1.06,-1.16 0,-0.74 -0.45,-1.15 -1.02,-1.15 -0.32,0 -0.59,0.15 -0.75,0.34 0.08,-0.56 0.33,-0.85 0.96,-0.91 0.25,-0.02 0.44,-0.04 0.59,-0.08l0 -0.37c-0.19,0.05 -0.42,0.08 -0.67,0.11 -0.92,0.12 -1.3,0.75 -1.3,1.8z"/>
  <path id="_1_8" class="fil2" d="M186.28 18.65c-0.64,0 -1.09,0.5 -1.09,1.18 0,0.68 0.45,1.18 1.09,1.18 0.65,0 1.1,-0.5 1.1,-1.18 0,-0.68 -0.45,-1.18 -1.1,-1.18zm-0.7 1.18c0,-0.49 0.29,-0.83 0.7,-0.83 0.42,0 0.71,0.34 0.71,0.83 0,0.49 -0.29,0.83 -0.71,0.83 -0.41,0 -0.7,-0.34 -0.7,-0.83z"/>
  <polygon id="_2_9" class="fil2" points="189.41,18.7 189.41,19.61 188.3,19.61 188.3,18.7 187.91,18.7 187.91,20.96 188.3,20.96 188.3,19.95 189.41,19.95 189.41,20.96 189.79,20.96 189.79,18.7 "/>
  <path id="_3_10" class="fil2" d="M191.93 18.7l-0.67 1.77 -0.65 -1.77 -0.42 0 0.86 2.24c-0.17,0.37 -0.34,0.59 -0.63,0.59 -0.1,0 -0.17,-0.02 -0.22,-0.05l0 0.35c0.05,0.03 0.15,0.06 0.27,0.06 0.48,0 0.78,-0.42 1.02,-1.04l0.83 -2.15 -0.39 0z"/>
  <path id="_4_11" class="fil2" d="M193.71 21.01c0.28,0 0.55,-0.11 0.67,-0.24l0 -0.39c-0.17,0.16 -0.38,0.27 -0.67,0.27 -0.47,0 -0.77,-0.34 -0.77,-0.82 0,-0.48 0.3,-0.82 0.77,-0.82 0.29,0 0.5,0.12 0.67,0.27l0 -0.39c-0.11,-0.13 -0.38,-0.24 -0.67,-0.24 -0.66,0 -1.16,0.46 -1.16,1.18 0,0.72 0.5,1.18 1.16,1.18z"/>
  <path id="_5_12" class="fil2" d="M195.88 18.65c-0.64,0 -1.1,0.5 -1.1,1.18 0,0.68 0.46,1.18 1.1,1.18 0.64,0 1.1,-0.5 1.1,-1.18 0,-0.68 -0.46,-1.18 -1.1,-1.18zm-0.71 1.18c0,-0.49 0.29,-0.83 0.71,-0.83 0.42,0 0.71,0.34 0.71,0.83 0,0.49 -0.29,0.83 -0.71,0.83 -0.42,0 -0.71,-0.34 -0.71,-0.83z"/>
  <path id="_6_13" class="fil2" d="M197.51 20.96l1.05 0c0.48,0 0.75,-0.29 0.75,-0.65 0,-0.32 -0.21,-0.5 -0.42,-0.56 0.19,-0.05 0.33,-0.22 0.33,-0.47 0,-0.32 -0.24,-0.58 -0.71,-0.58l-1 0 0 2.26zm0.38 -0.34l0 -0.66 0.64 0c0.24,0 0.4,0.12 0.4,0.33 0,0.21 -0.16,0.33 -0.4,0.33l-0.64 0zm0 -0.98l0 -0.61 0.59 0c0.22,0 0.36,0.11 0.36,0.3 0,0.2 -0.14,0.31 -0.36,0.31l-0.59 0z"/>
  <g>
   <path class="fil4" d="M342.34 31.97c-15.48,0 -30.97,0 -46.45,0 -6.56,0 -11.89,-6.35 -11.89,-14.19 0,-7.83 5.33,-14.18 11.89,-14.18 15.48,0 30.97,0 46.45,0l0 28.37zm0 -28.37c6.56,0 11.88,6.35 11.88,14.18 0,7.84 -5.32,14.19 -11.88,14.19 -6.56,0 -11.88,-6.35 -11.88,-14.19 0,-7.83 5.32,-14.18 11.88,-14.18z"/>
  </g>
  <polygon class="fil2" points="300.13,11.56 298.09,12.52 298.09,13.19 299.42,12.57 299.42,16.58 298.09,16.58 298.09,17.22 301.39,17.22 301.39,16.58 300.13,16.58 "/>
  <path id="_1_14" class="fil2" d="M305.77 11.65l-2.65 0 -0.59 3.01c0.4,-0.15 0.86,-0.23 1.36,-0.23 0.82,0 1.39,0.38 1.39,1.1 0,0.75 -0.6,1.12 -1.33,1.12 -0.68,0 -1.19,-0.3 -1.57,-0.67l0 0.75c0.26,0.27 0.87,0.57 1.61,0.57 1.09,0 2.01,-0.6 2.01,-1.77 0,-1.06 -0.78,-1.73 -1.98,-1.73 -0.29,0 -0.49,0.03 -0.71,0.1l0.31 -1.6 2.15 0 0 -0.65z"/>
  <path id="_2_15" class="fil2" d="M310.67 11.57c-1.32,0 -2.01,1.11 -2.01,2.86 0,1.75 0.69,2.87 2.01,2.87 1.33,0 2.01,-1.13 2.01,-2.87 0,-1.74 -0.68,-2.86 -2.01,-2.86zm-1.29 2.86c0,-1.32 0.39,-2.21 1.29,-2.21 0.9,0 1.29,0.89 1.29,2.21 0,1.32 -0.39,2.22 -1.29,2.22 -0.9,0 -1.29,-0.9 -1.29,-2.22z"/>
  <path id="_3_16" class="fil2" d="M315.36 11.57c-1.32,0 -2.01,1.11 -2.01,2.86 0,1.75 0.69,2.87 2.01,2.87 1.33,0 2.01,-1.13 2.01,-2.87 0,-1.74 -0.68,-2.86 -2.01,-2.86zm-1.29 2.86c0,-1.32 0.39,-2.21 1.29,-2.21 0.9,0 1.29,0.89 1.29,2.21 0,1.32 -0.39,2.22 -1.29,2.22 -0.9,0 -1.29,-0.9 -1.29,-2.22z"/>
  <path id="_4_17" class="fil2" d="M320.05 11.57c-1.32,0 -2,1.11 -2,2.86 0,1.75 0.68,2.87 2,2.87 1.33,0 2.01,-1.13 2.01,-2.87 0,-1.74 -0.68,-2.86 -2.01,-2.86zm-1.28 2.86c0,-1.32 0.38,-2.21 1.28,-2.21 0.9,0 1.29,0.89 1.29,2.21 0,1.32 -0.39,2.22 -1.29,2.22 -0.9,0 -1.28,-0.9 -1.28,-2.22z"/>
  <rect class="fil5" x="208.25" y="11.6" width="66.21" height="11.17" rx="9.95" ry="8.27"/>
  <path class="fil2" d="M300.84 21.35c0,-0.09 0,-0.18 0.01,-0.26 0.15,-0.16 0.44,-0.37 0.84,-0.37 0.48,0 0.79,0.38 0.79,0.93 0,0.54 -0.3,0.93 -0.79,0.93 -0.5,0 -0.85,-0.42 -0.85,-1.23zm-0.45 0c0,1 0.52,1.64 1.32,1.64 0.75,0 1.23,-0.6 1.23,-1.34 0,-0.86 -0.53,-1.33 -1.19,-1.33 -0.37,0 -0.68,0.17 -0.87,0.39 0.09,-0.65 0.38,-0.99 1.11,-1.05 0.29,-0.02 0.52,-0.05 0.69,-0.09l0 -0.43c-0.22,0.06 -0.5,0.09 -0.78,0.12 -1.07,0.14 -1.51,0.87 -1.51,2.09z"/>
  <path id="_1_18" class="fil2" d="M304.67 20.26c-0.75,0 -1.27,0.57 -1.27,1.37 0,0.79 0.52,1.36 1.27,1.36 0.75,0 1.27,-0.57 1.27,-1.36 0,-0.8 -0.52,-1.37 -1.27,-1.37zm-0.82 1.37c0,-0.57 0.34,-0.96 0.82,-0.96 0.49,0 0.82,0.39 0.82,0.96 0,0.56 -0.33,0.95 -0.82,0.95 -0.48,0 -0.82,-0.39 -0.82,-0.95z"/>
  <polygon id="_2_19" class="fil2" points="308.29,20.32 308.29,21.37 307.01,21.37 307.01,20.32 306.56,20.32 306.56,22.93 307.01,22.93 307.01,21.77 308.29,21.77 308.29,22.93 308.73,22.93 308.73,20.32 "/>
  <path id="_3_20" class="fil2" d="M311.21 20.32l-0.77 2.05 -0.76 -2.05 -0.48 0 1 2.59c-0.21,0.43 -0.41,0.69 -0.74,0.69 -0.11,0 -0.19,-0.03 -0.25,-0.06l0 0.41c0.05,0.02 0.17,0.06 0.31,0.06 0.56,0 0.9,-0.48 1.18,-1.2l0.97 -2.49 -0.46 0z"/>
  <path id="_4_21" class="fil2" d="M313.27 22.99c0.33,0 0.64,-0.12 0.78,-0.27l0 -0.45c-0.2,0.18 -0.44,0.31 -0.78,0.31 -0.54,0 -0.89,-0.4 -0.89,-0.95 0,-0.56 0.35,-0.96 0.89,-0.96 0.34,0 0.58,0.14 0.78,0.32l0 -0.45c-0.14,-0.16 -0.45,-0.28 -0.78,-0.28 -0.76,0 -1.35,0.53 -1.35,1.37 0,0.83 0.59,1.36 1.35,1.36z"/>
  <path id="_5_22" class="fil2" d="M315.78 20.26c-0.74,0 -1.27,0.57 -1.27,1.37 0,0.79 0.53,1.36 1.27,1.36 0.75,0 1.28,-0.57 1.28,-1.36 0,-0.8 -0.53,-1.37 -1.28,-1.37zm-0.82 1.37c0,-0.57 0.34,-0.96 0.82,-0.96 0.49,0 0.82,0.39 0.82,0.96 0,0.56 -0.33,0.95 -0.82,0.95 -0.48,0 -0.82,-0.39 -0.82,-0.95z"/>
  <path id="_6_23" class="fil2" d="M317.67 22.93l1.21 0c0.56,0 0.88,-0.33 0.88,-0.75 0,-0.37 -0.24,-0.58 -0.49,-0.64 0.22,-0.07 0.38,-0.26 0.38,-0.55 0,-0.37 -0.27,-0.67 -0.82,-0.67l-1.16 0 0 2.61zm0.44 -0.39l0 -0.76 0.74 0c0.28,0 0.46,0.13 0.46,0.38 0,0.25 -0.18,0.38 -0.46,0.38l-0.74 0zm0 -1.14l0 -0.7 0.68 0c0.26,0 0.42,0.13 0.42,0.35 0,0.22 -0.16,0.35 -0.42,0.35l-0.68 0z"/>
  <rect class="fil5" x="329.87" y="11.6" width="56.14" height="11.17" rx="8.43" ry="8.27"/>
  <polygon class="fil6" points="213.78,15.05 213.78,19.36 214.33,19.36 214.33,15.55 216.58,15.55 216.58,19.36 217.13,19.36 217.13,15.05 "/>
  <path id="_1_24" class="fil6" d="M217.94 17.8c0,0.99 0.67,1.63 1.64,1.63 0.5,0 0.88,-0.17 1.07,-0.33l0 -0.53c-0.23,0.2 -0.58,0.37 -1.04,0.37 -0.71,0 -1.12,-0.48 -1.12,-0.97l2.2 0 0 -0.32c0,-0.82 -0.53,-1.44 -1.34,-1.44 -0.83,0 -1.41,0.64 -1.41,1.59zm0.55 -0.27c0.05,-0.49 0.36,-0.85 0.85,-0.85 0.49,0 0.8,0.37 0.83,0.85l-1.68 0z"/>
  <path id="_2_25" class="fil6" d="M221.48 20.53l0.52 0 0 -1.56c0.17,0.23 0.46,0.46 0.95,0.46 0.71,0 1.33,-0.58 1.33,-1.61 0,-1.03 -0.62,-1.61 -1.33,-1.61 -0.51,0 -0.81,0.24 -0.96,0.49l0 -0.43 -0.51 0 0 4.26zm0.52 -1.99l0 -1.45c0.21,-0.25 0.51,-0.41 0.86,-0.41 0.55,0 0.89,0.46 0.89,1.14 0,0.68 -0.34,1.13 -0.89,1.13 -0.35,0 -0.65,-0.16 -0.86,-0.41z"/>
  <path id="_3_26" class="fil6" d="M225.04 19.36l1.43 0c0.66,0 1.03,-0.38 1.03,-0.88 0,-0.44 -0.28,-0.69 -0.58,-0.77 0.26,-0.08 0.46,-0.3 0.46,-0.65 0,-0.44 -0.33,-0.79 -0.97,-0.79l-1.37 0 0 3.09zm0.52 -0.46l0 -0.9 0.87 0c0.33,0 0.55,0.15 0.55,0.45 0,0.29 -0.22,0.45 -0.55,0.45l-0.87 0zm0 -1.35l0 -0.83 0.8 0c0.3,0 0.49,0.15 0.49,0.42 0,0.26 -0.19,0.41 -0.49,0.41l-0.8 0z"/>
  <path id="_4_27" class="fil6" d="M229.56 16.21c-0.89,0 -1.5,0.67 -1.5,1.61 0,0.94 0.61,1.61 1.5,1.61 0.88,0 1.5,-0.67 1.5,-1.61 0,-0.94 -0.62,-1.61 -1.5,-1.61zm-0.97 1.61c0,-0.68 0.4,-1.14 0.97,-1.14 0.57,0 0.96,0.46 0.96,1.14 0,0.67 -0.39,1.13 -0.96,1.13 -0.57,0 -0.97,-0.46 -0.97,-1.13z"/>
  <path id="_5_28" class="fil6" d="M231.61 17.8c0,0.99 0.68,1.63 1.65,1.63 0.5,0 0.88,-0.17 1.07,-0.33l0 -0.53c-0.23,0.2 -0.58,0.37 -1.04,0.37 -0.71,0 -1.12,-0.48 -1.12,-0.97l2.2 0 0 -0.32c0,-0.82 -0.53,-1.44 -1.34,-1.44 -0.83,0 -1.42,0.64 -1.42,1.59zm0.56 -0.27c0.04,-0.49 0.36,-0.85 0.85,-0.85 0.49,0 0.8,0.37 0.82,0.85l-1.67 0z"/>
  <path id="_6_29" class="fil6" d="M237.81 16.21c-0.88,0 -1.5,0.67 -1.5,1.61 0,0.94 0.62,1.61 1.5,1.61 0.88,0 1.5,-0.67 1.5,-1.61 0,-0.94 -0.62,-1.61 -1.5,-1.61zm-0.97 1.61c0,-0.68 0.4,-1.14 0.97,-1.14 0.57,0 0.97,0.46 0.97,1.14 0,0.67 -0.4,1.13 -0.97,1.13 -0.57,0 -0.97,-0.46 -0.97,-1.13z"/>
  <path id="_7" class="fil6" d="M240.43 17.49c0,-0.1 0,-0.21 0.01,-0.3 0.17,-0.2 0.52,-0.44 0.99,-0.44 0.57,0 0.94,0.45 0.94,1.09 0,0.65 -0.36,1.11 -0.94,1.11 -0.59,0 -1,-0.5 -1,-1.46zm-0.53 0c0,1.19 0.61,1.94 1.55,1.94 0.9,0 1.45,-0.71 1.45,-1.59 0,-1.01 -0.61,-1.57 -1.39,-1.57 -0.45,0 -0.82,0.21 -1.04,0.47 0.11,-0.77 0.46,-1.17 1.31,-1.24 0.35,-0.03 0.62,-0.07 0.82,-0.11l0 -0.51c-0.26,0.06 -0.58,0.1 -0.91,0.14 -1.27,0.16 -1.79,1.03 -1.79,2.47z"/>
  <path id="_8" class="fil6" d="M245.45 17.31l-0.74 0 0 -1.04 -1.47 0 0 0.48 0.94 0 0 2.61 1.26 0c0.69,0 1.15,-0.4 1.15,-1.03 0,-0.62 -0.45,-1.02 -1.14,-1.02zm-0.74 1.59l0 -1.14 0.67 0c0.42,0 0.69,0.21 0.69,0.57 0,0.36 -0.27,0.57 -0.69,0.57l-0.67 0z"/>
  <path id="_9" class="fil6" d="M247 19.36l0.6 0 0.77 -1.04 0.69 0 0 1.04 0.53 0 0 -3.09 -1.26 0c-0.7,0 -1.16,0.41 -1.16,1.02 0,0.46 0.26,0.8 0.67,0.94l-0.84 1.13zm0.69 -2.07c0,-0.35 0.27,-0.56 0.7,-0.56l0.67 0 0 1.15 -0.67 0c-0.42,0 -0.7,-0.23 -0.7,-0.59z"/>
  <path id="_10" class="fil6" d="M250.49 19.36l1.44 0c0.66,0 1.03,-0.38 1.03,-0.88 0,-0.44 -0.29,-0.69 -0.58,-0.77 0.26,-0.08 0.45,-0.3 0.45,-0.65 0,-0.44 -0.32,-0.79 -0.96,-0.79l-1.38 0 0 3.09zm0.52 -0.46l0 -0.9 0.87 0c0.34,0 0.56,0.15 0.56,0.45 0,0.29 -0.22,0.45 -0.56,0.45l-0.87 0zm0 -1.35l0 -0.83 0.81 0c0.3,0 0.49,0.15 0.49,0.42 0,0.26 -0.19,0.41 -0.49,0.41l-0.81 0z"/>
  <path id="_11" class="fil6" d="M253.32 18.9l0 0.45c0.04,0.02 0.16,0.05 0.27,0.05 0.58,0 0.79,-0.53 0.87,-1.56l0.1 -1.09 1.13 0 0 2.61 0.53 0 0 -3.09 -2.12 0 -0.1 1.41c-0.07,0.88 -0.18,1.25 -0.52,1.25 -0.05,0 -0.11,-0.01 -0.16,-0.03z"/>
  <path id="_12" class="fil6" d="M256.94 17.8c0,0.99 0.68,1.63 1.65,1.63 0.5,0 0.88,-0.17 1.07,-0.33l0 -0.53c-0.23,0.2 -0.58,0.37 -1.04,0.37 -0.71,0 -1.12,-0.48 -1.12,-0.97l2.19 0 0 -0.32c0,-0.82 -0.52,-1.44 -1.33,-1.44 -0.83,0 -1.42,0.64 -1.42,1.59zm0.56 -0.27c0.04,-0.49 0.36,-0.85 0.85,-0.85 0.49,0 0.8,0.37 0.82,0.85l-1.67 0z"/>
  <polygon id="_13" class="fil6" points="262.53,16.27 262.53,17.52 261.01,17.52 261.01,16.27 260.49,16.27 260.49,19.36 261.01,19.36 261.01,17.99 262.53,17.99 262.53,19.36 263.06,19.36 263.06,16.27 "/>
  <polygon id="_14" class="fil6" points="266.57,16.27 266.06,16.27 264.49,18.56 264.49,16.27 263.96,16.27 263.96,19.36 264.48,19.36 266.05,17.07 266.05,19.36 266.57,19.36 "/>
  <path id="_15" class="fil6" d="M267.3 17.8c0,0.99 0.68,1.63 1.64,1.63 0.51,0 0.89,-0.17 1.08,-0.33l0 -0.53c-0.24,0.2 -0.59,0.37 -1.04,0.37 -0.71,0 -1.13,-0.48 -1.13,-0.97l2.2 0 0 -0.32c0,-0.82 -0.52,-1.44 -1.33,-1.44 -0.84,0 -1.42,0.64 -1.42,1.59zm0.55 -0.27c0.05,-0.49 0.37,-0.85 0.86,-0.85 0.49,0 0.8,0.37 0.82,0.85l-1.68 0z"/>
  <path class="fil6" d="M340.87 15.34l0 0.58c0.32,-0.3 0.86,-0.53 1.41,-0.53 0.58,0 0.98,0.24 0.98,0.69 0,0.41 -0.36,0.72 -0.92,0.72l-0.65 0 0 0.5 0.67 0c0.55,0 1.04,0.22 1.04,0.73 0,0.49 -0.45,0.79 -1.1,0.79 -0.55,0 -1.15,-0.23 -1.47,-0.53l0 0.59c0.22,0.22 0.85,0.45 1.5,0.45 0.97,0 1.63,-0.55 1.63,-1.28 0,-0.66 -0.5,-0.99 -0.87,-1.05 0.36,-0.09 0.73,-0.38 0.73,-0.94 0,-0.71 -0.62,-1.18 -1.51,-1.18 -0.65,0 -1.22,0.24 -1.44,0.46z"/>
  <path id="_1_30" class="fil6" d="M347.41 19.25l0 -0.4c-0.04,0.02 -0.1,0.03 -0.16,0.03 -0.14,0 -0.23,-0.07 -0.23,-0.22l0 -1.44c0,-0.68 -0.47,-1.11 -1.23,-1.11 -0.51,0 -0.9,0.18 -1.09,0.34l0 0.52c0.24,-0.21 0.65,-0.38 1.04,-0.38 0.46,0 0.76,0.22 0.76,0.66l0 0.29c-0.17,-0.07 -0.4,-0.12 -0.74,-0.12 -0.69,0 -1.25,0.35 -1.25,0.96 0,0.59 0.49,0.95 1.09,0.95 0.46,0 0.73,-0.17 0.91,-0.41 0.05,0.26 0.3,0.41 0.58,0.41 0.15,0 0.25,-0.04 0.32,-0.08zm-2.36 -0.87c0,-0.35 0.34,-0.53 0.74,-0.53 0.29,0 0.52,0.05 0.71,0.11l0 0.55c-0.17,0.21 -0.42,0.36 -0.82,0.36 -0.4,0 -0.63,-0.19 -0.63,-0.49z"/>
  <polygon id="_2_31" class="fil6" points="349.34,16.18 349.34,19.26 349.87,19.26 349.87,16.65 351.37,16.65 351.37,19.26 351.89,19.26 351.89,16.18 "/>
  <path id="_3_32" class="fil6" d="M354.12 16.11c-0.88,0 -1.5,0.67 -1.5,1.61 0,0.94 0.62,1.61 1.5,1.61 0.89,0 1.51,-0.67 1.51,-1.61 0,-0.94 -0.62,-1.61 -1.51,-1.61zm-0.96 1.61c0,-0.68 0.39,-1.13 0.96,-1.13 0.58,0 0.97,0.45 0.97,1.13 0,0.67 -0.39,1.13 -0.97,1.13 -0.57,0 -0.96,-0.46 -0.96,-1.13z"/>
  <path id="_4_33" class="fil6" d="M359.31 18.79l-0.45 0 0 -2.61 -2.18 0 -0.08 0.93c-0.05,0.76 -0.17,1.36 -0.39,1.68l-0.28 0 0 1.26 0.5 0 0 -0.79 2.39 0 0 0.79 0.49 0 0 -1.26zm-2.58 0c0.2,-0.34 0.3,-0.88 0.36,-1.67l0.04 -0.47 1.21 0 0 2.14 -1.61 0z"/>
  <polygon id="_5_34" class="fil6" points="359.95,16.18 359.95,19.26 360.48,19.26 360.48,16.65 361.98,16.65 361.98,19.26 362.5,19.26 362.5,16.18 "/>
  <polygon id="_6_35" class="fil6" points="366.02,16.18 365.51,16.18 363.93,18.46 363.93,16.18 363.41,16.18 363.41,19.26 363.92,19.26 365.5,16.97 365.5,19.26 366.02,19.26 "/>
  <path id="_7_36" class="fil6" d="M368.34 19.33c0.39,0 0.75,-0.14 0.92,-0.32l0 -0.53c-0.23,0.21 -0.52,0.37 -0.92,0.37 -0.64,0 -1.06,-0.47 -1.06,-1.13 0,-0.66 0.42,-1.13 1.06,-1.13 0.4,0 0.69,0.17 0.92,0.38l0 -0.53c-0.16,-0.19 -0.53,-0.33 -0.92,-0.33 -0.9,0 -1.59,0.62 -1.59,1.61 0,0.99 0.69,1.61 1.59,1.61z"/>
  <polygon id="_8_37" class="fil6" points="370.02,19.26 370.55,19.26 370.55,17.85 370.94,17.85 371.96,19.26 372.59,19.26 371.4,17.61 372.57,16.18 371.96,16.18 370.95,17.41 370.55,17.41 370.55,16.18 370.02,16.18 "/>
  <path id="_9_38" class="fil6" d="M375.21 16.18l-0.91 2.42 -0.9 -2.42 -0.57 0 1.18 3.06c-0.24,0.51 -0.47,0.81 -0.87,0.81 -0.13,0 -0.22,-0.03 -0.29,-0.07l0 0.48c0.06,0.03 0.2,0.08 0.36,0.08 0.66,0 1.07,-0.57 1.4,-1.42l1.14 -2.94 -0.54 0z"/>
  <rect class="fil5" x="103.96" y="11.6" width="55.04" height="11.17" rx="8.27" ry="8.27"/>
  <path class="fil6" d="M109.4 15.39l0 0.58c0.31,-0.3 0.86,-0.53 1.4,-0.53 0.59,0 0.99,0.24 0.99,0.69 0,0.41 -0.37,0.72 -0.92,0.72l-0.65 0 0 0.5 0.67 0c0.55,0 1.04,0.22 1.04,0.73 0,0.48 -0.45,0.79 -1.1,0.79 -0.55,0 -1.15,-0.23 -1.47,-0.53l0 0.59c0.22,0.22 0.85,0.45 1.5,0.45 0.97,0 1.63,-0.55 1.63,-1.28 0,-0.66 -0.5,-0.99 -0.88,-1.05 0.36,-0.09 0.74,-0.38 0.74,-0.94 0,-0.71 -0.62,-1.18 -1.52,-1.18 -0.64,0 -1.21,0.23 -1.43,0.46z"/>
  <path id="_1_39" class="fil6" d="M115.94 19.3l0 -0.4c-0.05,0.02 -0.1,0.03 -0.16,0.03 -0.14,0 -0.23,-0.07 -0.23,-0.22l0 -1.44c0,-0.68 -0.47,-1.11 -1.24,-1.11 -0.5,0 -0.9,0.18 -1.08,0.34l0 0.52c0.23,-0.21 0.64,-0.38 1.04,-0.38 0.45,0 0.75,0.22 0.75,0.66l0 0.28c-0.16,-0.06 -0.39,-0.11 -0.73,-0.11 -0.69,0 -1.25,0.35 -1.25,0.96 0,0.59 0.49,0.95 1.09,0.95 0.46,0 0.73,-0.17 0.91,-0.41 0.05,0.26 0.3,0.41 0.58,0.41 0.15,0 0.25,-0.04 0.32,-0.08zm-2.37 -0.87c0,-0.35 0.35,-0.53 0.74,-0.53 0.3,0 0.53,0.05 0.71,0.11l0 0.55c-0.17,0.21 -0.41,0.36 -0.81,0.36 -0.4,0 -0.64,-0.19 -0.64,-0.49z"/>
  <path id="_2_40" class="fil6" d="M117.87 20.48l0.52 0 0 -1.56c0.17,0.23 0.46,0.46 0.95,0.46 0.71,0 1.33,-0.58 1.33,-1.61 0,-1.03 -0.62,-1.61 -1.33,-1.61 -0.51,0 -0.81,0.24 -0.96,0.49l0 -0.43 -0.51 0 0 4.26zm0.52 -1.99l0 -1.44c0.21,-0.26 0.51,-0.41 0.86,-0.41 0.55,0 0.89,0.45 0.89,1.13 0,0.68 -0.34,1.13 -0.89,1.13 -0.35,0 -0.65,-0.16 -0.86,-0.41z"/>
  <path id="_3_41" class="fil6" d="M121.25 17.75c0,0.99 0.67,1.63 1.64,1.63 0.5,0 0.88,-0.17 1.07,-0.33l0 -0.53c-0.23,0.2 -0.58,0.38 -1.04,0.38 -0.7,0 -1.12,-0.49 -1.12,-0.98l2.2 0 0 -0.32c0,-0.82 -0.53,-1.44 -1.34,-1.44 -0.83,0 -1.41,0.64 -1.41,1.59zm0.55 -0.27c0.05,-0.49 0.36,-0.85 0.86,-0.85 0.49,0 0.79,0.37 0.82,0.85l-1.68 0z"/>
  <polygon id="_4_42" class="fil6" points="124.79,19.31 125.32,19.31 125.32,16.7 126.88,16.7 126.88,16.22 124.79,16.22 "/>
  <polygon id="_5_43" class="fil6" points="130.14,16.22 129.63,16.22 128.05,18.51 128.05,16.22 127.53,16.22 127.53,19.31 128.05,19.31 129.62,17.02 129.62,19.31 130.14,19.31 "/>
  <path id="_6_44" class="fil6" d="M132.46 19.38c0.39,0 0.76,-0.14 0.92,-0.32l0 -0.53c-0.23,0.21 -0.52,0.37 -0.92,0.37 -0.64,0 -1.06,-0.47 -1.06,-1.13 0,-0.66 0.42,-1.13 1.06,-1.13 0.4,0 0.69,0.17 0.92,0.38l0 -0.53c-0.16,-0.19 -0.52,-0.33 -0.92,-0.33 -0.9,0 -1.59,0.62 -1.59,1.61 0,0.98 0.69,1.61 1.59,1.61z"/>
  <polygon id="_7_45" class="fil6" points="133.89,16.7 134.95,16.7 134.95,19.31 135.48,19.31 135.48,16.7 136.55,16.7 136.55,16.22 133.89,16.22 "/>
  <path id="_8_46" class="fil6" d="M137.2 20.48l0.53 0 0 -1.56c0.16,0.23 0.46,0.46 0.94,0.46 0.72,0 1.34,-0.58 1.34,-1.61 0,-1.03 -0.62,-1.61 -1.34,-1.61 -0.51,0 -0.8,0.24 -0.96,0.49l0 -0.43 -0.51 0 0 4.26zm0.53 -1.99l0 -1.44c0.2,-0.26 0.51,-0.41 0.85,-0.41 0.55,0 0.89,0.45 0.89,1.13 0,0.68 -0.34,1.13 -0.89,1.13 -0.34,0 -0.65,-0.16 -0.85,-0.41z"/>
  <path id="_9_47" class="fil6" d="M143.47 19.3l0 -0.4c-0.05,0.02 -0.1,0.03 -0.16,0.03 -0.14,0 -0.24,-0.07 -0.24,-0.22l0 -1.44c0,-0.68 -0.46,-1.11 -1.23,-1.11 -0.5,0 -0.9,0.18 -1.08,0.34l0 0.52c0.23,-0.21 0.64,-0.38 1.04,-0.38 0.45,0 0.75,0.22 0.75,0.66l0 0.28c-0.16,-0.06 -0.39,-0.11 -0.73,-0.11 -0.69,0 -1.25,0.35 -1.25,0.96 0,0.59 0.49,0.95 1.09,0.95 0.46,0 0.73,-0.17 0.91,-0.41 0.05,0.26 0.3,0.41 0.58,0.41 0.15,0 0.25,-0.04 0.32,-0.08zm-2.37 -0.87c0,-0.35 0.35,-0.53 0.74,-0.53 0.3,0 0.53,0.05 0.71,0.11l0 0.55c-0.17,0.21 -0.41,0.36 -0.81,0.36 -0.4,0 -0.64,-0.19 -0.64,-0.49z"/>
  <polygon id="_10_48" class="fil6" points="147.05,18.84 146.6,18.84 146.6,16.22 146.08,16.22 146.08,18.84 144.59,18.84 144.59,16.22 144.07,16.22 144.07,19.31 146.55,19.31 146.55,20.1 147.05,20.1 "/>
  <polygon id="_11_49" class="fil6" points="150.3,16.22 149.78,16.22 148.21,18.51 148.21,16.22 147.69,16.22 147.69,19.31 148.2,19.31 149.78,17.02 149.78,19.31 150.3,19.31 "/>
  <path id="_12_50" class="fil6" d="M151.73 19.31l0 -1.37 0.58 0c0.08,0.85 0.67,1.44 1.5,1.44 0.88,0 1.5,-0.67 1.5,-1.61 0,-0.94 -0.62,-1.61 -1.5,-1.61 -0.79,0 -1.36,0.53 -1.48,1.31l-0.6 0 0 -1.25 -0.53 0 0 3.09 0.53 0zm1.11 -1.54c0,-0.68 0.4,-1.13 0.97,-1.13 0.57,0 0.96,0.45 0.96,1.13 0,0.67 -0.39,1.13 -0.96,1.13 -0.57,0 -0.97,-0.46 -0.97,-1.13z"/>
 </g>
</svg>
