<?xml version="1.0" encoding="UTF-8"?>
<!DOCTYPE svg PUBLIC "-//W3C//DTD SVG 1.1//EN" "http://www.w3.org/Graphics/SVG/1.1/DTD/svg11.dtd">
<!-- Creator: CorelDRAW 2021.5 -->
<svg xmlns="http://www.w3.org/2000/svg" xml:space="preserve" width="3634px" height="434px" version="1.1" style="shape-rendering:geometricPrecision; text-rendering:geometricPrecision; image-rendering:optimizeQuality; fill-rule:evenodd; clip-rule:evenodd"
viewBox="0 0 3634 434.33"
 xmlns:xlink="http://www.w3.org/1999/xlink"
 xmlns:xodm="http://www.corel.com/coreldraw/odm/2003">
 <defs>
  <style type="text/css">
   <![CDATA[
    .str0 {stroke:#917DFA;stroke-width:6.25;stroke-miterlimit:22.9256}
    .fil3 {fill:none;fill-rule:nonzero}
    .fil2 {fill:#011948;fill-rule:nonzero}
    .fil5 {fill:#011948;fill-rule:nonzero}
    .fil1 {fill:#917DFA;fill-rule:nonzero}
    .fil4 {fill:#FEFEFE;fill-rule:nonzero}
    .fil0 {fill:white;fill-rule:nonzero}
   ]]>
  </style>
 </defs>
 <g id="Слой_x0020_1">
  <metadata id="CorelCorpID_0Corel-Layer"/>
  <rect class="fil0" x="3.12" y="3.13" width="3627.75" height="428.08"/>
  <path class="fil1" d="M2337.68 41.98c-316.74,34.3 -478.12,130.51 -360.47,214.89 40.91,29.34 110.22,53.37 196.51,70.82 13.85,13.25 31.93,45.92 -79.8,76.06 0,0 186.72,-9.35 243.1,-52.83 132.82,12.27 283.34,12.14 426.68,-3.39 316.72,-34.31 478.09,-130.51 360.47,-214.89 -117.65,-84.37 -469.79,-124.96 -786.49,-90.66l0 0z"/>
  <path class="fil2" d="M1002.83 153.11l0 -44.62 33.5 0 0 44.62 -5.56 0 0 -39.68 -22.31 0 0 39.68 -5.63 0zm74.09 -16.81c0,5.54 -1.42,9.83 -4.25,12.87 -2.79,3.04 -6.59,4.57 -11.38,4.57 -2.96,0 -5.6,-0.67 -7.93,-2.01 -2.29,-1.37 -4.11,-3.35 -5.44,-5.93 -1.33,-2.63 -2,-5.79 -2,-9.5 0,-5.54 1.4,-9.81 4.19,-12.81 2.79,-3 6.58,-4.5 11.37,-4.5 3.04,0 5.71,0.69 8,2.06 2.33,1.33 4.15,3.29 5.44,5.87 1.33,2.55 2,5.67 2,9.38zm-25.31 0c0,3.96 0.77,7.1 2.31,9.44 1.58,2.29 4.08,3.43 7.5,3.43 3.37,0 5.85,-1.14 7.43,-3.43 1.59,-2.34 2.38,-5.48 2.38,-9.44 0,-3.96 -0.79,-7.06 -2.38,-9.31 -1.58,-2.25 -4.08,-3.38 -7.5,-3.38 -3.41,0 -5.89,1.13 -7.43,3.38 -1.54,2.25 -2.31,5.35 -2.31,9.31zm58.89 -16.69l0 28.88 4.88 0 0 16.24 -5.31 0 0 -11.62 -23.31 0 0 11.62 -5.25 0 0 -16.24 2.68 0c2.88,-3.96 5.03,-8.46 6.44,-13.5 1.46,-5.09 2.21,-10.21 2.25,-15.38l17.62 0zm-12.75 4.31c-0.16,2.84 -0.6,5.78 -1.31,8.82 -0.7,3 -1.62,5.87 -2.75,8.62 -1.08,2.75 -2.35,5.13 -3.81,7.13l15.31 0 0 -24.57 -7.44 0zm52.5 -4.31l0 33.5 -5.5 0 0 -28.81 -17.31 0 0 28.81 -5.5 0 0 -33.5 28.31 0zm15.88 20.44c0,0.5 -0.02,1.25 -0.06,2.25 -0.04,1 -0.11,2 -0.19,3 -0.04,1 -0.09,1.79 -0.13,2.37l17.94 -28.06 6.75 0 0 33.5 -5.13 0 0 -19.75c0,-0.67 0,-1.54 0,-2.62 0.05,-1.09 0.09,-2.15 0.13,-3.19 0.04,-1.08 0.08,-1.9 0.12,-2.44l-17.81 28 -6.81 0 0 -33.5 5.19 0 0 20.44zm80.4 -20.44l0 33.5 -45.43 0 0 -33.5 5.5 0 0 28.88 14.43 0 0 -28.88 5.5 0 0 28.88 14.5 0 0 -28.88 5.5 0zm15.9 20.44c0,0.5 -0.02,1.25 -0.06,2.25 -0.04,1 -0.1,2 -0.19,3 -0.04,1 -0.08,1.79 -0.12,2.37l17.93 -28.06 6.75 0 0 33.5 -5.12 0 0 -19.75c0,-0.67 0,-1.54 0,-2.62 0.04,-1.09 0.08,-2.15 0.12,-3.19 0.04,-1.08 0.09,-1.9 0.13,-2.44l-17.81 28 -6.82 0 0 -33.5 5.19 0 0 20.44zm48.41 13.69c-2.96,0 -5.61,-0.61 -7.94,-1.82 -2.29,-1.21 -4.1,-3.08 -5.43,-5.62 -1.3,-2.54 -1.94,-5.79 -1.94,-9.75 0,-4.13 0.69,-7.48 2.06,-10.06 1.38,-2.59 3.23,-4.48 5.56,-5.69 2.38,-1.21 5.06,-1.81 8.06,-1.81 1.71,0 3.36,0.19 4.94,0.56 1.58,0.33 2.88,0.75 3.87,1.25l-1.68 4.56c-1,-0.37 -2.17,-0.73 -3.5,-1.06 -1.34,-0.33 -2.59,-0.5 -3.75,-0.5 -6.58,0 -9.87,4.23 -9.87,12.69 0,4.04 0.79,7.14 2.37,9.31 1.62,2.12 4.02,3.19 7.19,3.19 1.83,0 3.43,-0.19 4.81,-0.57 1.41,-0.37 2.7,-0.83 3.87,-1.37l0 4.87c-1.12,0.59 -2.37,1.02 -3.75,1.31 -1.33,0.34 -2.96,0.51 -4.87,0.51zm32.02 -20.38c8.71,0 13.06,3.17 13.06,9.5 0,3.13 -1.06,5.63 -3.18,7.5 -2.13,1.83 -5.5,2.75 -10.13,2.75l-15.18 0 0 -33.5 5.5 0 0 13.75 9.93 0zm7.57 9.81c0,-2.04 -0.73,-3.41 -2.19,-4.12 -1.42,-0.75 -3.42,-1.13 -6,-1.13l-9.31 0 0 10.75 9.43 0c2.34,0 4.25,-0.41 5.75,-1.25 1.54,-0.83 2.32,-2.25 2.32,-4.25zm35.84 -23.56l0 13.94 18.18 0 0 -13.94 5.5 0 0 33.5 -5.5 0 0 -14.94 -18.18 0 0 14.94 -5.5 0 0 -33.5 5.5 0zm46.98 -0.56c4.08,0 7.1,0.9 9.06,2.69 1.95,1.79 2.93,4.64 2.93,8.56l0 22.81 -4 0 -1.06 -4.75 -0.25 0c-1.46,1.83 -3,3.19 -4.62,4.06 -1.59,0.88 -3.8,1.32 -6.63,1.32 -3.04,0 -5.56,-0.8 -7.56,-2.38 -2,-1.62 -3,-4.14 -3,-7.56 0,-3.33 1.31,-5.9 3.94,-7.69 2.62,-1.83 6.66,-2.83 12.12,-3l5.69 -0.19 0 -2c0,-2.79 -0.61,-4.72 -1.81,-5.81 -1.21,-1.08 -2.92,-1.62 -5.13,-1.62 -1.75,0 -3.42,0.27 -5,0.81 -1.58,0.5 -3.06,1.08 -4.43,1.75l-1.69 -4.12c1.45,-0.8 3.19,-1.46 5.19,-2 1.99,-0.59 4.08,-0.88 6.25,-0.88zm1.62 17.87c-4.17,0.17 -7.06,0.84 -8.69,2 -1.58,1.17 -2.37,2.82 -2.37,4.94 0,1.88 0.56,3.25 1.69,4.13 1.16,0.87 2.64,1.31 4.43,1.31 2.83,0 5.19,-0.77 7.06,-2.31 1.88,-1.59 2.82,-4 2.82,-7.25l0 -3 -4.94 0.18zm52.89 -17.93c4.12,0 7.43,1.44 9.93,4.31 2.55,2.87 3.82,7.21 3.82,13 0,5.71 -1.27,10.04 -3.82,13 -2.5,2.96 -5.83,4.44 -9.99,4.44 -2.59,0 -4.73,-0.48 -6.44,-1.44 -1.67,-1 -2.98,-2.15 -3.94,-3.44l-0.37 0c0.08,0.71 0.16,1.6 0.25,2.69 0.08,1.08 0.12,2.02 0.12,2.81l0 13.75 -5.5 0 0 -48.5 4.5 0 0.75 4.57 0.25 0c1,-1.46 2.31,-2.69 3.94,-3.69 1.62,-1 3.79,-1.5 6.5,-1.5zm-1 4.62c-3.42,0 -5.84,0.96 -7.25,2.88 -1.38,1.91 -2.1,4.83 -2.19,8.75l0 1.06c0,4.12 0.67,7.31 2,9.56 1.38,2.21 3.9,3.31 7.56,3.31 2.04,0 3.71,-0.56 5,-1.68 1.34,-1.13 2.31,-2.65 2.94,-4.57 0.67,-1.95 1,-4.18 1,-6.68 0,-3.84 -0.75,-6.9 -2.25,-9.19 -1.46,-2.29 -3.73,-3.44 -6.81,-3.44zm36.2 -4.56c4.08,0 7.1,0.9 9.06,2.69 1.95,1.79 2.94,4.64 2.94,8.56l0 22.81 -4 0 -1.07 -4.75 -0.25 0c-1.45,1.83 -3,3.19 -4.62,4.06 -1.58,0.88 -3.79,1.32 -6.62,1.32 -3.05,0 -5.57,-0.8 -7.57,-2.38 -2,-1.62 -3,-4.14 -3,-7.56 0,-3.33 1.32,-5.9 3.94,-7.69 2.63,-1.83 6.67,-2.83 12.12,-3l5.69 -0.19 0 -2c0,-2.79 -0.6,-4.72 -1.81,-5.81 -1.21,-1.08 -2.92,-1.62 -5.12,-1.62 -1.75,0 -3.42,0.27 -5,0.81 -1.59,0.5 -3.07,1.08 -4.44,1.75l-1.69 -4.12c1.46,-0.8 3.19,-1.46 5.19,-2 2,-0.59 4.08,-0.88 6.25,-0.88zm1.62 17.87c-4.17,0.17 -7.06,0.84 -8.68,2 -1.59,1.17 -2.38,2.82 -2.38,4.94 0,1.88 0.56,3.25 1.69,4.13 1.16,0.87 2.64,1.31 4.44,1.31 2.83,0 5.18,-0.77 7.06,-2.31 1.87,-1.59 2.81,-4 2.81,-7.25l0 -3 -4.94 0.18zm34.16 16.82c-2.96,0 -5.61,-0.61 -7.94,-1.82 -2.29,-1.21 -4.1,-3.08 -5.44,-5.62 -1.29,-2.54 -1.93,-5.79 -1.93,-9.75 0,-4.13 0.68,-7.48 2.06,-10.06 1.37,-2.59 3.23,-4.48 5.56,-5.69 2.38,-1.21 5.06,-1.81 8.06,-1.81 1.71,0 3.36,0.19 4.94,0.56 1.58,0.33 2.88,0.75 3.87,1.25l-1.68 4.56c-1,-0.37 -2.17,-0.73 -3.5,-1.06 -1.34,-0.33 -2.59,-0.5 -3.75,-0.5 -6.59,0 -9.88,4.23 -9.88,12.69 0,4.04 0.79,7.14 2.38,9.31 1.62,2.12 4.02,3.19 7.19,3.19 1.83,0 3.43,-0.19 4.81,-0.57 1.41,-0.37 2.7,-0.83 3.87,-1.37l0 4.87c-1.12,0.59 -2.37,1.02 -3.75,1.31 -1.33,0.34 -2.96,0.51 -4.87,0.51zm30.02 0c-2.96,0 -5.6,-0.61 -7.93,-1.82 -2.29,-1.21 -4.11,-3.08 -5.44,-5.62 -1.29,-2.54 -1.94,-5.79 -1.94,-9.75 0,-4.13 0.69,-7.48 2.06,-10.06 1.38,-2.59 3.23,-4.48 5.57,-5.69 2.37,-1.21 5.06,-1.81 8.06,-1.81 1.71,0 3.35,0.19 4.93,0.56 1.59,0.33 2.88,0.75 3.88,1.25l-1.69 4.56c-1,-0.37 -2.16,-0.73 -3.5,-1.06 -1.33,-0.33 -2.58,-0.5 -3.75,-0.5 -6.58,0 -9.87,4.23 -9.87,12.69 0,4.04 0.79,7.14 2.37,9.31 1.63,2.12 4.03,3.19 7.19,3.19 1.84,0 3.44,-0.19 4.81,-0.57 1.42,-0.37 2.71,-0.83 3.88,-1.37l0 4.87c-1.13,0.59 -2.38,1.02 -3.75,1.31 -1.34,0.34 -2.96,0.51 -4.88,0.51zm16.59 -0.63l0 -33.5 5.5 0 0 13.75 8.69 0c4.33,0 7.54,0.79 9.62,2.38 2.09,1.58 3.13,3.95 3.13,7.12 0,3.13 -1.02,5.63 -3.07,7.5 -2.04,1.83 -5.35,2.75 -9.93,2.75l-13.94 0zm32.5 0l0 -33.5 5.5 0 0 33.5 -5.5 0zm-19.06 -4.44c2.37,0 4.31,-0.39 5.81,-1.18 1.5,-0.84 2.25,-2.28 2.25,-4.32 0,-2.04 -0.69,-3.41 -2.06,-4.12 -1.38,-0.75 -3.36,-1.13 -5.94,-1.13l-8 0 0 10.75 7.94 0zm60.7 4.44l-5.56 0 0 -28.93 -9.88 0c-0.54,7.04 -1.29,12.72 -2.24,17.06 -0.96,4.29 -2.24,7.41 -3.82,9.37 -1.58,1.96 -3.58,2.94 -6,2.94 -0.54,0 -1.08,-0.04 -1.62,-0.13 -0.5,-0.04 -0.92,-0.14 -1.25,-0.31l0 -4.12c0.25,0.08 0.52,0.14 0.81,0.18 0.29,0.04 0.58,0.07 0.88,0.07 2.25,0 4.04,-2.4 5.37,-7.19 1.38,-4.79 2.42,-12.27 3.13,-22.44l20.18 0 0 33.5zm30.44 -33.5l6 0 -14.31 16.13 15.5 17.37 -6.38 0 -15.12 -17 0 17 -5.5 0 0 -33.5 5.5 0 0 16.25 14.31 -16.25zm8.02 0l5.87 0 7.25 19.06c0.63,1.67 1.19,3.27 1.69,4.82 0.5,1.5 0.88,2.93 1.13,4.31l0.25 0c0.25,-1.04 0.64,-2.4 1.18,-4.06 0.55,-1.71 1.11,-3.42 1.69,-5.13l6.81 -19 5.94 0 -14.44 38.12c-1.16,3.17 -2.68,5.69 -4.56,7.57 -1.83,1.87 -4.37,2.81 -7.62,2.81 -1,0 -1.88,-0.06 -2.63,-0.19 -0.75,-0.08 -1.39,-0.19 -1.94,-0.31l0 -4.38c0.46,0.09 1.01,0.17 1.63,0.25 0.67,0.09 1.36,0.13 2.06,0.13 1.92,0 3.46,-0.54 4.63,-1.63 1.21,-1.08 2.14,-2.52 2.81,-4.31l1.75 -4.44 -13.5 -33.62zm-710.68 111.05c0,0.5 -0.02,1.25 -0.06,2.25 -0.04,1 -0.1,2 -0.19,3 -0.04,1 -0.08,1.8 -0.12,2.38l17.93 -28.06 6.75 0 0 33.5 -5.12 0 0 -19.75c0,-0.67 0,-1.54 0,-2.63 0.04,-1.08 0.08,-2.14 0.12,-3.18 0.04,-1.09 0.08,-1.9 0.13,-2.44l-17.81 28 -6.82 0 0 -33.5 5.19 0 0 20.43zm79.51 -20.43l0 33.5 -5.49 0 0 -28.81 -17.32 0 0 28.81 -5.5 0 0 -33.5 28.31 0zm39.81 16.68c0,5.55 -1.41,9.84 -4.25,12.88 -2.79,3.04 -6.58,4.56 -11.37,4.56 -2.96,0 -5.6,-0.67 -7.94,-2 -2.29,-1.37 -4.1,-3.35 -5.43,-5.94 -1.34,-2.62 -2,-5.79 -2,-9.5 0,-5.54 1.39,-9.81 4.18,-12.81 2.8,-3 6.59,-4.5 11.38,-4.5 3.04,0 5.71,0.69 8,2.07 2.33,1.33 4.14,3.29 5.43,5.87 1.34,2.54 2,5.67 2,9.37zm-25.31 0c0,3.96 0.77,7.11 2.31,9.44 1.59,2.29 4.09,3.44 7.5,3.44 3.38,0 5.86,-1.15 7.44,-3.44 1.58,-2.33 2.38,-5.48 2.38,-9.44 0,-3.95 -0.8,-7.06 -2.38,-9.31 -1.58,-2.25 -4.08,-3.37 -7.5,-3.37 -3.41,0 -5.89,1.12 -7.44,3.37 -1.54,2.25 -2.31,5.36 -2.31,9.31zm59.53 16.82l-5.56 0 0 -28.94 -9.88 0c-0.54,7.04 -1.29,12.73 -2.25,17.06 -0.96,4.29 -2.23,7.42 -3.81,9.38 -1.58,1.95 -3.58,2.93 -6,2.93 -0.54,0 -1.08,-0.04 -1.62,-0.12 -0.5,-0.04 -0.92,-0.15 -1.25,-0.31l0 -4.13c0.25,0.08 0.51,0.15 0.81,0.19 0.29,0.04 0.58,0.06 0.87,0.06 2.25,0 4.04,-2.4 5.38,-7.19 1.37,-4.79 2.41,-12.27 3.12,-22.43l20.19 0 0 33.5zm5.38 -33.5l5.87 0 7.25 19.06c0.63,1.67 1.19,3.27 1.69,4.81 0.5,1.5 0.87,2.94 1.12,4.31l0.25 0c0.25,-1.04 0.65,-2.39 1.19,-4.06 0.54,-1.71 1.11,-3.42 1.69,-5.12l6.81 -19 5.94 0 -14.44 38.12c-1.16,3.17 -2.69,5.69 -4.56,7.56 -1.83,1.88 -4.38,2.81 -7.63,2.81 -0.99,0 -1.87,-0.06 -2.62,-0.18 -0.75,-0.09 -1.39,-0.19 -1.94,-0.32l0 -4.37c0.46,0.08 1,0.17 1.63,0.25 0.67,0.08 1.35,0.12 2.06,0.12 1.92,0 3.46,-0.54 4.62,-1.62 1.21,-1.08 2.15,-2.52 2.82,-4.31l1.75 -4.44 -13.5 -33.62zm41.92 12.19c0,3.83 2.14,5.74 6.44,5.74 2.08,0 3.97,-0.31 5.68,-0.93 1.71,-0.67 3.46,-1.54 5.25,-2.63l0 -14.37 5.5 0 0 33.5 -5.5 0 0 -14.94c-1.87,1.21 -3.73,2.17 -5.56,2.87 -1.79,0.67 -3.96,1 -6.5,1 -3.42,0 -6.08,-0.89 -8,-2.68 -1.87,-1.79 -2.81,-4.19 -2.81,-7.19l0 -12.56 5.5 0 0 12.19zm38.7 8.24c0,0.5 -0.02,1.25 -0.06,2.25 -0.05,1 -0.11,2 -0.19,3 -0.04,1 -0.09,1.8 -0.13,2.38l17.94 -28.06 6.75 0 0 33.5 -5.13 0 0 -19.75c0,-0.67 0,-1.54 0,-2.63 0.04,-1.08 0.09,-2.14 0.13,-3.18 0.04,-1.09 0.08,-1.9 0.12,-2.44l-17.81 28 -6.81 0 0 -33.5 5.19 0 0 20.43zm279.09 13.69c-2.95,0 -5.6,-0.6 -7.93,-1.81 -2.29,-1.21 -4.11,-3.08 -5.44,-5.63 -1.29,-2.54 -1.94,-5.79 -1.94,-9.74 0,-4.13 0.69,-7.48 2.07,-10.07 1.37,-2.58 3.22,-4.48 5.56,-5.68 2.37,-1.21 5.06,-1.82 8.06,-1.82 1.71,0 3.35,0.19 4.94,0.57 1.58,0.33 2.87,0.75 3.87,1.25l-1.69 4.56c-1,-0.38 -2.16,-0.73 -3.5,-1.06 -1.33,-0.34 -2.58,-0.5 -3.75,-0.5 -6.58,0 -9.87,4.22 -9.87,12.68 0,4.04 0.79,7.15 2.37,9.31 1.63,2.13 4.03,3.19 7.19,3.19 1.84,0 3.44,-0.19 4.81,-0.56 1.42,-0.38 2.71,-0.84 3.88,-1.38l0 4.88c-1.13,0.58 -2.38,1.02 -3.75,1.31 -1.34,0.33 -2.96,0.5 -4.88,0.5zm11.34 -34.12l5.88 0 7.25 19.06c0.62,1.67 1.18,3.27 1.68,4.81 0.5,1.5 0.88,2.94 1.13,4.31l0.25 0c0.25,-1.04 0.65,-2.39 1.19,-4.06 0.54,-1.71 1.1,-3.42 1.68,-5.12l6.82 -19 5.93 0 -14.43 38.12c-1.17,3.17 -2.69,5.69 -4.57,7.56 -1.83,1.88 -4.37,2.81 -7.62,2.81 -1,0 -1.87,-0.06 -2.62,-0.18 -0.75,-0.09 -1.4,-0.19 -1.94,-0.32l0 -4.37c0.46,0.08 1,0.17 1.62,0.25 0.67,0.08 1.36,0.12 2.07,0.12 1.91,0 3.45,-0.54 4.62,-1.62 1.21,-1.08 2.15,-2.52 2.81,-4.31l1.75 -4.44 -13.5 -33.62zm73.05 0l0 33.5 -4.94 0 0 -21.38c0,-0.87 0.02,-1.79 0.06,-2.75 0.08,-0.96 0.17,-1.89 0.25,-2.81l-0.19 0 -10.93 26.94 -4.63 0 -10.62 -26.94 -0.19 0c0.13,1.88 0.19,3.79 0.19,5.75l0 21.19 -4.94 0 0 -33.5 7.31 0 10.57 26.93 10.74 -26.93 7.32 0zm-609.96 103.99c0,-7.33 1.11,-13.04 3.32,-17.13 2.2,-4.12 5.77,-6.7 10.68,-7.74 2.71,-0.59 5.36,-1.11 7.94,-1.57 2.58,-0.45 5,-0.87 7.25,-1.25l0.94 4.82c-1.46,0.2 -3.11,0.47 -4.94,0.81 -1.84,0.29 -3.65,0.6 -5.44,0.94 -1.79,0.29 -3.33,0.58 -4.62,0.87 -2.71,0.58 -4.86,2 -6.44,4.25 -1.58,2.21 -2.48,5.67 -2.69,10.37l0.38 0c0.58,-0.79 1.37,-1.6 2.37,-2.43 1.04,-0.84 2.27,-1.55 3.69,-2.13 1.46,-0.58 3.1,-0.87 4.94,-0.87 4.33,0 7.6,1.39 9.81,4.18 2.21,2.79 3.31,6.42 3.31,10.88 0,3.71 -0.65,6.81 -1.94,9.31 -1.29,2.5 -3.08,4.37 -5.37,5.62 -2.29,1.21 -4.96,1.82 -8,1.82 -4.62,0 -8.31,-1.78 -11.06,-5.32 -2.75,-3.54 -4.13,-8.68 -4.13,-15.43zm15.63 16.18c2.71,0 4.89,-0.87 6.56,-2.62 1.66,-1.75 2.5,-4.75 2.5,-9 0,-3.41 -0.65,-6.1 -1.94,-8.06 -1.25,-2 -3.33,-3 -6.25,-3 -1.83,0 -3.5,0.42 -5,1.25 -1.5,0.79 -2.75,1.71 -3.75,2.75 -1,1.04 -1.71,1.91 -2.12,2.62 0,2.04 0.15,4.02 0.44,5.94 0.29,1.91 0.79,3.65 1.5,5.19 0.75,1.5 1.77,2.71 3.06,3.62 1.33,0.88 3,1.31 5,1.31zm52.66 -12.87c0,5.54 -1.42,9.83 -4.25,12.87 -2.8,3.04 -6.59,4.57 -11.38,4.57 -2.95,0 -5.6,-0.67 -7.93,-2 -2.3,-1.38 -4.11,-3.36 -5.44,-5.94 -1.33,-2.63 -2,-5.79 -2,-9.5 0,-5.54 1.39,-9.81 4.19,-12.81 2.79,-3 6.58,-4.5 11.37,-4.5 3.04,0 5.71,0.69 8,2.06 2.33,1.33 4.14,3.29 5.44,5.88 1.33,2.54 2,5.66 2,9.37zm-25.31 0c0,3.96 0.77,7.1 2.31,9.44 1.58,2.29 4.08,3.43 7.5,3.43 3.37,0 5.85,-1.14 7.44,-3.43 1.58,-2.34 2.37,-5.48 2.37,-9.44 0,-3.96 -0.79,-7.06 -2.37,-9.31 -1.59,-2.25 -4.09,-3.38 -7.5,-3.38 -3.42,0 -5.9,1.13 -7.44,3.38 -1.54,2.25 -2.31,5.35 -2.31,9.31zm39.52 -16.69l0 13.94 18.19 0 0 -13.94 5.5 0 0 33.5 -5.5 0 0 -14.93 -18.19 0 0 14.93 -5.5 0 0 -33.5 5.5 0zm29.04 0l5.88 0 7.25 19.06c0.62,1.67 1.18,3.28 1.68,4.82 0.5,1.5 0.88,2.93 1.13,4.31l0.25 0c0.25,-1.04 0.64,-2.4 1.18,-4.06 0.55,-1.71 1.11,-3.42 1.69,-5.13l6.81 -19 5.94 0 -14.44 38.13c-1.16,3.16 -2.68,5.68 -4.56,7.56 -1.83,1.87 -4.37,2.81 -7.62,2.81 -1,0 -1.88,-0.06 -2.63,-0.19 -0.75,-0.08 -1.39,-0.19 -1.93,-0.31l0 -4.38c0.46,0.09 1,0.17 1.62,0.26 0.67,0.08 1.36,0.12 2.06,0.12 1.92,0 3.46,-0.54 4.63,-1.62 1.21,-1.09 2.14,-2.53 2.81,-4.32l1.75 -4.43 -13.5 -33.63zm50.55 34.13c-2.96,0 -5.61,-0.61 -7.94,-1.82 -2.29,-1.21 -4.11,-3.08 -5.44,-5.62 -1.29,-2.54 -1.93,-5.79 -1.93,-9.75 0,-4.12 0.68,-7.48 2.06,-10.06 1.37,-2.58 3.23,-4.48 5.56,-5.69 2.38,-1.21 5.06,-1.81 8.06,-1.81 1.71,0 3.35,0.19 4.94,0.56 1.58,0.34 2.87,0.75 3.87,1.25l-1.68 4.56c-1,-0.37 -2.17,-0.73 -3.5,-1.06 -1.34,-0.33 -2.59,-0.5 -3.75,-0.5 -6.59,0 -9.88,4.23 -9.88,12.69 0,4.04 0.79,7.14 2.38,9.31 1.62,2.12 4.02,3.19 7.18,3.19 1.84,0 3.44,-0.19 4.82,-0.57 1.41,-0.37 2.7,-0.83 3.87,-1.37l0 4.87c-1.12,0.59 -2.37,1.03 -3.75,1.32 -1.33,0.33 -2.96,0.5 -4.87,0.5zm45.71 -17.44c0,5.54 -1.42,9.83 -4.25,12.87 -2.79,3.04 -6.59,4.57 -11.38,4.57 -2.95,0 -5.6,-0.67 -7.93,-2 -2.29,-1.38 -4.11,-3.36 -5.44,-5.94 -1.33,-2.63 -2,-5.79 -2,-9.5 0,-5.54 1.4,-9.81 4.19,-12.81 2.79,-3 6.58,-4.5 11.37,-4.5 3.04,0 5.71,0.69 8,2.06 2.34,1.33 4.15,3.29 5.44,5.88 1.33,2.54 2,5.66 2,9.37zm-25.31 0c0,3.96 0.77,7.1 2.31,9.44 1.58,2.29 4.08,3.43 7.5,3.43 3.37,0 5.85,-1.14 7.44,-3.43 1.58,-2.34 2.37,-5.48 2.37,-9.44 0,-3.96 -0.79,-7.06 -2.37,-9.31 -1.59,-2.25 -4.09,-3.38 -7.5,-3.38 -3.42,0 -5.9,1.13 -7.44,3.38 -1.54,2.25 -2.31,5.35 -2.31,9.31zm60.96 -8.25c0,2.08 -0.63,3.71 -1.88,4.88 -1.25,1.16 -2.85,1.96 -4.81,2.37l0 0.25c2.08,0.29 3.9,1.04 5.44,2.25 1.54,1.17 2.31,3 2.31,5.5 0,2.83 -1.06,5.19 -3.19,7.06 -2.08,1.84 -5.54,2.75 -10.37,2.75l-14.44 0 0 -33.5 14.38 0c2.37,0 4.5,0.28 6.37,0.82 1.92,0.5 3.42,1.37 4.5,2.62 1.13,1.21 1.69,2.88 1.69,5zm-5.57 0.69c0,-1.58 -0.58,-2.73 -1.74,-3.44 -1.13,-0.75 -2.98,-1.12 -5.57,-1.12l-8.56 0 0 9.18 7.56 0c5.55,0 8.31,-1.54 8.31,-4.62zm0.94 14.56c0,-1.92 -0.72,-3.29 -2.18,-4.13 -1.46,-0.83 -3.61,-1.24 -6.44,-1.24l-8.19 0 0 10.74 8.31 0c2.75,0 4.86,-0.39 6.32,-1.18 1.46,-0.84 2.18,-2.23 2.18,-4.19zm35.43 -23.69l0 13.94 18.19 0 0 -13.94 5.5 0 0 33.5 -5.5 0 0 -14.93 -18.19 0 0 14.93 -5.5 0 0 -33.5 5.5 0zm46.98 -0.56c4.08,0 7.1,0.9 9.06,2.69 1.96,1.79 2.94,4.64 2.94,8.56l0 22.81 -4 0 -1.06 -4.75 -0.25 0c-1.46,1.84 -3,3.19 -4.63,4.06 -1.58,0.88 -3.79,1.32 -6.62,1.32 -3.04,0 -5.56,-0.79 -7.56,-2.38 -2,-1.62 -3,-4.15 -3,-7.56 0,-3.33 1.31,-5.9 3.94,-7.69 2.62,-1.83 6.66,-2.83 12.12,-3l5.69 -0.18 0 -2c0,-2.8 -0.61,-4.73 -1.82,-5.82 -1.2,-1.08 -2.91,-1.62 -5.12,-1.62 -1.75,0 -3.42,0.27 -5,0.81 -1.58,0.5 -3.06,1.08 -4.44,1.75l-1.68 -4.12c1.45,-0.79 3.18,-1.46 5.18,-2 2,-0.59 4.08,-0.88 6.25,-0.88zm1.63 17.87c-4.17,0.17 -7.06,0.84 -8.69,2.01 -1.58,1.16 -2.37,2.81 -2.37,4.93 0,1.88 0.56,3.25 1.68,4.13 1.17,0.87 2.65,1.31 4.44,1.31 2.83,0 5.19,-0.77 7.06,-2.31 1.88,-1.59 2.81,-4 2.81,-7.25l0 -3 -4.93 0.18zm50.39 16.82c-2.96,0 -5.61,-0.61 -7.94,-1.82 -2.29,-1.21 -4.1,-3.08 -5.44,-5.62 -1.29,-2.54 -1.94,-5.79 -1.94,-9.75 0,-4.12 0.69,-7.48 2.07,-10.06 1.37,-2.58 3.23,-4.48 5.56,-5.69 2.37,-1.21 5.06,-1.81 8.06,-1.81 1.71,0 3.35,0.19 4.94,0.56 1.58,0.34 2.87,0.75 3.87,1.25l-1.68 4.56c-1,-0.37 -2.17,-0.73 -3.5,-1.06 -1.34,-0.33 -2.59,-0.5 -3.75,-0.5 -6.59,0 -9.88,4.23 -9.88,12.69 0,4.04 0.79,7.14 2.38,9.31 1.62,2.12 4.02,3.19 7.18,3.19 1.84,0 3.44,-0.19 4.82,-0.57 1.41,-0.37 2.7,-0.83 3.87,-1.37l0 4.87c-1.12,0.59 -2.38,1.03 -3.75,1.32 -1.33,0.33 -2.96,0.5 -4.87,0.5zm43.52 -25.69c0,2.08 -0.63,3.71 -1.88,4.88 -1.24,1.16 -2.85,1.96 -4.81,2.37l0 0.25c2.09,0.29 3.9,1.04 5.44,2.25 1.54,1.17 2.31,3 2.31,5.5 0,2.83 -1.06,5.19 -3.19,7.06 -2.08,1.84 -5.54,2.75 -10.37,2.75l-14.43 0 0 -33.5 14.37 0c2.37,0 4.5,0.28 6.37,0.82 1.92,0.5 3.42,1.37 4.5,2.62 1.13,1.21 1.69,2.88 1.69,5zm-5.56 0.69c0,-1.58 -0.58,-2.73 -1.75,-3.44 -1.13,-0.75 -2.98,-1.12 -5.56,-1.12l-8.57 0 0 9.18 7.57 0c5.54,0 8.31,-1.54 8.31,-4.62zm0.94 14.56c0,-1.92 -0.73,-3.29 -2.19,-4.13 -1.46,-0.83 -3.6,-1.24 -6.44,-1.24l-8.19 0 0 10.74 8.32 0c2.75,0 4.85,-0.39 6.31,-1.18 1.46,-0.84 2.19,-2.23 2.19,-4.19zm42.82 -7c0,5.54 -1.42,9.83 -4.25,12.87 -2.8,3.04 -6.59,4.57 -11.38,4.57 -2.96,0 -5.6,-0.67 -7.93,-2 -2.3,-1.38 -4.11,-3.36 -5.44,-5.94 -1.34,-2.63 -2,-5.79 -2,-9.5 0,-5.54 1.39,-9.81 4.19,-12.81 2.79,-3 6.58,-4.5 11.37,-4.5 3.04,0 5.71,0.69 8,2.06 2.33,1.33 4.14,3.29 5.44,5.88 1.33,2.54 2,5.66 2,9.37zm-25.31 0c0,3.96 0.76,7.1 2.31,9.44 1.58,2.29 4.08,3.43 7.5,3.43 3.37,0 5.85,-1.14 7.43,-3.43 1.59,-2.34 2.38,-5.48 2.38,-9.44 0,-3.96 -0.79,-7.06 -2.38,-9.31 -1.58,-2.25 -4.08,-3.38 -7.5,-3.38 -3.41,0 -5.89,1.13 -7.43,3.38 -1.55,2.25 -2.31,5.35 -2.31,9.31zm61.14 -30.56c-0.29,3.13 -1.35,5.5 -3.18,7.12 -1.79,1.59 -4.67,2.38 -8.63,2.38 -4.08,0 -6.98,-0.79 -8.68,-2.38 -1.67,-1.58 -2.61,-3.95 -2.82,-7.12l5.13 0c0.21,2.25 0.79,3.77 1.75,4.56 1,0.75 2.58,1.13 4.75,1.13 1.91,0 3.41,-0.4 4.5,-1.19 1.12,-0.83 1.79,-2.33 2,-4.5l5.18 0zm-21.93 34.31c0,0.5 -0.02,1.25 -0.06,2.25 -0.05,1 -0.11,2 -0.19,3 -0.04,1 -0.09,1.79 -0.13,2.37l17.94 -28.06 6.75 0 0 33.5 -5.13 0 0 -19.75c0,-0.66 0,-1.54 0,-2.62 0.04,-1.09 0.09,-2.15 0.13,-3.19 0.04,-1.08 0.08,-1.89 0.12,-2.44l-17.81 28 -6.81 0 0 -33.5 5.19 0 0 20.44zm64.64 13.69c-2.96,0 -5.6,-0.61 -7.94,-1.82 -2.29,-1.21 -4.1,-3.08 -5.44,-5.62 -1.29,-2.54 -1.93,-5.79 -1.93,-9.75 0,-4.12 0.68,-7.48 2.06,-10.06 1.37,-2.58 3.23,-4.48 5.56,-5.69 2.38,-1.21 5.06,-1.81 8.06,-1.81 1.71,0 3.35,0.19 4.94,0.56 1.58,0.34 2.87,0.75 3.87,1.25l-1.68 4.56c-1,-0.37 -2.17,-0.73 -3.5,-1.06 -1.34,-0.33 -2.59,-0.5 -3.75,-0.5 -6.59,0 -9.88,4.23 -9.88,12.69 0,4.04 0.79,7.14 2.38,9.31 1.62,2.12 4.02,3.19 7.19,3.19 1.83,0 3.43,-0.19 4.81,-0.57 1.41,-0.37 2.71,-0.83 3.87,-1.37l0 4.87c-1.12,0.59 -2.37,1.03 -3.75,1.32 -1.33,0.33 -2.96,0.5 -4.87,0.5zm21.4 -21.94c0,3.84 2.15,5.75 6.44,5.75 2.08,0 3.98,-0.31 5.68,-0.94 1.71,-0.66 3.46,-1.54 5.25,-2.62l0 -14.38 5.5 0 0 33.5 -5.5 0 0 -14.93c-1.87,1.2 -3.73,2.16 -5.56,2.87 -1.79,0.66 -3.96,1 -6.5,1 -3.42,0 -6.08,-0.9 -8,-2.69 -1.87,-1.79 -2.81,-4.18 -2.81,-7.18l0 -12.57 5.5 0 0 12.19zm46.45 -12.81c2.87,0 5.33,0.62 7.37,1.87 2.09,1.25 3.67,3.02 4.75,5.32 1.13,2.25 1.69,4.89 1.69,7.93l0 3.32 -22.93 0c0.08,3.79 1.04,6.68 2.87,8.68 1.88,1.96 4.48,2.94 7.81,2.94 2.13,0 4,-0.19 5.63,-0.56 1.66,-0.42 3.37,-1 5.12,-1.75l0 4.81c-1.71,0.75 -3.4,1.29 -5.06,1.62 -1.67,0.38 -3.65,0.57 -5.94,0.57 -3.16,0 -5.98,-0.65 -8.43,-1.94 -2.42,-1.29 -4.32,-3.21 -5.69,-5.75 -1.33,-2.58 -2,-5.73 -2,-9.44 0,-3.66 0.6,-6.81 1.81,-9.43 1.25,-2.63 2.98,-4.65 5.19,-6.07 2.25,-1.41 4.85,-2.12 7.81,-2.12zm-0.06 4.5c-2.63,0 -4.71,0.85 -6.25,2.56 -1.5,1.67 -2.4,4 -2.69,7l17.06 0c-0.04,-2.83 -0.71,-5.12 -2,-6.87 -1.29,-1.79 -3.33,-2.69 -6.12,-2.69zm45.52 0.75l-10.94 0 0 28.87 -5.43 0 0 -28.87 -10.81 0 0 -4.63 27.18 0 0 4.63zm14.91 -14.56l-0.81 30.31 -5.94 0 -0.81 -30.31 7.56 0zm-3.56 43.87c-1.29,0 -2.38,-0.44 -3.25,-1.31 -0.87,-0.88 -1.31,-1.96 -1.31,-3.25 0,-1.29 0.44,-2.38 1.31,-3.25 0.87,-0.88 1.96,-1.32 3.25,-1.32 1.25,0 2.31,0.44 3.19,1.32 0.87,0.87 1.31,1.96 1.31,3.25 0,1.29 -0.44,2.37 -1.31,3.25 -0.88,0.87 -1.94,1.31 -3.19,1.31z"/>
  <path class="fil0" d="M2828.04 241.85c-5.91,0 -11.21,-1.21 -15.87,-3.62 -4.59,-2.42 -8.21,-6.17 -10.88,-11.25 -2.58,-5.09 -3.87,-11.58 -3.87,-19.5 0,-8.25 1.37,-14.96 4.13,-20.12 2.74,-5.17 6.45,-8.96 11.12,-11.38 4.75,-2.41 10.12,-3.62 16.12,-3.62 3.42,0 6.71,0.37 9.88,1.12 3.16,0.67 5.75,1.5 7.75,2.5l-3.38 9.13c-2,-0.75 -4.33,-1.46 -7,-2.13 -2.66,-0.67 -5.16,-1 -7.5,-1 -13.16,0 -19.75,8.46 -19.75,25.37 0,8.09 1.59,14.29 4.75,18.63 3.25,4.25 8.04,6.37 14.38,6.37 3.66,0 6.87,-0.37 9.62,-1.12 2.83,-0.75 5.42,-1.67 7.75,-2.75l0 9.75c-2.25,1.16 -4.75,2.04 -7.5,2.62 -2.66,0.67 -5.91,1 -9.75,1zm22.68 -68.24l11.75 0 14.5 38.12c1.25,3.33 2.38,6.54 3.38,9.62 1,3 1.75,5.88 2.25,8.63l0.5 0c0.5,-2.09 1.29,-4.79 2.37,-8.13 1.08,-3.41 2.21,-6.83 3.38,-10.25l13.62 -37.99 11.87 0 -28.87 76.24c-2.33,6.33 -5.37,11.37 -9.12,15.12 -3.67,3.75 -8.75,5.63 -15.25,5.63 -2,0 -3.75,-0.13 -5.25,-0.38 -1.5,-0.16 -2.79,-0.37 -3.88,-0.62l0 -8.75c0.92,0.17 2,0.33 3.25,0.5 1.34,0.16 2.71,0.25 4.13,0.25 3.83,0 6.91,-1.09 9.25,-3.25 2.41,-2.17 4.29,-5.04 5.62,-8.62l3.5 -8.88 -27 -67.24zm146.09 0l0 66.99 -9.88 0 0 -42.74c0,-1.75 0.04,-3.59 0.13,-5.5 0.16,-1.92 0.33,-3.8 0.5,-5.63l-0.38 0 -21.87 53.87 -9.25 0 -21.25 -53.87 -0.37 0c0.25,3.75 0.37,7.58 0.37,11.5l0 42.37 -9.87 0 0 -66.99 14.62 0 21.12 53.87 21.5 -53.87 14.63 0z"/>
  <path class="fil1" d="M745.03 255.73l0 45.88 -46.05 0 0 30.59 46.05 0 0 45.89 30.7 0 0 -45.89 46.06 0 0 -30.59 -46.06 0 0 -45.88 -30.7 0zm-76.76 45.88l-168.87 0 0 -152.94 122.82 76.47 122.81 -76.47 0 76.47 30.7 0 0 -107.06c0,-16.82 -13.81,-30.59 -30.7,-30.59l-245.63 0c-16.88,0 -30.7,13.77 -30.7,30.59l0 183.53c0,16.83 13.82,30.59 30.7,30.59l168.87 0 0 -30.59zm76.76 -183.53l-122.81 76.47 -122.82 -76.47 245.63 0z"/>
  <rect class="fil3 str0" x="3.12" y="3.13" width="3627.75" height="428.08"/>
  <path class="fil4" d="M2072.32 239.46c10.45,7.79 22.62,11.73 36.55,11.73 8.83,0 15.83,-1.97 21.04,-5.87 5.17,-3.93 7.76,-9.48 7.76,-16.69 0,-7.41 -3.07,-13.07 -9.24,-16.97 -6.14,-3.89 -14.8,-5.86 -25.9,-5.86l-13.94 0 0 -25.14 12.83 0c21,0 31.52,-7.07 31.52,-21.24 0,-13.31 -8.07,-20 -24.14,-20 -10.52,0 -20.72,3.44 -30.62,10.31l0 -26.97c10.76,-5.59 23.45,-8.38 38.07,-8.38 14.83,0 26.87,3.41 36.07,10.24 9.25,6.83 13.87,16.31 13.87,28.45 0,20.49 -10.38,33.35 -31.14,38.59l0 0.52c10.93,1.21 19.65,5.17 26.17,11.97 6.52,6.76 9.8,15 9.8,24.69 0,14.9 -5.42,26.52 -16.32,34.86 -10.86,8.35 -25.38,12.52 -43.48,12.52 -16.11,0 -29.07,-2.65 -38.9,-7.96l0 -28.8z"/>
  <path id="_1" class="fil4" d="M2191.85 197.84c0,-27.11 4.96,-47.77 14.93,-62.05 9.96,-14.27 24.38,-21.41 43.24,-21.41 35.97,0 53.94,26.59 53.94,79.8 0,26.21 -4.86,46.42 -14.62,60.66 -9.76,14.28 -23.9,21.38 -42.35,21.38 -36.76,0 -55.14,-26.14 -55.14,-78.38zm33.03 -0.83c0,36.1 7.69,54.18 23.11,54.18 15.17,0 22.76,-18.63 22.76,-55.8 0,-37.32 -7.38,-55.97 -22.14,-55.97 -15.83,0 -23.73,19.2 -23.73,57.59z"/>
  <path id="_2" class="fil4" d="M2381.07 197.84c0,-27.11 4.97,-47.77 14.93,-62.05 9.97,-14.27 24.39,-21.41 43.25,-21.41 35.97,0 53.94,26.59 53.94,79.8 0,26.21 -4.87,46.42 -14.63,60.66 -9.76,14.28 -23.89,21.38 -42.35,21.38 -36.76,0 -55.14,-26.14 -55.14,-78.38zm33.04 -0.83c0,36.1 7.69,54.18 23.11,54.18 15.17,0 22.76,-18.63 22.76,-55.8 0,-37.32 -7.38,-55.97 -22.14,-55.97 -15.83,0 -23.73,19.2 -23.73,57.59z"/>
  <path id="_3" class="fil4" d="M2508.67 197.84c0,-27.11 4.97,-47.77 14.93,-62.05 9.97,-14.27 24.39,-21.41 43.25,-21.41 35.97,0 53.94,26.59 53.94,79.8 0,26.21 -4.87,46.42 -14.63,60.66 -9.76,14.28 -23.9,21.38 -42.35,21.38 -36.76,0 -55.14,-26.14 -55.14,-78.38zm33.04 -0.83c0,36.1 7.69,54.18 23.1,54.18 15.18,0 22.77,-18.63 22.77,-55.8 0,-37.32 -7.38,-55.97 -22.14,-55.97 -15.83,0 -23.73,19.2 -23.73,57.59z"/>
  <path id="_4" class="fil4" d="M2636.27 197.84c0,-27.11 4.97,-47.77 14.93,-62.05 9.97,-14.27 24.38,-21.41 43.25,-21.41 35.97,0 53.93,26.59 53.93,79.8 0,26.21 -4.86,46.42 -14.62,60.66 -9.76,14.28 -23.9,21.38 -42.35,21.38 -36.76,0 -55.14,-26.14 -55.14,-78.38zm33.04 -0.83c0,36.1 7.69,54.18 23.1,54.18 15.18,0 22.76,-18.63 22.76,-55.8 0,-37.32 -7.38,-55.97 -22.14,-55.97 -15.83,0 -23.72,19.2 -23.72,57.59z"/>
  <path class="fil5" d="M1313.56 245.71c-2.88,0 -5.44,-0.5 -7.67,-1.49 -2.23,-0.99 -3.99,-2.37 -5.29,-4.13 -1.29,-1.76 -1.96,-3.78 -2.01,-6.09l8.16 0c0.05,1 0.38,1.88 0.98,2.64 0.6,0.75 1.42,1.33 2.42,1.75 1.02,0.41 2.16,0.62 3.43,0.62 1.33,0 2.51,-0.23 3.52,-0.7 1.02,-0.47 1.82,-1.12 2.4,-1.95 0.57,-0.83 0.86,-1.78 0.85,-2.86 0.01,-1.12 -0.29,-2.1 -0.89,-2.95 -0.6,-0.85 -1.47,-1.52 -2.61,-2 -1.12,-0.48 -2.46,-0.72 -4.03,-0.72l-3.66 0 0 -6.02 3.66 0c1.32,0 2.47,-0.23 3.48,-0.68 0.99,-0.46 1.77,-1.09 2.33,-1.9 0.56,-0.82 0.84,-1.76 0.84,-2.84 0,-1.04 -0.25,-1.94 -0.73,-2.72 -0.49,-0.79 -1.16,-1.39 -2.04,-1.84 -0.87,-0.44 -1.88,-0.66 -3.05,-0.66 -1.17,0 -2.23,0.21 -3.21,0.63 -0.96,0.42 -1.75,1.02 -2.34,1.79 -0.59,0.76 -0.9,1.67 -0.95,2.7l-7.77 0c0.06,-2.26 0.72,-4.28 1.97,-6.01 1.26,-1.74 2.96,-3.1 5.1,-4.08 2.13,-0.99 4.54,-1.47 7.23,-1.47 2.73,0 5.11,0.49 7.15,1.5 2.04,0.99 3.62,2.34 4.75,4.03 1.14,1.68 1.7,3.56 1.68,5.65 0.02,2.24 -0.67,4.11 -2.04,5.6 -1.38,1.5 -3.17,2.46 -5.39,2.89l0 0.31c2.9,0.38 5.12,1.39 6.64,3.06 1.53,1.66 2.29,3.74 2.27,6.23 0.02,2.26 -0.63,4.27 -1.94,6.05 -1.31,1.76 -3.1,3.14 -5.37,4.16 -2.28,1 -4.91,1.5 -7.87,1.5z"/>
  <path id="_1_0" class="fil5" d="M1348.38 246.01c-3.29,0 -6.14,-0.83 -8.51,-2.46 -2.38,-1.64 -4.2,-4.01 -5.47,-7.1 -1.28,-3.1 -1.91,-6.83 -1.91,-11.2 0.01,-4.34 0.66,-8.05 1.93,-11.11 1.27,-3.07 3.09,-5.41 5.46,-7.01 2.37,-1.61 5.21,-2.4 8.5,-2.4 3.3,0 6.14,0.8 8.52,2.41 2.38,1.61 4.2,3.94 5.48,7 1.28,3.06 1.92,6.77 1.92,11.11 0,4.38 -0.64,8.12 -1.92,11.22 -1.28,3.09 -3.1,5.46 -5.47,7.09 -2.38,1.62 -5.21,2.45 -8.53,2.45zm0 -6.75c2.36,0 4.22,-1.17 5.61,-3.51 1.39,-2.35 2.08,-5.84 2.07,-10.5 0,-3.06 -0.32,-5.62 -0.94,-7.67 -0.63,-2.05 -1.53,-3.6 -2.67,-4.63 -1.16,-1.05 -2.51,-1.57 -4.07,-1.57 -2.32,0 -4.18,1.17 -5.56,3.5 -1.38,2.32 -2.08,5.78 -2.09,10.37 -0.01,3.1 0.29,5.69 0.92,7.77 0.63,2.09 1.52,3.64 2.67,4.69 1.15,1.04 2.5,1.55 4.06,1.55z"/>
  <path id="_2_1" class="fil5" d="M1396.77 246.01c-3.29,0 -6.13,-0.83 -8.51,-2.46 -2.38,-1.64 -4.2,-4.01 -5.47,-7.1 -1.28,-3.1 -1.91,-6.83 -1.91,-11.2 0.01,-4.34 0.66,-8.05 1.93,-11.11 1.27,-3.07 3.09,-5.41 5.46,-7.01 2.38,-1.61 5.21,-2.4 8.5,-2.4 3.3,0 6.15,0.8 8.52,2.41 2.38,1.61 4.2,3.94 5.48,7 1.28,3.06 1.92,6.77 1.92,11.11 0,4.38 -0.64,8.12 -1.92,11.22 -1.28,3.09 -3.1,5.46 -5.47,7.09 -2.38,1.62 -5.21,2.45 -8.53,2.45zm0 -6.75c2.36,0 4.23,-1.17 5.62,-3.51 1.39,-2.35 2.07,-5.84 2.06,-10.5 0,-3.06 -0.32,-5.62 -0.94,-7.67 -0.63,-2.05 -1.53,-3.6 -2.67,-4.63 -1.15,-1.05 -2.5,-1.57 -4.07,-1.57 -2.32,0 -4.18,1.17 -5.56,3.5 -1.38,2.32 -2.07,5.78 -2.09,10.37 -0.01,3.1 0.29,5.69 0.92,7.77 0.63,2.09 1.52,3.64 2.67,4.69 1.15,1.04 2.51,1.55 4.06,1.55z"/>
  <path id="_3_2" class="fil5" d="M1432.19 246.01c-3.29,0 -6.13,-0.83 -8.51,-2.46 -2.38,-1.64 -4.2,-4.01 -5.47,-7.1 -1.28,-3.1 -1.91,-6.83 -1.91,-11.2 0.01,-4.34 0.66,-8.05 1.93,-11.11 1.27,-3.07 3.09,-5.41 5.46,-7.01 2.38,-1.61 5.21,-2.4 8.5,-2.4 3.3,0 6.15,0.8 8.52,2.41 2.38,1.61 4.2,3.94 5.48,7 1.28,3.06 1.92,6.77 1.92,11.11 0,4.38 -0.64,8.12 -1.92,11.22 -1.28,3.09 -3.1,5.46 -5.47,7.09 -2.38,1.62 -5.21,2.45 -8.53,2.45zm0 -6.75c2.36,0 4.23,-1.17 5.62,-3.51 1.39,-2.35 2.07,-5.84 2.06,-10.5 0,-3.06 -0.32,-5.62 -0.94,-7.67 -0.63,-2.05 -1.53,-3.6 -2.67,-4.63 -1.15,-1.05 -2.5,-1.57 -4.07,-1.57 -2.32,0 -4.18,1.17 -5.56,3.5 -1.38,2.32 -2.07,5.78 -2.09,10.37 -0.01,3.1 0.29,5.69 0.92,7.77 0.63,2.09 1.52,3.64 2.67,4.69 1.15,1.04 2.51,1.55 4.06,1.55z"/>
  <path id="_4_3" class="fil5" d="M1467.61 246.01c-3.29,0 -6.13,-0.83 -8.51,-2.46 -2.38,-1.64 -4.2,-4.01 -5.47,-7.1 -1.28,-3.1 -1.91,-6.83 -1.91,-11.2 0.01,-4.34 0.66,-8.05 1.93,-11.11 1.27,-3.07 3.09,-5.41 5.46,-7.01 2.38,-1.61 5.21,-2.4 8.5,-2.4 3.3,0 6.15,0.8 8.52,2.41 2.38,1.61 4.2,3.94 5.48,7 1.28,3.06 1.92,6.77 1.92,11.11 0,4.38 -0.64,8.12 -1.92,11.22 -1.28,3.09 -3.1,5.46 -5.47,7.09 -2.38,1.62 -5.21,2.45 -8.53,2.45zm0 -6.75c2.36,0 4.23,-1.17 5.62,-3.51 1.39,-2.35 2.07,-5.84 2.06,-10.5 0,-3.06 -0.32,-5.62 -0.94,-7.67 -0.63,-2.05 -1.53,-3.6 -2.67,-4.63 -1.15,-1.05 -2.5,-1.57 -4.07,-1.57 -2.32,0 -4.18,1.17 -5.56,3.5 -1.38,2.32 -2.07,5.78 -2.09,10.37 -0.01,3.1 0.29,5.69 0.92,7.77 0.63,2.09 1.52,3.64 2.67,4.69 1.15,1.04 2.51,1.55 4.06,1.55z"/>
 </g>
</svg>
