<svg width="1163" height="139" viewBox="0 0 1163 139" fill="none" xmlns="http://www.w3.org/2000/svg">
<g clip-path="url(#clip0_15:145)">
<rect x="1" y="1" width="1161" height="137" fill="white"/>
<path d="M537.174 13.4346C435.807 24.4112 384.158 55.2017 421.813 82.2065C434.905 91.5959 457.085 99.2874 484.7 104.87C489.132 109.111 494.921 119.567 459.164 129.212C459.164 129.212 518.919 126.222 536.961 112.307C579.469 116.234 627.64 116.19 673.512 111.221C774.873 100.242 826.52 69.4527 788.876 42.4494C751.224 15.4468 638.527 2.45593 537.174 13.4346V13.4346Z" fill="#FF2542"/>
<path d="M101.56 61.72V74.4H103.38V79.76H101.66V76H91.84V79.76H90.12V74.4H91.22C91.7 73.5733 92.1533 72.6467 92.58 71.62C93.02 70.5933 93.4067 69.52 93.74 68.4C94.0733 67.2667 94.3467 66.1333 94.56 65C94.7733 63.8667 94.9067 62.7733 94.96 61.72H101.56ZM96.54 63.34C96.4867 64.1133 96.3533 64.9867 96.14 65.96C95.94 66.9333 95.68 67.9333 95.36 68.96C95.0533 69.9733 94.7067 70.9533 94.32 71.9C93.9467 72.8467 93.5467 73.68 93.12 74.4H99.78V63.34H96.54ZM113.688 76H111.908V66.74H108.748C108.575 68.9933 108.335 70.8133 108.028 72.2C107.721 73.5733 107.315 74.5733 106.808 75.2C106.301 75.8267 105.661 76.14 104.888 76.14C104.715 76.14 104.541 76.1267 104.368 76.1C104.208 76.0867 104.075 76.0533 103.968 76V74.68C104.048 74.7067 104.135 74.7267 104.228 74.74C104.321 74.7533 104.415 74.76 104.508 74.76C105.228 74.76 105.801 73.9933 106.228 72.46C106.668 70.9267 107.001 68.5333 107.228 65.28H113.688V76ZM117.751 76H115.711L118.771 71.5C118.357 71.3933 117.957 71.2267 117.571 71C117.184 70.76 116.871 70.4333 116.631 70.02C116.391 69.5933 116.271 69.0667 116.271 68.44C116.271 67.4133 116.617 66.6333 117.311 66.1C118.004 65.5533 118.924 65.28 120.071 65.28H124.871V76H123.111V71.74H120.511L117.751 76ZM117.971 68.46C117.971 69.0733 118.197 69.5333 118.651 69.84C119.117 70.1333 119.764 70.28 120.591 70.28H123.111V66.74H120.251C119.437 66.74 118.851 66.9 118.491 67.22C118.144 67.54 117.971 67.9533 117.971 68.46ZM135.355 65.28V69.74H141.175V65.28H142.935V76H141.175V71.22H135.355V76H133.595V65.28H135.355ZM155.649 70.62C155.649 72.3933 155.196 73.7667 154.289 74.74C153.396 75.7133 152.182 76.2 150.649 76.2C149.702 76.2 148.856 75.9867 148.109 75.56C147.376 75.12 146.796 74.4867 146.369 73.66C145.942 72.82 145.729 71.8067 145.729 70.62C145.729 68.8467 146.176 67.48 147.069 66.52C147.962 65.56 149.176 65.08 150.709 65.08C151.682 65.08 152.536 65.3 153.269 65.74C154.016 66.1667 154.596 66.7933 155.009 67.62C155.436 68.4333 155.649 69.4333 155.649 70.62ZM147.549 70.62C147.549 71.8867 147.796 72.8933 148.289 73.64C148.796 74.3733 149.596 74.74 150.689 74.74C151.769 74.74 152.562 74.3733 153.069 73.64C153.576 72.8933 153.829 71.8867 153.829 70.62C153.829 69.3533 153.576 68.36 153.069 67.64C152.562 66.92 151.762 66.56 150.669 66.56C149.576 66.56 148.782 66.92 148.289 67.64C147.796 68.36 147.549 69.3533 147.549 70.62ZM167.058 67.98C167.058 68.6467 166.858 69.1667 166.458 69.54C166.058 69.9133 165.545 70.1667 164.918 70.3V70.38C165.585 70.4733 166.165 70.7133 166.658 71.1C167.152 71.4733 167.398 72.06 167.398 72.86C167.398 73.7667 167.058 74.52 166.378 75.12C165.712 75.7067 164.605 76 163.058 76H158.438V65.28H163.038C163.798 65.28 164.478 65.3667 165.078 65.54C165.692 65.7 166.172 65.98 166.518 66.38C166.878 66.7667 167.058 67.3 167.058 67.98ZM165.278 68.2C165.278 67.6933 165.092 67.3267 164.718 67.1C164.358 66.86 163.765 66.74 162.938 66.74H160.198V69.68H162.618C164.392 69.68 165.278 69.1867 165.278 68.2ZM165.578 72.86C165.578 72.2467 165.345 71.8067 164.878 71.54C164.412 71.2733 163.725 71.14 162.818 71.14H160.198V74.58H162.858C163.738 74.58 164.412 74.4533 164.878 74.2C165.345 73.9333 165.578 73.4867 165.578 72.86ZM169.962 76V65.28H171.722V69.68H174.502C175.888 69.68 176.915 69.9333 177.582 70.44C178.248 70.9467 178.582 71.7067 178.582 72.72C178.582 73.72 178.255 74.52 177.602 75.12C176.948 75.7067 175.888 76 174.422 76H169.962ZM180.362 76V65.28H182.122V76H180.362ZM174.262 74.58C175.022 74.58 175.642 74.4533 176.122 74.2C176.602 73.9333 176.842 73.4733 176.842 72.82C176.842 72.1667 176.622 71.7267 176.182 71.5C175.742 71.26 175.108 71.14 174.282 71.14H171.722V74.58H174.262ZM188.068 70.52L184.368 65.28H186.368L189.128 69.32L191.868 65.28H193.848L190.148 70.52L194.048 76H192.048L189.128 71.72L186.168 76H184.188L188.068 70.52ZM210.506 65.28V76H208.746V66.78H203.206V76H201.446V65.28H210.506ZM223.247 70.62C223.247 72.3933 222.793 73.7667 221.887 74.74C220.993 75.7133 219.78 76.2 218.247 76.2C217.3 76.2 216.453 75.9867 215.707 75.56C214.973 75.12 214.393 74.4867 213.967 73.66C213.54 72.82 213.327 71.8067 213.327 70.62C213.327 68.8467 213.773 67.48 214.667 66.52C215.56 65.56 216.773 65.08 218.307 65.08C219.28 65.08 220.133 65.3 220.867 65.74C221.613 66.1667 222.193 66.7933 222.607 67.62C223.033 68.4333 223.247 69.4333 223.247 70.62ZM215.147 70.62C215.147 71.8867 215.393 72.8933 215.887 73.64C216.393 74.3733 217.193 74.74 218.287 74.74C219.367 74.74 220.16 74.3733 220.667 73.64C221.173 72.8933 221.427 71.8867 221.427 70.62C221.427 69.3533 221.173 68.36 220.667 67.64C220.16 66.92 219.36 66.56 218.267 66.56C217.173 66.56 216.38 66.92 215.887 67.64C215.393 68.36 215.147 69.3533 215.147 70.62ZM234.196 76H232.416V66.74H229.256C229.083 68.9933 228.843 70.8133 228.536 72.2C228.229 73.5733 227.823 74.5733 227.316 75.2C226.809 75.8267 226.169 76.14 225.396 76.14C225.223 76.14 225.049 76.1267 224.876 76.1C224.716 76.0867 224.583 76.0533 224.476 76V74.68C224.556 74.7067 224.643 74.7267 224.736 74.74C224.829 74.7533 224.923 74.76 225.016 74.76C225.736 74.76 226.309 73.9933 226.736 72.46C227.176 70.9267 227.509 68.5333 227.736 65.28H234.196V76ZM242.538 69.68C245.325 69.68 246.718 70.6933 246.718 72.72C246.718 73.72 246.378 74.52 245.698 75.12C245.018 75.7067 243.938 76 242.458 76H237.598V65.28H239.358V69.68H242.538ZM244.958 72.82C244.958 72.1667 244.725 71.7267 244.258 71.5C243.805 71.26 243.165 71.14 242.338 71.14H239.358V74.58H242.378C243.125 74.58 243.738 74.4467 244.218 74.18C244.712 73.9133 244.958 73.46 244.958 72.82ZM252.293 65.08C253.52 65.08 254.493 65.3267 255.213 65.82C255.947 66.3 256.313 66.9933 256.313 67.9C256.313 68.5533 256.133 69.0733 255.773 69.46C255.413 69.8333 254.92 70.1067 254.293 70.28V70.36C254.72 70.48 255.113 70.6467 255.473 70.86C255.833 71.0733 256.12 71.3533 256.333 71.7C256.56 72.0467 256.673 72.4933 256.673 73.04C256.673 73.9333 256.3 74.6867 255.553 75.3C254.82 75.9 253.667 76.2 252.093 76.2C251.32 76.2 250.62 76.1333 249.993 76C249.367 75.88 248.847 75.7133 248.433 75.5V73.92C248.887 74.1333 249.42 74.3267 250.033 74.5C250.66 74.6733 251.34 74.76 252.073 74.76C252.873 74.76 253.547 74.6267 254.093 74.36C254.653 74.08 254.933 73.6067 254.933 72.94C254.933 71.74 253.913 71.14 251.873 71.14H250.433V69.7H251.593C252.513 69.7 253.247 69.58 253.793 69.34C254.353 69.0867 254.633 68.66 254.633 68.06C254.633 67.5533 254.42 67.1733 253.993 66.92C253.58 66.6667 252.98 66.54 252.193 66.54C251.607 66.54 251.087 66.6 250.633 66.72C250.193 66.8267 249.707 66.9933 249.173 67.22L248.553 65.82C249.673 65.3267 250.92 65.08 252.293 65.08ZM268.598 70.62C268.598 72.3933 268.145 73.7667 267.238 74.74C266.345 75.7133 265.131 76.2 263.598 76.2C262.651 76.2 261.805 75.9867 261.058 75.56C260.325 75.12 259.745 74.4867 259.318 73.66C258.891 72.82 258.678 71.8067 258.678 70.62C258.678 68.8467 259.125 67.48 260.018 66.52C260.911 65.56 262.125 65.08 263.658 65.08C264.631 65.08 265.485 65.3 266.218 65.74C266.965 66.1667 267.545 66.7933 267.958 67.62C268.385 68.4333 268.598 69.4333 268.598 70.62ZM260.498 70.62C260.498 71.8867 260.745 72.8933 261.238 73.64C261.745 74.3733 262.545 74.74 263.638 74.74C264.718 74.74 265.511 74.3733 266.018 73.64C266.525 72.8933 266.778 71.8867 266.778 70.62C266.778 69.3533 266.525 68.36 266.018 67.64C265.511 66.92 264.711 66.56 263.618 66.56C262.525 66.56 261.731 66.92 261.238 67.64C260.745 68.36 260.498 69.3533 260.498 70.62ZM280.008 67.98C280.008 68.6467 279.808 69.1667 279.408 69.54C279.008 69.9133 278.494 70.1667 277.868 70.3V70.38C278.534 70.4733 279.114 70.7133 279.608 71.1C280.101 71.4733 280.348 72.06 280.348 72.86C280.348 73.7667 280.008 74.52 279.328 75.12C278.661 75.7067 277.554 76 276.008 76H271.388V65.28H275.988C276.748 65.28 277.428 65.3667 278.028 65.54C278.641 65.7 279.121 65.98 279.468 66.38C279.828 66.7667 280.008 67.3 280.008 67.98ZM278.228 68.2C278.228 67.6933 278.041 67.3267 277.668 67.1C277.308 66.86 276.714 66.74 275.888 66.74H273.148V69.68H275.567C277.341 69.68 278.228 69.1867 278.228 68.2ZM278.528 72.86C278.528 72.2467 278.294 71.8067 277.828 71.54C277.361 71.2733 276.674 71.14 275.768 71.14H273.148V74.58H275.808C276.688 74.58 277.361 74.4533 277.828 74.2C278.294 73.9333 278.528 73.4867 278.528 72.86ZM286.971 65.1C288.278 65.1 289.244 65.3867 289.871 65.96C290.498 66.5333 290.811 67.4467 290.811 68.7V76H289.531L289.191 74.48H289.111C288.644 75.0667 288.151 75.5 287.631 75.78C287.124 76.06 286.418 76.2 285.511 76.2C284.538 76.2 283.731 75.9467 283.091 75.44C282.451 74.92 282.131 74.1133 282.131 73.02C282.131 71.9533 282.551 71.1333 283.391 70.56C284.231 69.9733 285.524 69.6533 287.271 69.6L289.091 69.54V68.9C289.091 68.0067 288.898 67.3867 288.511 67.04C288.124 66.6933 287.578 66.52 286.871 66.52C286.311 66.52 285.778 66.6067 285.271 66.78C284.764 66.94 284.291 67.1267 283.851 67.34L283.311 66.02C283.778 65.7667 284.331 65.5533 284.971 65.38C285.611 65.1933 286.278 65.1 286.971 65.1ZM287.491 70.82C286.158 70.8733 285.231 71.0867 284.711 71.46C284.204 71.8333 283.951 72.36 283.951 73.04C283.951 73.64 284.131 74.08 284.491 74.36C284.864 74.64 285.338 74.78 285.911 74.78C286.818 74.78 287.571 74.5333 288.171 74.04C288.771 73.5333 289.071 72.76 289.071 71.72V70.76L287.491 70.82ZM301.522 66.76H298.022V76H296.282V66.76H292.822V65.28H301.522V66.76ZM307.578 65.08C308.498 65.08 309.285 65.28 309.938 65.68C310.605 66.08 311.112 66.6467 311.458 67.38C311.818 68.1 311.998 68.9467 311.998 69.92V70.98H304.658C304.685 72.1933 304.992 73.12 305.578 73.76C306.178 74.3867 307.012 74.7 308.078 74.7C308.758 74.7 309.358 74.64 309.878 74.52C310.412 74.3867 310.958 74.2 311.518 73.96V75.5C310.972 75.74 310.432 75.9133 309.898 76.02C309.365 76.14 308.732 76.2 307.998 76.2C306.985 76.2 306.085 75.9933 305.298 75.58C304.525 75.1667 303.918 74.5533 303.478 73.74C303.052 72.9133 302.838 71.9067 302.838 70.72C302.838 69.5467 303.032 68.54 303.418 67.7C303.818 66.86 304.372 66.2133 305.078 65.76C305.798 65.3067 306.632 65.08 307.578 65.08ZM307.558 66.52C306.718 66.52 306.052 66.7933 305.558 67.34C305.078 67.8733 304.792 68.62 304.698 69.58H310.158C310.145 68.6733 309.932 67.94 309.518 67.38C309.105 66.8067 308.452 66.52 307.558 66.52ZM322.887 76H321.107V66.74H317.947C317.774 68.9933 317.534 70.8133 317.227 72.2C316.921 73.5733 316.514 74.5733 316.007 75.2C315.501 75.8267 314.861 76.14 314.087 76.14C313.914 76.14 313.741 76.1267 313.567 76.1C313.407 76.0867 313.274 76.0533 313.167 76V74.68C313.247 74.7067 313.334 74.7267 313.427 74.74C313.521 74.7533 313.614 74.76 313.707 74.76C314.427 74.76 315.001 73.9933 315.427 72.46C315.867 70.9267 316.201 68.5333 316.427 65.28H322.887V76ZM330.43 65.08C331.35 65.08 332.137 65.28 332.79 65.68C333.457 66.08 333.963 66.6467 334.31 67.38C334.67 68.1 334.85 68.9467 334.85 69.92V70.98H327.51C327.537 72.1933 327.843 73.12 328.43 73.76C329.03 74.3867 329.863 74.7 330.93 74.7C331.61 74.7 332.21 74.64 332.73 74.52C333.263 74.3867 333.81 74.2 334.37 73.96V75.5C333.823 75.74 333.283 75.9133 332.75 76.02C332.217 76.14 331.583 76.2 330.85 76.2C329.837 76.2 328.937 75.9933 328.15 75.58C327.377 75.1667 326.77 74.5533 326.33 73.74C325.903 72.9133 325.69 71.9067 325.69 70.72C325.69 69.5467 325.883 68.54 326.27 67.7C326.67 66.86 327.223 66.2133 327.93 65.76C328.65 65.3067 329.483 65.08 330.43 65.08ZM330.41 66.52C329.57 66.52 328.903 66.7933 328.41 67.34C327.93 67.8733 327.643 68.62 327.55 69.58H333.01C332.997 68.6733 332.783 67.94 332.37 67.38C331.957 66.8067 331.303 66.52 330.41 66.52ZM346.259 60.84C346.166 61.84 345.826 62.6 345.239 63.12C344.666 63.6267 343.746 63.88 342.479 63.88C341.172 63.88 340.246 63.6267 339.699 63.12C339.166 62.6133 338.866 61.8533 338.799 60.84H340.439C340.506 61.56 340.692 62.0467 340.999 62.3C341.319 62.54 341.826 62.66 342.519 62.66C343.132 62.66 343.612 62.5333 343.959 62.28C344.319 62.0133 344.532 61.5333 344.599 60.84H346.259ZM339.239 71.82C339.239 71.98 339.232 72.22 339.219 72.54C339.206 72.86 339.186 73.18 339.159 73.5C339.146 73.82 339.132 74.0733 339.119 74.26L344.859 65.28H347.019V76H345.379V69.68C345.379 69.4667 345.379 69.1867 345.379 68.84C345.392 68.4933 345.406 68.1533 345.419 67.82C345.432 67.4733 345.446 67.2133 345.459 67.04L339.759 76H337.579V65.28H339.239V71.82ZM352.63 62.06L352.41 72.06H350.89L350.67 62.06H352.63ZM351.73 76.12C351.384 76.12 351.09 76 350.85 75.76C350.61 75.52 350.49 75.2267 350.49 74.88C350.49 74.5333 350.61 74.24 350.85 74C351.09 73.76 351.384 73.64 351.73 73.64C352.064 73.64 352.344 73.76 352.57 74C352.81 74.24 352.93 74.5333 352.93 74.88C352.93 75.2267 352.81 75.52 352.57 75.76C352.344 76 352.064 76.12 351.73 76.12Z" fill="#011948"/>
<path d="M857.94 77V62.72H866.42V64.3H859.74V68.76H861.86C863.287 68.76 864.393 68.94 865.18 69.3C865.967 69.6467 866.513 70.1267 866.82 70.74C867.127 71.34 867.28 72.0333 867.28 72.82C867.28 74.1267 866.887 75.1533 866.1 75.9C865.313 76.6333 863.987 77 862.12 77H857.94ZM861.94 75.46C863.22 75.46 864.12 75.2467 864.64 74.82C865.16 74.38 865.42 73.7133 865.42 72.82C865.42 71.9 865.133 71.2533 864.56 70.88C863.987 70.5067 863.013 70.32 861.64 70.32H859.74V75.46H861.94ZM879.325 71.62C879.325 73.3933 878.871 74.7667 877.965 75.74C877.071 76.7133 875.858 77.2 874.325 77.2C873.378 77.2 872.531 76.9867 871.785 76.56C871.051 76.12 870.471 75.4867 870.045 74.66C869.618 73.82 869.405 72.8067 869.405 71.62C869.405 69.8467 869.851 68.48 870.745 67.52C871.638 66.56 872.851 66.08 874.385 66.08C875.358 66.08 876.211 66.3 876.945 66.74C877.691 67.1667 878.271 67.7933 878.685 68.62C879.111 69.4333 879.325 70.4333 879.325 71.62ZM871.225 71.62C871.225 72.8867 871.471 73.8933 871.965 74.64C872.471 75.3733 873.271 75.74 874.365 75.74C875.445 75.74 876.238 75.3733 876.745 74.64C877.251 73.8933 877.505 72.8867 877.505 71.62C877.505 70.3533 877.251 69.36 876.745 68.64C876.238 67.92 875.438 67.56 874.345 67.56C873.251 67.56 872.458 67.92 871.965 68.64C871.471 69.36 871.225 70.3533 871.225 71.62ZM883.874 66.28V70.74H889.694V66.28H891.454V77H889.694V72.22H883.874V77H882.114V66.28H883.874ZM893.168 66.28H895.048L897.368 72.38C897.568 72.9133 897.748 73.4267 897.908 73.92C898.068 74.4 898.188 74.86 898.268 75.3H898.348C898.428 74.9667 898.555 74.5333 898.728 74C898.902 73.4533 899.082 72.9067 899.268 72.36L901.448 66.28H903.348L898.728 78.48C898.355 79.4933 897.868 80.3 897.268 80.9C896.682 81.5 895.868 81.8 894.828 81.8C894.508 81.8 894.228 81.78 893.988 81.74C893.748 81.7133 893.542 81.68 893.368 81.64V80.24C893.515 80.2667 893.688 80.2933 893.888 80.32C894.102 80.3467 894.322 80.36 894.548 80.36C895.162 80.36 895.655 80.1867 896.028 79.84C896.415 79.4933 896.715 79.0333 896.928 78.46L897.488 77.04L893.168 66.28ZM909.344 77.2C908.397 77.2 907.55 77.0067 906.804 76.62C906.07 76.2333 905.49 75.6333 905.064 74.82C904.65 74.0067 904.444 72.9667 904.444 71.7C904.444 70.38 904.664 69.3067 905.104 68.48C905.544 67.6533 906.137 67.0467 906.884 66.66C907.644 66.2733 908.504 66.08 909.464 66.08C910.01 66.08 910.537 66.14 911.044 66.26C911.55 66.3667 911.964 66.5 912.284 66.66L911.744 68.12C911.424 68 911.05 67.8867 910.624 67.78C910.197 67.6733 909.797 67.62 909.424 67.62C907.317 67.62 906.264 68.9733 906.264 71.68C906.264 72.9733 906.517 73.9667 907.024 74.66C907.544 75.34 908.31 75.68 909.324 75.68C909.91 75.68 910.424 75.62 910.864 75.5C911.317 75.38 911.73 75.2333 912.104 75.06V76.62C911.744 76.8067 911.344 76.9467 910.904 77.04C910.477 77.1467 909.957 77.2 909.344 77.2ZM922.668 66.08C923.895 66.08 924.868 66.3267 925.588 66.82C926.322 67.3 926.688 67.9933 926.688 68.9C926.688 69.5533 926.508 70.0733 926.148 70.46C925.788 70.8333 925.295 71.1067 924.668 71.28V71.36C925.095 71.48 925.488 71.6467 925.848 71.86C926.208 72.0733 926.495 72.3533 926.708 72.7C926.935 73.0467 927.048 73.4933 927.048 74.04C927.048 74.9333 926.675 75.6867 925.928 76.3C925.195 76.9 924.042 77.2 922.468 77.2C921.695 77.2 920.995 77.1333 920.368 77C919.742 76.88 919.222 76.7133 918.808 76.5V74.92C919.262 75.1333 919.795 75.3267 920.408 75.5C921.035 75.6733 921.715 75.76 922.448 75.76C923.248 75.76 923.922 75.6267 924.468 75.36C925.028 75.08 925.308 74.6067 925.308 73.94C925.308 72.74 924.288 72.14 922.248 72.14H920.808V70.7H921.968C922.888 70.7 923.622 70.58 924.168 70.34C924.728 70.0867 925.008 69.66 925.008 69.06C925.008 68.5533 924.795 68.1733 924.368 67.92C923.955 67.6667 923.355 67.54 922.568 67.54C921.982 67.54 921.462 67.6 921.008 67.72C920.568 67.8267 920.082 67.9933 919.548 68.22L918.928 66.82C920.048 66.3267 921.295 66.08 922.668 66.08ZM933.713 66.1C935.02 66.1 935.986 66.3867 936.613 66.96C937.24 67.5333 937.553 68.4467 937.553 69.7V77H936.273L935.933 75.48H935.853C935.386 76.0667 934.893 76.5 934.373 76.78C933.866 77.06 933.16 77.2 932.253 77.2C931.28 77.2 930.473 76.9467 929.833 76.44C929.193 75.92 928.873 75.1133 928.873 74.02C928.873 72.9533 929.293 72.1333 930.133 71.56C930.973 70.9733 932.266 70.6533 934.013 70.6L935.833 70.54V69.9C935.833 69.0067 935.64 68.3867 935.253 68.04C934.866 67.6933 934.32 67.52 933.613 67.52C933.053 67.52 932.52 67.6067 932.013 67.78C931.506 67.94 931.033 68.1267 930.593 68.34L930.053 67.02C930.52 66.7667 931.073 66.5533 931.713 66.38C932.353 66.1933 933.02 66.1 933.713 66.1ZM934.233 71.82C932.9 71.8733 931.973 72.0867 931.453 72.46C930.946 72.8333 930.693 73.36 930.693 74.04C930.693 74.64 930.873 75.08 931.233 75.36C931.606 75.64 932.08 75.78 932.653 75.78C933.56 75.78 934.313 75.5333 934.913 75.04C935.513 74.5333 935.813 73.76 935.813 72.72V71.76L934.233 71.82ZM951.159 66.08C952.479 66.08 953.539 66.54 954.339 67.46C955.153 68.38 955.559 69.7667 955.559 71.62C955.559 73.4467 955.153 74.8333 954.339 75.78C953.539 76.7267 952.473 77.2 951.139 77.2C950.313 77.2 949.626 77.0467 949.079 76.74C948.546 76.42 948.126 76.0533 947.819 75.64H947.699C947.726 75.8667 947.753 76.1533 947.779 76.5C947.806 76.8467 947.819 77.1467 947.819 77.4V81.8H946.059V66.28H947.499L947.739 67.74H947.819C948.139 67.2733 948.559 66.88 949.079 66.56C949.599 66.24 950.293 66.08 951.159 66.08ZM950.839 67.56C949.746 67.56 948.973 67.8667 948.519 68.48C948.079 69.0933 947.846 70.0267 947.819 71.28V71.62C947.819 72.94 948.033 73.96 948.459 74.68C948.899 75.3867 949.706 75.74 950.879 75.74C951.533 75.74 952.066 75.56 952.479 75.2C952.906 74.84 953.219 74.3533 953.419 73.74C953.633 73.1133 953.739 72.4 953.739 71.6C953.739 70.3733 953.499 69.3933 953.019 68.66C952.553 67.9267 951.826 67.56 950.839 67.56ZM962.504 66.08C963.424 66.08 964.211 66.28 964.864 66.68C965.531 67.08 966.037 67.6467 966.384 68.38C966.744 69.1 966.924 69.9467 966.924 70.92V71.98H959.584C959.611 73.1933 959.917 74.12 960.504 74.76C961.104 75.3867 961.937 75.7 963.004 75.7C963.684 75.7 964.284 75.64 964.804 75.52C965.337 75.3867 965.884 75.2 966.444 74.96V76.5C965.897 76.74 965.357 76.9133 964.824 77.02C964.291 77.14 963.657 77.2 962.924 77.2C961.911 77.2 961.011 76.9933 960.224 76.58C959.451 76.1667 958.844 75.5533 958.404 74.74C957.977 73.9133 957.764 72.9067 957.764 71.72C957.764 70.5467 957.957 69.54 958.344 68.7C958.744 67.86 959.297 67.2133 960.004 66.76C960.724 66.3067 961.557 66.08 962.504 66.08ZM962.484 67.52C961.644 67.52 960.977 67.7933 960.484 68.34C960.004 68.8733 959.717 69.62 959.624 70.58H965.084C965.071 69.6733 964.857 68.94 964.444 68.38C964.031 67.8067 963.377 67.52 962.484 67.52ZM976.193 66.28V67.76H971.413V77H969.653V66.28H976.193ZM979.965 72.82C979.965 72.98 979.959 73.22 979.945 73.54C979.932 73.86 979.912 74.18 979.885 74.5C979.872 74.82 979.859 75.0733 979.845 75.26L985.585 66.28H987.745V77H986.105V70.68C986.105 70.4667 986.105 70.1867 986.105 69.84C986.119 69.4933 986.132 69.1533 986.145 68.82C986.159 68.4733 986.172 68.2133 986.185 68.04L980.485 77H978.305V66.28H979.965V72.82ZM995.457 77.2C994.51 77.2 993.664 77.0067 992.917 76.62C992.184 76.2333 991.604 75.6333 991.177 74.82C990.764 74.0067 990.557 72.9667 990.557 71.7C990.557 70.38 990.777 69.3067 991.217 68.48C991.657 67.6533 992.25 67.0467 992.997 66.66C993.757 66.2733 994.617 66.08 995.577 66.08C996.124 66.08 996.65 66.14 997.157 66.26C997.664 66.3667 998.077 66.5 998.397 66.66L997.857 68.12C997.537 68 997.164 67.8867 996.737 67.78C996.31 67.6733 995.91 67.62 995.537 67.62C993.43 67.62 992.377 68.9733 992.377 71.68C992.377 72.9733 992.63 73.9667 993.137 74.66C993.657 75.34 994.424 75.68 995.437 75.68C996.024 75.68 996.537 75.62 996.977 75.5C997.43 75.38 997.844 75.2333 998.217 75.06V76.62C997.857 76.8067 997.457 76.9467 997.017 77.04C996.59 77.1467 996.07 77.2 995.457 77.2ZM1005.87 66.08C1007.19 66.08 1008.25 66.54 1009.05 67.46C1009.86 68.38 1010.27 69.7667 1010.27 71.62C1010.27 73.4467 1009.86 74.8333 1009.05 75.78C1008.25 76.7267 1007.18 77.2 1005.85 77.2C1005.02 77.2 1004.33 77.0467 1003.79 76.74C1003.25 76.42 1002.83 76.0533 1002.53 75.64H1002.41C1002.43 75.8667 1002.46 76.1533 1002.49 76.5C1002.51 76.8467 1002.53 77.1467 1002.53 77.4V81.8H1000.77V66.28H1002.21L1002.45 67.74H1002.53C1002.85 67.2733 1003.27 66.88 1003.79 66.56C1004.31 66.24 1005 66.08 1005.87 66.08ZM1005.55 67.56C1004.45 67.56 1003.68 67.8667 1003.23 68.48C1002.79 69.0933 1002.55 70.0267 1002.53 71.28V71.62C1002.53 72.94 1002.74 73.96 1003.17 74.68C1003.61 75.3867 1004.41 75.74 1005.59 75.74C1006.24 75.74 1006.77 75.56 1007.19 75.2C1007.61 74.84 1007.93 74.3533 1008.13 73.74C1008.34 73.1133 1008.45 72.4 1008.45 71.6C1008.45 70.3733 1008.21 69.3933 1007.73 68.66C1007.26 67.9267 1006.53 67.56 1005.55 67.56ZM1017.13 66.1C1018.44 66.1 1019.4 66.3867 1020.03 66.96C1020.66 67.5333 1020.97 68.4467 1020.97 69.7V77H1019.69L1019.35 75.48H1019.27C1018.8 76.0667 1018.31 76.5 1017.79 76.78C1017.28 77.06 1016.58 77.2 1015.67 77.2C1014.7 77.2 1013.89 76.9467 1013.25 76.44C1012.61 75.92 1012.29 75.1133 1012.29 74.02C1012.29 72.9533 1012.71 72.1333 1013.55 71.56C1014.39 70.9733 1015.68 70.6533 1017.43 70.6L1019.25 70.54V69.9C1019.25 69.0067 1019.06 68.3867 1018.67 68.04C1018.28 67.6933 1017.74 67.52 1017.03 67.52C1016.47 67.52 1015.94 67.6067 1015.43 67.78C1014.92 67.94 1014.45 68.1267 1014.01 68.34L1013.47 67.02C1013.94 66.7667 1014.49 66.5533 1015.13 66.38C1015.77 66.1933 1016.44 66.1 1017.13 66.1ZM1017.65 71.82C1016.32 71.8733 1015.39 72.0867 1014.87 72.46C1014.36 72.8333 1014.11 73.36 1014.11 74.04C1014.11 74.64 1014.29 75.08 1014.65 75.36C1015.02 75.64 1015.5 75.78 1016.07 75.78C1016.98 75.78 1017.73 75.5333 1018.33 75.04C1018.93 74.5333 1019.23 73.76 1019.23 72.72V71.76L1017.65 71.82ZM1034.86 80.72H1033.14V77H1024.28V66.28H1026.04V75.52H1031.58V66.28H1033.34V75.54H1034.86V80.72ZM1038.58 72.82C1038.58 72.98 1038.57 73.22 1038.56 73.54C1038.55 73.86 1038.53 74.18 1038.5 74.5C1038.49 74.82 1038.47 75.0733 1038.46 75.26L1044.2 66.28H1046.36V77H1044.72V70.68C1044.72 70.4667 1044.72 70.1867 1044.72 69.84C1044.73 69.4933 1044.75 69.1533 1044.76 68.82C1044.77 68.4733 1044.79 68.2133 1044.8 68.04L1039.1 77H1036.92V66.28H1038.58V72.82ZM1063.69 71.62C1063.69 73.3933 1063.26 74.7667 1062.41 75.74C1061.56 76.7133 1060.4 77.2 1058.95 77.2C1057.59 77.2 1056.49 76.7733 1055.65 75.92C1054.82 75.0667 1054.36 73.8333 1054.25 72.22H1051.53V77H1049.77V66.28H1051.53V70.74H1054.27C1054.42 69.2333 1054.9 68.08 1055.73 67.28C1056.56 66.48 1057.64 66.08 1058.99 66.08C1059.91 66.08 1060.72 66.3 1061.43 66.74C1062.14 67.1667 1062.69 67.7933 1063.09 68.62C1063.49 69.4333 1063.69 70.4333 1063.69 71.62ZM1056.05 71.62C1056.05 72.9667 1056.28 73.9933 1056.75 74.7C1057.22 75.3933 1057.96 75.74 1058.97 75.74C1060 75.74 1060.74 75.3933 1061.19 74.7C1061.64 73.9933 1061.87 72.9667 1061.87 71.62C1061.87 70.2733 1061.64 69.26 1061.17 68.58C1060.72 67.9 1059.98 67.56 1058.97 67.56C1057.96 67.56 1057.22 67.9 1056.75 68.58C1056.28 69.26 1056.05 70.2733 1056.05 71.62ZM1069.15 63.1L1068.89 72.8H1066.99L1066.73 63.1H1069.15ZM1068.01 77.14C1067.6 77.14 1067.25 77 1066.97 76.72C1066.69 76.44 1066.55 76.0933 1066.55 75.68C1066.55 75.2667 1066.69 74.92 1066.97 74.64C1067.25 74.36 1067.6 74.22 1068.01 74.22C1068.41 74.22 1068.75 74.36 1069.03 74.64C1069.31 74.92 1069.45 75.2667 1069.45 75.68C1069.45 76.0933 1069.31 76.44 1069.03 76.72C1068.75 77 1068.41 77.14 1068.01 77.14Z" fill="#011948"/>
<path d="M694.105 77.4C692.212 77.4 690.519 77.0133 689.025 76.24C687.559 75.4667 686.399 74.2667 685.545 72.64C684.719 71.0133 684.305 68.9333 684.305 66.4C684.305 63.76 684.745 61.6133 685.625 59.96C686.505 58.3067 687.692 57.0933 689.185 56.32C690.705 55.5467 692.425 55.16 694.345 55.16C695.439 55.16 696.492 55.28 697.505 55.52C698.519 55.7333 699.345 56 699.985 56.32L698.905 59.24C698.265 59 697.519 58.7733 696.665 58.56C695.812 58.3467 695.012 58.24 694.265 58.24C690.052 58.24 687.945 60.9467 687.945 66.36C687.945 68.9467 688.452 70.9333 689.465 72.32C690.505 73.68 692.039 74.36 694.065 74.36C695.239 74.36 696.265 74.24 697.145 74C698.052 73.76 698.879 73.4667 699.625 73.12V76.24C698.905 76.6133 698.105 76.8933 697.225 77.08C696.372 77.2933 695.332 77.4 694.105 77.4ZM701.364 55.56H705.124L709.764 67.76C710.164 68.8267 710.524 69.8533 710.844 70.84C711.164 71.8 711.404 72.72 711.564 73.6H711.724C711.884 72.9333 712.138 72.0667 712.484 71C712.831 69.9067 713.191 68.8133 713.564 67.72L717.924 55.56H721.724L712.484 79.96C711.738 81.9867 710.764 83.6 709.564 84.8C708.391 86 706.764 86.6 704.684 86.6C704.044 86.6 703.484 86.56 703.004 86.48C702.524 86.4267 702.111 86.36 701.764 86.28V83.48C702.058 83.5333 702.404 83.5867 702.804 83.64C703.231 83.6933 703.671 83.72 704.124 83.72C705.351 83.72 706.338 83.3733 707.084 82.68C707.858 81.9867 708.458 81.0667 708.884 79.92L710.004 77.08L701.364 55.56ZM748.115 55.56V77H744.955V63.32C744.955 62.76 744.968 62.1733 744.995 61.56C745.048 60.9467 745.102 60.3467 745.155 59.76H745.035L738.035 77H735.075L728.275 59.76H728.155C728.235 60.96 728.275 62.1867 728.275 63.44V77H725.115V55.56H729.795L736.555 72.8L743.435 55.56H748.115Z" fill="white"/>
<path d="M475.114 50.78C475.314 46.78 476.714 43.7 479.314 41.54C481.954 39.34 485.414 38.24 489.694 38.24C492.614 38.24 495.114 38.76 497.194 39.8C499.274 40.8 500.834 42.18 501.874 43.94C502.954 45.66 503.494 47.62 503.494 49.82C503.494 52.34 502.834 54.48 501.514 56.24C500.234 57.96 498.694 59.12 496.894 59.72V59.96C499.214 60.68 501.014 61.96 502.294 63.8C503.614 65.64 504.274 68 504.274 70.88C504.274 73.28 503.714 75.42 502.594 77.3C501.514 79.18 499.894 80.66 497.734 81.74C495.614 82.78 493.054 83.3 490.054 83.3C485.534 83.3 481.854 82.16 479.014 79.88C476.174 77.6 474.674 74.24 474.514 69.8H482.674C482.754 71.76 483.414 73.34 484.654 74.54C485.934 75.7 487.674 76.28 489.874 76.28C491.914 76.28 493.474 75.72 494.554 74.6C495.674 73.44 496.234 71.96 496.234 70.16C496.234 67.76 495.474 66.04 493.954 65C492.434 63.96 490.074 63.44 486.874 63.44H485.134V56.54H486.874C492.554 56.54 495.394 54.64 495.394 50.84C495.394 49.12 494.874 47.78 493.834 46.82C492.834 45.86 491.374 45.38 489.454 45.38C487.574 45.38 486.114 45.9 485.074 46.94C484.074 47.94 483.494 49.22 483.334 50.78H475.114ZM510.912 60.56C510.912 53.64 512.152 48.22 514.632 44.3C517.152 40.38 521.312 38.42 527.112 38.42C532.912 38.42 537.052 40.38 539.532 44.3C542.052 48.22 543.312 53.64 543.312 60.56C543.312 67.52 542.052 72.98 539.532 76.94C537.052 80.9 532.912 82.88 527.112 82.88C521.312 82.88 517.152 80.9 514.632 76.94C512.152 72.98 510.912 67.52 510.912 60.56ZM535.032 60.56C535.032 57.6 534.832 55.12 534.432 53.12C534.072 51.08 533.312 49.42 532.152 48.14C531.032 46.86 529.352 46.22 527.112 46.22C524.872 46.22 523.172 46.86 522.012 48.14C520.892 49.42 520.132 51.08 519.732 53.12C519.372 55.12 519.192 57.6 519.192 60.56C519.192 63.6 519.372 66.16 519.732 68.24C520.092 70.28 520.852 71.94 522.012 73.22C523.172 74.46 524.872 75.08 527.112 75.08C529.352 75.08 531.052 74.46 532.212 73.22C533.372 71.94 534.132 70.28 534.492 68.24C534.852 66.16 535.032 63.6 535.032 60.56ZM563.998 60.56C563.998 53.64 565.238 48.22 567.718 44.3C570.238 40.38 574.398 38.42 580.198 38.42C585.998 38.42 590.138 40.38 592.618 44.3C595.138 48.22 596.398 53.64 596.398 60.56C596.398 67.52 595.138 72.98 592.618 76.94C590.138 80.9 585.998 82.88 580.198 82.88C574.398 82.88 570.238 80.9 567.718 76.94C565.238 72.98 563.998 67.52 563.998 60.56ZM588.118 60.56C588.118 57.6 587.918 55.12 587.518 53.12C587.158 51.08 586.398 49.42 585.238 48.14C584.118 46.86 582.438 46.22 580.198 46.22C577.958 46.22 576.258 46.86 575.098 48.14C573.978 49.42 573.218 51.08 572.818 53.12C572.458 55.12 572.278 57.6 572.278 60.56C572.278 63.6 572.458 66.16 572.818 68.24C573.178 70.28 573.938 71.94 575.098 73.22C576.258 74.46 577.958 75.08 580.198 75.08C582.438 75.08 584.138 74.46 585.298 73.22C586.458 71.94 587.218 70.28 587.578 68.24C587.938 66.16 588.118 63.6 588.118 60.56ZM602.787 60.56C602.787 53.64 604.027 48.22 606.507 44.3C609.027 40.38 613.187 38.42 618.987 38.42C624.787 38.42 628.927 40.38 631.407 44.3C633.927 48.22 635.187 53.64 635.187 60.56C635.187 67.52 633.927 72.98 631.407 76.94C628.927 80.9 624.787 82.88 618.987 82.88C613.187 82.88 609.027 80.9 606.507 76.94C604.027 72.98 602.787 67.52 602.787 60.56ZM626.907 60.56C626.907 57.6 626.707 55.12 626.307 53.12C625.947 51.08 625.187 49.42 624.027 48.14C622.907 46.86 621.227 46.22 618.987 46.22C616.747 46.22 615.047 46.86 613.887 48.14C612.767 49.42 612.007 51.08 611.607 53.12C611.247 55.12 611.067 57.6 611.067 60.56C611.067 63.6 611.247 66.16 611.607 68.24C611.967 70.28 612.727 71.94 613.887 73.22C615.047 74.46 616.747 75.08 618.987 75.08C621.227 75.08 622.927 74.46 624.087 73.22C625.247 71.94 626.007 70.28 626.367 68.24C626.727 66.16 626.907 63.6 626.907 60.56ZM641.576 60.56C641.576 53.64 642.816 48.22 645.296 44.3C647.816 40.38 651.976 38.42 657.776 38.42C663.576 38.42 667.716 40.38 670.196 44.3C672.716 48.22 673.976 53.64 673.976 60.56C673.976 67.52 672.716 72.98 670.196 76.94C667.716 80.9 663.576 82.88 657.776 82.88C651.976 82.88 647.816 80.9 645.296 76.94C642.816 72.98 641.576 67.52 641.576 60.56ZM665.696 60.56C665.696 57.6 665.496 55.12 665.096 53.12C664.736 51.08 663.976 49.42 662.816 48.14C661.696 46.86 660.016 46.22 657.776 46.22C655.536 46.22 653.836 46.86 652.676 48.14C651.556 49.42 650.796 51.08 650.396 53.12C650.036 55.12 649.856 57.6 649.856 60.56C649.856 63.6 650.036 66.16 650.396 68.24C650.756 70.28 651.516 71.94 652.676 73.22C653.836 74.46 655.536 75.08 657.776 75.08C660.016 75.08 661.716 74.46 662.876 73.22C664.036 71.94 664.796 70.28 665.156 68.24C665.516 66.16 665.696 63.6 665.696 60.56Z" fill="white"/>
</g>
<rect x="1" y="1" width="1161" height="137" stroke="#917DFA" stroke-width="2"/>
<defs>
<clipPath id="clip0_15:145">
</clipPath>
</defs>
</svg>
