<svg width="1163" height="139" viewBox="0 0 1163 139" fill="none" xmlns="http://www.w3.org/2000/svg">
<g clip-path="url(#clip0_18:1070)">
<rect x="1" y="1" width="1161" height="137" fill="white"/>
<path d="M748.136 13.4346C646.769 24.4112 595.12 55.2017 632.774 82.2065C645.866 91.5959 668.047 99.2874 695.662 104.87C700.094 109.111 705.882 119.567 670.125 129.212C670.125 129.212 729.881 126.222 747.923 112.307C790.431 116.234 838.602 116.19 884.474 111.221C985.835 100.242 1037.48 69.4527 999.838 42.4494C962.186 15.4468 849.489 2.45593 748.136 13.4346V13.4346Z" fill="#917DFA"/>
<path d="M320.94 49V34.72H331.66V49H329.88V36.3H322.74V49H320.94ZM344.649 43.62C344.649 45.3933 344.196 46.7667 343.289 47.74C342.396 48.7133 341.182 49.2 339.649 49.2C338.702 49.2 337.856 48.9867 337.109 48.56C336.376 48.12 335.796 47.4867 335.369 46.66C334.942 45.82 334.729 44.8067 334.729 43.62C334.729 41.8467 335.176 40.48 336.069 39.52C336.962 38.56 338.176 38.08 339.709 38.08C340.682 38.08 341.536 38.3 342.269 38.74C343.016 39.1667 343.596 39.7933 344.009 40.62C344.436 41.4333 344.649 42.4333 344.649 43.62ZM336.549 43.62C336.549 44.8867 336.796 45.8933 337.289 46.64C337.796 47.3733 338.596 47.74 339.689 47.74C340.769 47.74 341.562 47.3733 342.069 46.64C342.576 45.8933 342.829 44.8867 342.829 43.62C342.829 42.3533 342.576 41.36 342.069 40.64C341.562 39.92 340.762 39.56 339.669 39.56C338.576 39.56 337.782 39.92 337.289 40.64C336.796 41.36 336.549 42.3533 336.549 43.62ZM355.398 38.28V47.52H356.958V52.72H355.258V49H347.798V52.72H346.118V47.52H346.978C347.898 46.2533 348.585 44.8133 349.038 43.2C349.505 41.5733 349.745 39.9333 349.758 38.28H355.398ZM351.318 39.66C351.265 40.5667 351.125 41.5067 350.898 42.48C350.672 43.44 350.378 44.36 350.018 45.24C349.672 46.12 349.265 46.88 348.798 47.52H353.698V39.66H351.318ZM368.119 38.28V49H366.359V39.78H360.819V49H359.059V38.28H368.119ZM373.2 44.82C373.2 44.98 373.193 45.22 373.18 45.54C373.167 45.86 373.147 46.18 373.12 46.5C373.107 46.82 373.093 47.0733 373.08 47.26L378.82 38.28H380.98V49H379.34V42.68C379.34 42.4667 379.34 42.1867 379.34 41.84C379.353 41.4933 379.367 41.1533 379.38 40.82C379.393 40.4733 379.407 40.2133 379.42 40.04L373.72 49H371.54V38.28H373.2V44.82ZM398.931 38.28V49H384.391V38.28H386.151V47.52H390.771V38.28H392.531V47.52H397.171V38.28H398.931ZM404.02 44.82C404.02 44.98 404.013 45.22 404 45.54C403.987 45.86 403.967 46.18 403.94 46.5C403.927 46.82 403.913 47.0733 403.9 47.26L409.64 38.28H411.8V49H410.16V42.68C410.16 42.4667 410.16 42.1867 410.16 41.84C410.173 41.4933 410.187 41.1533 410.2 40.82C410.213 40.4733 410.227 40.2133 410.24 40.04L404.54 49H402.36V38.28H404.02V44.82ZM419.512 49.2C418.565 49.2 417.718 49.0067 416.972 48.62C416.238 48.2333 415.658 47.6333 415.232 46.82C414.818 46.0067 414.612 44.9667 414.612 43.7C414.612 42.38 414.832 41.3067 415.272 40.48C415.712 39.6533 416.305 39.0467 417.052 38.66C417.812 38.2733 418.672 38.08 419.632 38.08C420.178 38.08 420.705 38.14 421.212 38.26C421.718 38.3667 422.132 38.5 422.452 38.66L421.912 40.12C421.592 40 421.218 39.8867 420.792 39.78C420.365 39.6733 419.965 39.62 419.592 39.62C417.485 39.62 416.432 40.9733 416.432 43.68C416.432 44.9733 416.685 45.9667 417.192 46.66C417.712 47.34 418.478 47.68 419.492 47.68C420.078 47.68 420.592 47.62 421.032 47.5C421.485 47.38 421.898 47.2333 422.272 47.06V48.62C421.912 48.8067 421.512 48.9467 421.072 49.04C420.645 49.1467 420.125 49.2 419.512 49.2ZM429.761 42.68C432.548 42.68 433.941 43.6933 433.941 45.72C433.941 46.72 433.601 47.52 432.921 48.12C432.241 48.7067 431.161 49 429.681 49H424.821V38.28H426.581V42.68H429.761ZM432.181 45.82C432.181 45.1667 431.948 44.7267 431.481 44.5C431.028 44.26 430.388 44.14 429.561 44.14H426.581V47.58H429.601C430.348 47.58 430.961 47.4467 431.441 47.18C431.934 46.9133 432.181 46.46 432.181 45.82ZM443.651 38.28V42.74H449.471V38.28H451.231V49H449.471V44.22H443.651V49H441.891V38.28H443.651ZM458.686 38.1C459.992 38.1 460.959 38.3867 461.586 38.96C462.212 39.5333 462.526 40.4467 462.526 41.7V49H461.246L460.906 47.48H460.826C460.359 48.0667 459.866 48.5 459.346 48.78C458.839 49.06 458.132 49.2 457.226 49.2C456.252 49.2 455.446 48.9467 454.806 48.44C454.166 47.92 453.846 47.1133 453.846 46.02C453.846 44.9533 454.266 44.1333 455.106 43.56C455.946 42.9733 457.239 42.6533 458.986 42.6L460.806 42.54V41.9C460.806 41.0067 460.612 40.3867 460.226 40.04C459.839 39.6933 459.292 39.52 458.586 39.52C458.026 39.52 457.492 39.6067 456.986 39.78C456.479 39.94 456.006 40.1267 455.566 40.34L455.026 39.02C455.492 38.7667 456.046 38.5533 456.686 38.38C457.326 38.1933 457.992 38.1 458.686 38.1ZM459.206 43.82C457.872 43.8733 456.946 44.0867 456.426 44.46C455.919 44.8333 455.666 45.36 455.666 46.04C455.666 46.64 455.846 47.08 456.206 47.36C456.579 47.64 457.052 47.78 457.626 47.78C458.532 47.78 459.286 47.5333 459.886 47.04C460.486 46.5333 460.786 45.76 460.786 44.72V43.76L459.206 43.82ZM476.132 38.08C477.452 38.08 478.512 38.54 479.312 39.46C480.125 40.38 480.532 41.7667 480.532 43.62C480.532 45.4467 480.125 46.8333 479.312 47.78C478.512 48.7267 477.445 49.2 476.112 49.2C475.285 49.2 474.599 49.0467 474.052 48.74C473.519 48.42 473.099 48.0533 472.792 47.64H472.672C472.699 47.8667 472.725 48.1533 472.752 48.5C472.779 48.8467 472.792 49.1467 472.792 49.4V53.8H471.032V38.28H472.472L472.712 39.74H472.792C473.112 39.2733 473.532 38.88 474.052 38.56C474.572 38.24 475.265 38.08 476.132 38.08ZM475.812 39.56C474.719 39.56 473.945 39.8667 473.492 40.48C473.052 41.0933 472.819 42.0267 472.792 43.28V43.62C472.792 44.94 473.005 45.96 473.432 46.68C473.872 47.3867 474.679 47.74 475.852 47.74C476.505 47.74 477.039 47.56 477.452 47.2C477.879 46.84 478.192 46.3533 478.392 45.74C478.605 45.1133 478.712 44.4 478.712 43.6C478.712 42.3733 478.472 41.3933 477.992 40.66C477.525 39.9267 476.799 39.56 475.812 39.56ZM487.397 38.1C488.703 38.1 489.67 38.3867 490.297 38.96C490.923 39.5333 491.237 40.4467 491.237 41.7V49H489.957L489.617 47.48H489.537C489.07 48.0667 488.577 48.5 488.057 48.78C487.55 49.06 486.843 49.2 485.937 49.2C484.963 49.2 484.157 48.9467 483.517 48.44C482.877 47.92 482.557 47.1133 482.557 46.02C482.557 44.9533 482.977 44.1333 483.817 43.56C484.657 42.9733 485.95 42.6533 487.697 42.6L489.517 42.54V41.9C489.517 41.0067 489.323 40.3867 488.937 40.04C488.55 39.6933 488.003 39.52 487.297 39.52C486.737 39.52 486.203 39.6067 485.697 39.78C485.19 39.94 484.717 40.1267 484.277 40.34L483.737 39.02C484.203 38.7667 484.757 38.5533 485.397 38.38C486.037 38.1933 486.703 38.1 487.397 38.1ZM487.917 43.82C486.583 43.8733 485.657 44.0867 485.137 44.46C484.63 44.8333 484.377 45.36 484.377 46.04C484.377 46.64 484.557 47.08 484.917 47.36C485.29 47.64 485.763 47.78 486.337 47.78C487.243 47.78 487.997 47.5333 488.597 47.04C489.197 46.5333 489.497 45.76 489.497 44.72V43.76L487.917 43.82ZM498.848 49.2C497.901 49.2 497.054 49.0067 496.308 48.62C495.574 48.2333 494.994 47.6333 494.568 46.82C494.154 46.0067 493.948 44.9667 493.948 43.7C493.948 42.38 494.168 41.3067 494.608 40.48C495.048 39.6533 495.641 39.0467 496.388 38.66C497.148 38.2733 498.008 38.08 498.968 38.08C499.514 38.08 500.041 38.14 500.548 38.26C501.054 38.3667 501.468 38.5 501.788 38.66L501.248 40.12C500.928 40 500.554 39.8867 500.128 39.78C499.701 39.6733 499.301 39.62 498.928 39.62C496.821 39.62 495.768 40.9733 495.768 43.68C495.768 44.9733 496.021 45.9667 496.528 46.66C497.048 47.34 497.814 47.68 498.828 47.68C499.414 47.68 499.928 47.62 500.368 47.5C500.821 47.38 501.234 47.2333 501.608 47.06V48.62C501.248 48.8067 500.848 48.9467 500.408 49.04C499.981 49.1467 499.461 49.2 498.848 49.2ZM508.457 49.2C507.51 49.2 506.664 49.0067 505.917 48.62C505.184 48.2333 504.604 47.6333 504.177 46.82C503.764 46.0067 503.557 44.9667 503.557 43.7C503.557 42.38 503.777 41.3067 504.217 40.48C504.657 39.6533 505.25 39.0467 505.997 38.66C506.757 38.2733 507.617 38.08 508.577 38.08C509.124 38.08 509.65 38.14 510.157 38.26C510.664 38.3667 511.077 38.5 511.397 38.66L510.857 40.12C510.537 40 510.164 39.8867 509.737 39.78C509.31 39.6733 508.91 39.62 508.537 39.62C506.43 39.62 505.377 40.9733 505.377 43.68C505.377 44.9733 505.63 45.9667 506.137 46.66C506.657 47.34 507.424 47.68 508.437 47.68C509.024 47.68 509.537 47.62 509.977 47.5C510.43 47.38 510.844 47.2333 511.217 47.06V48.62C510.857 48.8067 510.457 48.9467 510.017 49.04C509.59 49.1467 509.07 49.2 508.457 49.2ZM513.766 49V38.28H515.526V42.68H518.306C519.693 42.68 520.72 42.9333 521.386 43.44C522.053 43.9467 522.386 44.7067 522.386 45.72C522.386 46.72 522.06 47.52 521.406 48.12C520.753 48.7067 519.693 49 518.226 49H513.766ZM524.166 49V38.28H525.926V49H524.166ZM518.066 47.58C518.826 47.58 519.446 47.4533 519.926 47.2C520.406 46.9333 520.646 46.4733 520.646 45.82C520.646 45.1667 520.426 44.7267 519.986 44.5C519.546 44.26 518.913 44.14 518.086 44.14H515.526V47.58H518.066ZM537.493 49H535.713V39.74H532.553C532.379 41.9933 532.139 43.8133 531.833 45.2C531.526 46.5733 531.119 47.5733 530.613 48.2C530.106 48.8267 529.466 49.14 528.693 49.14C528.519 49.14 528.346 49.1267 528.173 49.1C528.013 49.0867 527.879 49.0533 527.773 49V47.68C527.853 47.7067 527.939 47.7267 528.033 47.74C528.126 47.7533 528.219 47.76 528.313 47.76C529.033 47.76 529.606 46.9933 530.033 45.46C530.473 43.9267 530.806 41.5333 531.033 38.28H537.493V49ZM547.235 38.28H549.155L544.575 43.44L549.535 49H547.495L542.655 43.56V49H540.895V38.28H542.655V43.48L547.235 38.28ZM549.801 38.28H551.681L554.001 44.38C554.201 44.9133 554.381 45.4267 554.541 45.92C554.701 46.4 554.821 46.86 554.901 47.3H554.981C555.061 46.9667 555.188 46.5333 555.361 46C555.535 45.4533 555.715 44.9067 555.901 44.36L558.081 38.28H559.981L555.361 50.48C554.988 51.4933 554.501 52.3 553.901 52.9C553.315 53.5 552.501 53.8 551.461 53.8C551.141 53.8 550.861 53.78 550.621 53.74C550.381 53.7133 550.175 53.68 550.001 53.64V52.24C550.148 52.2667 550.321 52.2933 550.521 52.32C550.735 52.3467 550.955 52.36 551.181 52.36C551.795 52.36 552.288 52.1867 552.661 51.84C553.048 51.4933 553.348 51.0333 553.561 50.46L554.121 49.04L549.801 38.28ZM322.36 73.82C322.36 73.98 322.353 74.22 322.34 74.54C322.327 74.86 322.307 75.18 322.28 75.5C322.267 75.82 322.253 76.0733 322.24 76.26L327.98 67.28H330.14V78H328.5V71.68C328.5 71.4667 328.5 71.1867 328.5 70.84C328.513 70.4933 328.527 70.1533 328.54 69.82C328.553 69.4733 328.567 69.2133 328.58 69.04L322.88 78H320.7V67.28H322.36V73.82ZM347.807 67.28V78H346.047V68.78H340.507V78H338.747V67.28H347.807ZM360.547 72.62C360.547 74.3933 360.094 75.7667 359.187 76.74C358.294 77.7133 357.081 78.2 355.547 78.2C354.601 78.2 353.754 77.9867 353.007 77.56C352.274 77.12 351.694 76.4867 351.267 75.66C350.841 74.82 350.627 73.8067 350.627 72.62C350.627 70.8467 351.074 69.48 351.967 68.52C352.861 67.56 354.074 67.08 355.607 67.08C356.581 67.08 357.434 67.3 358.167 67.74C358.914 68.1667 359.494 68.7933 359.907 69.62C360.334 70.4333 360.547 71.4333 360.547 72.62ZM352.447 72.62C352.447 73.8867 352.694 74.8933 353.187 75.64C353.694 76.3733 354.494 76.74 355.587 76.74C356.667 76.74 357.461 76.3733 357.967 75.64C358.474 74.8933 358.727 73.8867 358.727 72.62C358.727 71.3533 358.474 70.36 357.967 69.64C357.461 68.92 356.661 68.56 355.567 68.56C354.474 68.56 353.681 68.92 353.187 69.64C352.694 70.36 352.447 71.3533 352.447 72.62ZM371.497 78H369.717V68.74H366.557C366.383 70.9933 366.143 72.8133 365.837 74.2C365.53 75.5733 365.123 76.5733 364.617 77.2C364.11 77.8267 363.47 78.14 362.697 78.14C362.523 78.14 362.35 78.1267 362.177 78.1C362.017 78.0867 361.883 78.0533 361.777 78V76.68C361.857 76.7067 361.943 76.7267 362.037 76.74C362.13 76.7533 362.223 76.76 362.317 76.76C363.037 76.76 363.61 75.9933 364.037 74.46C364.477 72.9267 364.81 70.5333 365.037 67.28H371.497V78ZM373.219 67.28H375.099L377.419 73.38C377.619 73.9133 377.799 74.4267 377.959 74.92C378.119 75.4 378.239 75.86 378.319 76.3H378.399C378.479 75.9667 378.606 75.5333 378.779 75C378.953 74.4533 379.133 73.9067 379.319 73.36L381.499 67.28H383.399L378.779 79.48C378.406 80.4933 377.919 81.3 377.319 81.9C376.733 82.5 375.919 82.8 374.879 82.8C374.559 82.8 374.279 82.78 374.039 82.74C373.799 82.7133 373.593 82.68 373.419 82.64V81.24C373.566 81.2667 373.739 81.2933 373.939 81.32C374.153 81.3467 374.373 81.36 374.599 81.36C375.213 81.36 375.706 81.1867 376.079 80.84C376.466 80.4933 376.766 80.0333 376.979 79.46L377.539 78.04L373.219 67.28ZM386.635 71.18C386.635 72.4067 387.321 73.02 388.695 73.02C389.361 73.02 389.968 72.92 390.515 72.72C391.061 72.5067 391.621 72.2267 392.195 71.88V67.28H393.955V78H392.195V73.22C391.595 73.6067 391.001 73.9133 390.415 74.14C389.841 74.3533 389.148 74.46 388.335 74.46C387.241 74.46 386.388 74.1733 385.775 73.6C385.175 73.0267 384.875 72.26 384.875 71.3V67.28H386.635V71.18ZM399.02 73.82C399.02 73.98 399.013 74.22 399 74.54C398.987 74.86 398.967 75.18 398.94 75.5C398.927 75.82 398.913 76.0733 398.9 76.26L404.64 67.28H406.8V78H405.16V71.68C405.16 71.4667 405.16 71.1867 405.16 70.84C405.173 70.4933 405.187 70.1533 405.2 69.82C405.213 69.4733 405.227 69.2133 405.24 69.04L399.54 78H397.36V67.28H399.02V73.82ZM414.607 65.5V63.42H418.767V78H416.467V65.5H414.607ZM421.899 70.52C421.899 68.2133 422.286 66.4133 423.059 65.12C423.846 63.8133 425.193 63.16 427.099 63.16C429.006 63.16 430.346 63.8133 431.119 65.12C431.906 66.4133 432.299 68.2133 432.299 70.52C432.299 72.8533 431.906 74.68 431.119 76C430.346 77.3067 429.006 77.96 427.099 77.96C425.193 77.96 423.846 77.3067 423.059 76C422.286 74.68 421.899 72.8533 421.899 70.52ZM430.059 70.52C430.059 69.44 429.986 68.5267 429.839 67.78C429.706 67.0333 429.426 66.4267 428.999 65.96C428.573 65.48 427.939 65.24 427.099 65.24C426.259 65.24 425.626 65.48 425.199 65.96C424.773 66.4267 424.486 67.0333 424.339 67.78C424.206 68.5267 424.139 69.44 424.139 70.52C424.139 71.64 424.206 72.58 424.339 73.34C424.473 74.1 424.753 74.7133 425.179 75.18C425.619 75.6467 426.259 75.88 427.099 75.88C427.939 75.88 428.573 75.6467 428.999 75.18C429.439 74.7133 429.726 74.1 429.859 73.34C429.993 72.58 430.059 71.64 430.059 70.52ZM439.907 70.52C439.907 68.2133 440.294 66.4133 441.067 65.12C441.854 63.8133 443.2 63.16 445.107 63.16C447.014 63.16 448.354 63.8133 449.127 65.12C449.914 66.4133 450.307 68.2133 450.307 70.52C450.307 72.8533 449.914 74.68 449.127 76C448.354 77.3067 447.014 77.96 445.107 77.96C443.2 77.96 441.854 77.3067 441.067 76C440.294 74.68 439.907 72.8533 439.907 70.52ZM448.067 70.52C448.067 69.44 447.994 68.5267 447.847 67.78C447.714 67.0333 447.434 66.4267 447.007 65.96C446.58 65.48 445.947 65.24 445.107 65.24C444.267 65.24 443.634 65.48 443.207 65.96C442.78 66.4267 442.494 67.0333 442.347 67.78C442.214 68.5267 442.147 69.44 442.147 70.52C442.147 71.64 442.214 72.58 442.347 73.34C442.48 74.1 442.76 74.7133 443.187 75.18C443.627 75.6467 444.267 75.88 445.107 75.88C445.947 75.88 446.58 75.6467 447.007 75.18C447.447 74.7133 447.734 74.1 447.867 73.34C448 72.58 448.067 71.64 448.067 70.52ZM452.72 70.52C452.72 68.2133 453.106 66.4133 453.88 65.12C454.666 63.8133 456.013 63.16 457.92 63.16C459.826 63.16 461.166 63.8133 461.94 65.12C462.726 66.4133 463.12 68.2133 463.12 70.52C463.12 72.8533 462.726 74.68 461.94 76C461.166 77.3067 459.826 77.96 457.92 77.96C456.013 77.96 454.666 77.3067 453.88 76C453.106 74.68 452.72 72.8533 452.72 70.52ZM460.88 70.52C460.88 69.44 460.806 68.5267 460.66 67.78C460.526 67.0333 460.246 66.4267 459.82 65.96C459.393 65.48 458.76 65.24 457.92 65.24C457.08 65.24 456.446 65.48 456.02 65.96C455.593 66.4267 455.306 67.0333 455.16 67.78C455.026 68.5267 454.96 69.44 454.96 70.52C454.96 71.64 455.026 72.58 455.16 73.34C455.293 74.1 455.573 74.7133 456 75.18C456.44 75.6467 457.08 75.88 457.92 75.88C458.76 75.88 459.393 75.6467 459.82 75.18C460.26 74.7133 460.546 74.1 460.68 73.34C460.813 72.58 460.88 71.64 460.88 70.52ZM465.532 70.52C465.532 68.2133 465.919 66.4133 466.692 65.12C467.479 63.8133 468.825 63.16 470.732 63.16C472.639 63.16 473.979 63.8133 474.752 65.12C475.539 66.4133 475.932 68.2133 475.932 70.52C475.932 72.8533 475.539 74.68 474.752 76C473.979 77.3067 472.639 77.96 470.732 77.96C468.825 77.96 467.479 77.3067 466.692 76C465.919 74.68 465.532 72.8533 465.532 70.52ZM473.692 70.52C473.692 69.44 473.619 68.5267 473.472 67.78C473.339 67.0333 473.059 66.4267 472.632 65.96C472.205 65.48 471.572 65.24 470.732 65.24C469.892 65.24 469.259 65.48 468.832 65.96C468.405 66.4267 468.119 67.0333 467.972 67.78C467.839 68.5267 467.772 69.44 467.772 70.52C467.772 71.64 467.839 72.58 467.972 73.34C468.105 74.1 468.385 74.7133 468.812 75.18C469.252 75.6467 469.892 75.88 470.732 75.88C471.572 75.88 472.205 75.6467 472.632 75.18C473.072 74.7133 473.359 74.1 473.492 73.34C473.625 72.58 473.692 71.64 473.692 70.52ZM488.34 78.2C487.393 78.2 486.547 78.0067 485.8 77.62C485.067 77.2333 484.487 76.6333 484.06 75.82C483.647 75.0067 483.44 73.9667 483.44 72.7C483.44 71.38 483.66 70.3067 484.1 69.48C484.54 68.6533 485.133 68.0467 485.88 67.66C486.64 67.2733 487.5 67.08 488.46 67.08C489.007 67.08 489.533 67.14 490.04 67.26C490.547 67.3667 490.96 67.5 491.28 67.66L490.74 69.12C490.42 69 490.047 68.8867 489.62 68.78C489.193 68.6733 488.793 68.62 488.42 68.62C486.313 68.62 485.26 69.9733 485.26 72.68C485.26 73.9733 485.513 74.9667 486.02 75.66C486.54 76.34 487.307 76.68 488.32 76.68C488.907 76.68 489.42 76.62 489.86 76.5C490.313 76.38 490.727 76.2333 491.1 76.06V77.62C490.74 77.8067 490.34 77.9467 489.9 78.04C489.473 78.1467 488.953 78.2 488.34 78.2ZM491.969 67.28H493.849L496.169 73.38C496.369 73.9133 496.549 74.4267 496.709 74.92C496.869 75.4 496.989 75.86 497.069 76.3H497.149C497.229 75.9667 497.356 75.5333 497.529 75C497.703 74.4533 497.883 73.9067 498.069 73.36L500.249 67.28H502.149L497.529 79.48C497.156 80.4933 496.669 81.3 496.069 81.9C495.483 82.5 494.669 82.8 493.629 82.8C493.309 82.8 493.029 82.78 492.789 82.74C492.549 82.7133 492.343 82.68 492.169 82.64V81.24C492.316 81.2667 492.489 81.2933 492.689 81.32C492.903 81.3467 493.123 81.36 493.349 81.36C493.963 81.36 494.456 81.1867 494.829 80.84C495.216 80.4933 495.516 80.0333 495.729 79.46L496.289 78.04L491.969 67.28ZM515.345 67.28V78H513.765V71.16C513.765 70.88 513.771 70.5867 513.785 70.28C513.811 69.9733 513.838 69.6733 513.865 69.38H513.805L510.305 78H508.825L505.425 69.38H505.365C505.405 69.98 505.425 70.5933 505.425 71.22V78H503.845V67.28H506.185L509.565 75.9L513.005 67.28H515.345ZM320.14 100.56C320.14 98.2133 320.493 96.3867 321.2 95.08C321.907 93.76 323.047 92.9333 324.62 92.6C325.487 92.4133 326.333 92.2467 327.16 92.1C327.987 91.9533 328.76 91.82 329.48 91.7L329.78 93.24C329.313 93.3067 328.787 93.3933 328.2 93.5C327.613 93.5933 327.033 93.6933 326.46 93.8C325.887 93.8933 325.393 93.9867 324.98 94.08C324.113 94.2667 323.427 94.72 322.92 95.44C322.413 96.1467 322.127 97.2533 322.06 98.76H322.18C322.367 98.5067 322.62 98.2467 322.94 97.98C323.273 97.7133 323.667 97.4867 324.12 97.3C324.587 97.1133 325.113 97.02 325.7 97.02C327.087 97.02 328.133 97.4667 328.84 98.36C329.547 99.2533 329.9 100.413 329.9 101.84C329.9 103.027 329.693 104.02 329.28 104.82C328.867 105.62 328.293 106.22 327.56 106.62C326.827 107.007 325.973 107.2 325 107.2C323.52 107.2 322.34 106.633 321.46 105.5C320.58 104.367 320.14 102.72 320.14 100.56ZM325.14 105.74C326.007 105.74 326.707 105.46 327.24 104.9C327.773 104.34 328.04 103.38 328.04 102.02C328.04 100.927 327.833 100.067 327.42 99.44C327.02 98.8 326.353 98.48 325.42 98.48C324.833 98.48 324.3 98.6133 323.82 98.88C323.34 99.1333 322.94 99.4267 322.62 99.76C322.3 100.093 322.073 100.373 321.94 100.6C321.94 101.253 321.987 101.887 322.08 102.5C322.173 103.113 322.333 103.667 322.56 104.16C322.8 104.64 323.127 105.027 323.54 105.32C323.967 105.6 324.5 105.74 325.14 105.74ZM341.993 101.62C341.993 103.393 341.539 104.767 340.633 105.74C339.739 106.713 338.526 107.2 336.993 107.2C336.046 107.2 335.199 106.987 334.453 106.56C333.719 106.12 333.139 105.487 332.713 104.66C332.286 103.82 332.073 102.807 332.073 101.62C332.073 99.8467 332.519 98.48 333.413 97.52C334.306 96.56 335.519 96.08 337.053 96.08C338.026 96.08 338.879 96.3 339.613 96.74C340.359 97.1667 340.939 97.7933 341.353 98.62C341.779 99.4333 341.993 100.433 341.993 101.62ZM333.893 101.62C333.893 102.887 334.139 103.893 334.633 104.64C335.139 105.373 335.939 105.74 337.033 105.74C338.113 105.74 338.906 105.373 339.413 104.64C339.919 103.893 340.173 102.887 340.173 101.62C340.173 100.353 339.919 99.36 339.413 98.64C338.906 97.92 338.106 97.56 337.013 97.56C335.919 97.56 335.126 97.92 334.633 98.64C334.139 99.36 333.893 100.353 333.893 101.62ZM346.542 96.28V100.74H352.362V96.28H354.122V107H352.362V102.22H346.542V107H344.782V96.28H346.542ZM355.836 96.28H357.716L360.036 102.38C360.236 102.913 360.416 103.427 360.576 103.92C360.736 104.4 360.856 104.86 360.936 105.3H361.016C361.096 104.967 361.223 104.533 361.396 104C361.57 103.453 361.75 102.907 361.936 102.36L364.116 96.28H366.016L361.396 108.48C361.023 109.493 360.536 110.3 359.936 110.9C359.35 111.5 358.536 111.8 357.496 111.8C357.176 111.8 356.896 111.78 356.656 111.74C356.416 111.713 356.21 111.68 356.036 111.64V110.24C356.183 110.267 356.356 110.293 356.556 110.32C356.77 110.347 356.99 110.36 357.216 110.36C357.83 110.36 358.323 110.187 358.696 109.84C359.083 109.493 359.383 109.033 359.596 108.46L360.156 107.04L355.836 96.28ZM372.012 107.2C371.065 107.2 370.218 107.007 369.472 106.62C368.738 106.233 368.158 105.633 367.732 104.82C367.318 104.007 367.112 102.967 367.112 101.7C367.112 100.38 367.332 99.3067 367.772 98.48C368.212 97.6533 368.805 97.0467 369.552 96.66C370.312 96.2733 371.172 96.08 372.132 96.08C372.678 96.08 373.205 96.14 373.712 96.26C374.218 96.3667 374.632 96.5 374.952 96.66L374.412 98.12C374.092 98 373.718 97.8867 373.292 97.78C372.865 97.6733 372.465 97.62 372.092 97.62C369.985 97.62 368.932 98.9733 368.932 101.68C368.932 102.973 369.185 103.967 369.692 104.66C370.212 105.34 370.978 105.68 371.992 105.68C372.578 105.68 373.092 105.62 373.532 105.5C373.985 105.38 374.398 105.233 374.772 105.06V106.62C374.412 106.807 374.012 106.947 373.572 107.04C373.145 107.147 372.625 107.2 372.012 107.2ZM386.641 101.62C386.641 103.393 386.188 104.767 385.281 105.74C384.388 106.713 383.174 107.2 381.641 107.2C380.694 107.2 379.848 106.987 379.101 106.56C378.368 106.12 377.788 105.487 377.361 104.66C376.934 103.82 376.721 102.807 376.721 101.62C376.721 99.8467 377.168 98.48 378.061 97.52C378.954 96.56 380.168 96.08 381.701 96.08C382.674 96.08 383.528 96.3 384.261 96.74C385.008 97.1667 385.588 97.7933 386.001 98.62C386.428 99.4333 386.641 100.433 386.641 101.62ZM378.541 101.62C378.541 102.887 378.788 103.893 379.281 104.64C379.788 105.373 380.588 105.74 381.681 105.74C382.761 105.74 383.554 105.373 384.061 104.64C384.568 103.893 384.821 102.887 384.821 101.62C384.821 100.353 384.568 99.36 384.061 98.64C383.554 97.92 382.754 97.56 381.661 97.56C380.568 97.56 379.774 97.92 379.281 98.64C378.788 99.36 378.541 100.353 378.541 101.62ZM398.05 98.98C398.05 99.6467 397.85 100.167 397.45 100.54C397.05 100.913 396.537 101.167 395.91 101.3V101.38C396.577 101.473 397.157 101.713 397.65 102.1C398.144 102.473 398.39 103.06 398.39 103.86C398.39 104.767 398.05 105.52 397.37 106.12C396.704 106.707 395.597 107 394.05 107H389.43V96.28H394.03C394.79 96.28 395.47 96.3667 396.07 96.54C396.684 96.7 397.164 96.98 397.51 97.38C397.87 97.7667 398.05 98.3 398.05 98.98ZM396.27 99.2C396.27 98.6933 396.084 98.3267 395.71 98.1C395.35 97.86 394.757 97.74 393.93 97.74H391.19V100.68H393.61C395.384 100.68 396.27 100.187 396.27 99.2ZM396.57 103.86C396.57 103.247 396.337 102.807 395.87 102.54C395.404 102.273 394.717 102.14 393.81 102.14H391.19V105.58H393.85C394.73 105.58 395.404 105.453 395.87 105.2C396.337 104.933 396.57 104.487 396.57 103.86ZM407.909 96.28V100.74H413.729V96.28H415.489V107H413.729V102.22H407.909V107H406.149V96.28H407.909ZM422.944 96.1C424.25 96.1 425.217 96.3867 425.844 96.96C426.47 97.5333 426.784 98.4467 426.784 99.7V107H425.504L425.164 105.48H425.084C424.617 106.067 424.124 106.5 423.604 106.78C423.097 107.06 422.39 107.2 421.484 107.2C420.51 107.2 419.704 106.947 419.064 106.44C418.424 105.92 418.104 105.113 418.104 104.02C418.104 102.953 418.524 102.133 419.364 101.56C420.204 100.973 421.497 100.653 423.244 100.6L425.064 100.54V99.9C425.064 99.0067 424.87 98.3867 424.484 98.04C424.097 97.6933 423.55 97.52 422.844 97.52C422.284 97.52 421.75 97.6067 421.244 97.78C420.737 97.94 420.264 98.1267 419.824 98.34L419.284 97.02C419.75 96.7667 420.304 96.5533 420.944 96.38C421.584 96.1933 422.25 96.1 422.944 96.1ZM423.464 101.82C422.13 101.873 421.204 102.087 420.684 102.46C420.177 102.833 419.924 103.36 419.924 104.04C419.924 104.64 420.104 105.08 420.464 105.36C420.837 105.64 421.31 105.78 421.884 105.78C422.79 105.78 423.544 105.533 424.144 105.04C424.744 104.533 425.044 103.76 425.044 102.72V101.76L423.464 101.82ZM439.59 107.2C438.643 107.2 437.797 107.007 437.05 106.62C436.317 106.233 435.737 105.633 435.31 104.82C434.897 104.007 434.69 102.967 434.69 101.7C434.69 100.38 434.91 99.3067 435.35 98.48C435.79 97.6533 436.383 97.0467 437.13 96.66C437.89 96.2733 438.75 96.08 439.71 96.08C440.257 96.08 440.783 96.14 441.29 96.26C441.797 96.3667 442.21 96.5 442.53 96.66L441.99 98.12C441.67 98 441.297 97.8867 440.87 97.78C440.443 97.6733 440.043 97.62 439.67 97.62C437.563 97.62 436.51 98.9733 436.51 101.68C436.51 102.973 436.763 103.967 437.27 104.66C437.79 105.34 438.557 105.68 439.57 105.68C440.157 105.68 440.67 105.62 441.11 105.5C441.563 105.38 441.977 105.233 442.35 105.06V106.62C441.99 106.807 441.59 106.947 441.15 107.04C440.723 107.147 440.203 107.2 439.59 107.2ZM453.519 98.98C453.519 99.6467 453.319 100.167 452.919 100.54C452.519 100.913 452.006 101.167 451.379 101.3V101.38C452.046 101.473 452.626 101.713 453.119 102.1C453.613 102.473 453.859 103.06 453.859 103.86C453.859 104.767 453.519 105.52 452.839 106.12C452.173 106.707 451.066 107 449.519 107H444.899V96.28H449.499C450.259 96.28 450.939 96.3667 451.539 96.54C452.153 96.7 452.633 96.98 452.979 97.38C453.339 97.7667 453.519 98.3 453.519 98.98ZM451.739 99.2C451.739 98.6933 451.553 98.3267 451.179 98.1C450.819 97.86 450.226 97.74 449.399 97.74H446.659V100.68H449.079C450.853 100.68 451.739 100.187 451.739 99.2ZM452.039 103.86C452.039 103.247 451.806 102.807 451.339 102.54C450.873 102.273 450.186 102.14 449.279 102.14H446.659V105.58H449.319C450.199 105.58 450.873 105.453 451.339 105.2C451.806 104.933 452.039 104.487 452.039 103.86ZM465.743 101.62C465.743 103.393 465.289 104.767 464.383 105.74C463.489 106.713 462.276 107.2 460.743 107.2C459.796 107.2 458.949 106.987 458.203 106.56C457.469 106.12 456.889 105.487 456.463 104.66C456.036 103.82 455.823 102.807 455.823 101.62C455.823 99.8467 456.269 98.48 457.163 97.52C458.056 96.56 459.269 96.08 460.803 96.08C461.776 96.08 462.629 96.3 463.363 96.74C464.109 97.1667 464.689 97.7933 465.103 98.62C465.529 99.4333 465.743 100.433 465.743 101.62ZM457.643 101.62C457.643 102.887 457.889 103.893 458.383 104.64C458.889 105.373 459.689 105.74 460.783 105.74C461.863 105.74 462.656 105.373 463.163 104.64C463.669 103.893 463.923 102.887 463.923 101.62C463.923 100.353 463.669 99.36 463.163 98.64C462.656 97.92 461.856 97.56 460.763 97.56C459.669 97.56 458.876 97.92 458.383 98.64C457.889 99.36 457.643 100.353 457.643 101.62ZM477.212 91.84C477.119 92.84 476.779 93.6 476.192 94.12C475.619 94.6267 474.699 94.88 473.432 94.88C472.125 94.88 471.199 94.6267 470.652 94.12C470.119 93.6133 469.819 92.8533 469.752 91.84H471.392C471.459 92.56 471.645 93.0467 471.952 93.3C472.272 93.54 472.779 93.66 473.472 93.66C474.085 93.66 474.565 93.5333 474.912 93.28C475.272 93.0133 475.485 92.5333 475.552 91.84H477.212ZM470.192 102.82C470.192 102.98 470.185 103.22 470.172 103.54C470.159 103.86 470.139 104.18 470.112 104.5C470.099 104.82 470.085 105.073 470.072 105.26L475.812 96.28H477.972V107H476.332V100.68C476.332 100.467 476.332 100.187 476.332 99.84C476.345 99.4933 476.359 99.1533 476.372 98.82C476.385 98.4733 476.399 98.2133 476.412 98.04L470.712 107H468.532V96.28H470.192V102.82ZM490.879 107.2C489.932 107.2 489.086 107.007 488.339 106.62C487.606 106.233 487.026 105.633 486.599 104.82C486.186 104.007 485.979 102.967 485.979 101.7C485.979 100.38 486.199 99.3067 486.639 98.48C487.079 97.6533 487.672 97.0467 488.419 96.66C489.179 96.2733 490.039 96.08 490.999 96.08C491.546 96.08 492.072 96.14 492.579 96.26C493.086 96.3667 493.499 96.5 493.819 96.66L493.279 98.12C492.959 98 492.586 97.8867 492.159 97.78C491.732 97.6733 491.332 97.62 490.959 97.62C488.852 97.62 487.799 98.9733 487.799 101.68C487.799 102.973 488.052 103.967 488.559 104.66C489.079 105.34 489.846 105.68 490.859 105.68C491.446 105.68 491.959 105.62 492.399 105.5C492.852 105.38 493.266 105.233 493.639 105.06V106.62C493.279 106.807 492.879 106.947 492.439 107.04C492.012 107.147 491.492 107.2 490.879 107.2ZM497.728 100.18C497.728 101.407 498.415 102.02 499.788 102.02C500.455 102.02 501.062 101.92 501.608 101.72C502.155 101.507 502.715 101.227 503.288 100.88V96.28H505.048V107H503.288V102.22C502.688 102.607 502.095 102.913 501.508 103.14C500.935 103.353 500.242 103.46 499.428 103.46C498.335 103.46 497.482 103.173 496.868 102.6C496.268 102.027 495.968 101.26 495.968 100.3V96.28H497.728V100.18ZM512.594 96.08C513.514 96.08 514.301 96.28 514.954 96.68C515.621 97.08 516.127 97.6467 516.474 98.38C516.834 99.1 517.014 99.9467 517.014 100.92V101.98H509.674C509.701 103.193 510.007 104.12 510.594 104.76C511.194 105.387 512.027 105.7 513.094 105.7C513.774 105.7 514.374 105.64 514.894 105.52C515.427 105.387 515.974 105.2 516.534 104.96V106.5C515.987 106.74 515.447 106.913 514.914 107.02C514.381 107.14 513.747 107.2 513.014 107.2C512.001 107.2 511.101 106.993 510.314 106.58C509.541 106.167 508.934 105.553 508.494 104.74C508.067 103.913 507.854 102.907 507.854 101.72C507.854 100.547 508.047 99.54 508.434 98.7C508.834 97.86 509.387 97.2133 510.094 96.76C510.814 96.3067 511.647 96.08 512.594 96.08ZM512.574 97.52C511.734 97.52 511.067 97.7933 510.574 98.34C510.094 98.8733 509.807 99.62 509.714 100.58H515.174C515.161 99.6733 514.947 98.94 514.534 98.38C514.121 97.8067 513.467 97.52 512.574 97.52ZM527.143 97.76H523.643V107H521.903V97.76H518.443V96.28H527.143V97.76ZM531.915 93.1L531.655 102.8H529.755L529.495 93.1H531.915ZM530.775 107.14C530.361 107.14 530.015 107 529.735 106.72C529.455 106.44 529.315 106.093 529.315 105.68C529.315 105.267 529.455 104.92 529.735 104.64C530.015 104.36 530.361 104.22 530.775 104.22C531.175 104.22 531.515 104.36 531.795 104.64C532.075 104.92 532.215 105.267 532.215 105.68C532.215 106.093 532.075 106.44 531.795 106.72C531.515 107 531.175 107.14 530.775 107.14Z" fill="#011948"/>
<path d="M905.067 77.4C903.174 77.4 901.48 77.0133 899.987 76.24C898.52 75.4667 897.36 74.2667 896.507 72.64C895.68 71.0133 895.267 68.9333 895.267 66.4C895.267 63.76 895.707 61.6133 896.587 59.96C897.467 58.3067 898.654 57.0933 900.147 56.32C901.667 55.5467 903.387 55.16 905.307 55.16C906.4 55.16 907.454 55.28 908.467 55.52C909.48 55.7333 910.307 56 910.947 56.32L909.867 59.24C909.227 59 908.48 58.7733 907.627 58.56C906.774 58.3467 905.974 58.24 905.227 58.24C901.014 58.24 898.907 60.9467 898.907 66.36C898.907 68.9467 899.414 70.9333 900.427 72.32C901.467 73.68 903 74.36 905.027 74.36C906.2 74.36 907.227 74.24 908.107 74C909.014 73.76 909.84 73.4667 910.587 73.12V76.24C909.867 76.6133 909.067 76.8933 908.187 77.08C907.334 77.2933 906.294 77.4 905.067 77.4ZM912.326 55.56H916.086L920.726 67.76C921.126 68.8267 921.486 69.8533 921.806 70.84C922.126 71.8 922.366 72.72 922.526 73.6H922.686C922.846 72.9333 923.099 72.0667 923.446 71C923.793 69.9067 924.153 68.8133 924.526 67.72L928.886 55.56H932.686L923.446 79.96C922.699 81.9867 921.726 83.6 920.526 84.8C919.353 86 917.726 86.6 915.646 86.6C915.006 86.6 914.446 86.56 913.966 86.48C913.486 86.4267 913.073 86.36 912.726 86.28V83.48C913.019 83.5333 913.366 83.5867 913.766 83.64C914.193 83.6933 914.633 83.72 915.086 83.72C916.313 83.72 917.299 83.3733 918.046 82.68C918.819 81.9867 919.419 81.0667 919.846 79.92L920.966 77.08L912.326 55.56ZM959.077 55.56V77H955.917V63.32C955.917 62.76 955.93 62.1733 955.957 61.56C956.01 60.9467 956.063 60.3467 956.117 59.76H955.997L948.997 77H946.037L939.237 59.76H939.117C939.197 60.96 939.237 62.1867 939.237 63.44V77H936.077V55.56H940.757L947.517 72.8L954.397 55.56H959.077Z" fill="white"/>
<path d="M692.026 47V39.26H706.486V83H697.846V47H692.026ZM714.784 60.56C714.784 53.64 716.024 48.22 718.504 44.3C721.024 40.38 725.184 38.42 730.984 38.42C736.784 38.42 740.924 40.38 743.404 44.3C745.924 48.22 747.184 53.64 747.184 60.56C747.184 67.52 745.924 72.98 743.404 76.94C740.924 80.9 736.784 82.88 730.984 82.88C725.184 82.88 721.024 80.9 718.504 76.94C716.024 72.98 714.784 67.52 714.784 60.56ZM738.904 60.56C738.904 57.6 738.704 55.12 738.304 53.12C737.944 51.08 737.184 49.42 736.024 48.14C734.904 46.86 733.224 46.22 730.984 46.22C728.744 46.22 727.044 46.86 725.884 48.14C724.764 49.42 724.004 51.08 723.604 53.12C723.244 55.12 723.064 57.6 723.064 60.56C723.064 63.6 723.244 66.16 723.604 68.24C723.964 70.28 724.724 71.94 725.884 73.22C727.044 74.46 728.744 75.08 730.984 75.08C733.224 75.08 734.924 74.46 736.084 73.22C737.244 71.94 738.004 70.28 738.364 68.24C738.724 66.16 738.904 63.6 738.904 60.56ZM767.87 60.56C767.87 53.64 769.11 48.22 771.59 44.3C774.11 40.38 778.27 38.42 784.07 38.42C789.87 38.42 794.01 40.38 796.49 44.3C799.01 48.22 800.27 53.64 800.27 60.56C800.27 67.52 799.01 72.98 796.49 76.94C794.01 80.9 789.87 82.88 784.07 82.88C778.27 82.88 774.11 80.9 771.59 76.94C769.11 72.98 767.87 67.52 767.87 60.56ZM791.99 60.56C791.99 57.6 791.79 55.12 791.39 53.12C791.03 51.08 790.27 49.42 789.11 48.14C787.99 46.86 786.31 46.22 784.07 46.22C781.83 46.22 780.13 46.86 778.97 48.14C777.85 49.42 777.09 51.08 776.69 53.12C776.33 55.12 776.15 57.6 776.15 60.56C776.15 63.6 776.33 66.16 776.69 68.24C777.05 70.28 777.81 71.94 778.97 73.22C780.13 74.46 781.83 75.08 784.07 75.08C786.31 75.08 788.01 74.46 789.17 73.22C790.33 71.94 791.09 70.28 791.45 68.24C791.81 66.16 791.99 63.6 791.99 60.56ZM806.659 60.56C806.659 53.64 807.899 48.22 810.379 44.3C812.899 40.38 817.059 38.42 822.859 38.42C828.659 38.42 832.799 40.38 835.279 44.3C837.799 48.22 839.059 53.64 839.059 60.56C839.059 67.52 837.799 72.98 835.279 76.94C832.799 80.9 828.659 82.88 822.859 82.88C817.059 82.88 812.899 80.9 810.379 76.94C807.899 72.98 806.659 67.52 806.659 60.56ZM830.779 60.56C830.779 57.6 830.579 55.12 830.179 53.12C829.819 51.08 829.059 49.42 827.899 48.14C826.779 46.86 825.099 46.22 822.859 46.22C820.619 46.22 818.919 46.86 817.759 48.14C816.639 49.42 815.879 51.08 815.479 53.12C815.119 55.12 814.939 57.6 814.939 60.56C814.939 63.6 815.119 66.16 815.479 68.24C815.839 70.28 816.599 71.94 817.759 73.22C818.919 74.46 820.619 75.08 822.859 75.08C825.099 75.08 826.799 74.46 827.959 73.22C829.119 71.94 829.879 70.28 830.239 68.24C830.599 66.16 830.779 63.6 830.779 60.56ZM845.448 60.56C845.448 53.64 846.688 48.22 849.168 44.3C851.688 40.38 855.848 38.42 861.648 38.42C867.448 38.42 871.588 40.38 874.068 44.3C876.588 48.22 877.848 53.64 877.848 60.56C877.848 67.52 876.588 72.98 874.068 76.94C871.588 80.9 867.448 82.88 861.648 82.88C855.848 82.88 851.688 80.9 849.168 76.94C846.688 72.98 845.448 67.52 845.448 60.56ZM869.568 60.56C869.568 57.6 869.368 55.12 868.968 53.12C868.608 51.08 867.848 49.42 866.688 48.14C865.568 46.86 863.888 46.22 861.648 46.22C859.408 46.22 857.708 46.86 856.548 48.14C855.428 49.42 854.668 51.08 854.268 53.12C853.908 55.12 853.728 57.6 853.728 60.56C853.728 63.6 853.908 66.16 854.268 68.24C854.628 70.28 855.388 71.94 856.548 73.22C857.708 74.46 859.408 75.08 861.648 75.08C863.888 75.08 865.588 74.46 866.748 73.22C867.908 71.94 868.668 70.28 869.028 68.24C869.388 66.16 869.568 63.6 869.568 60.56Z" fill="white"/>
<path d="M238.435 81.8421V96.5263H223.696V106.316H238.435V121H248.261V106.316H263V96.5263H248.261V81.8421H238.435ZM213.87 96.5263H159.826V47.5789L199.13 72.0526L238.435 47.5789V72.0526H248.261V37.7895C248.261 32.4053 243.839 28 238.435 28H159.826C154.422 28 150 32.4053 150 37.7895V96.5263C150 101.911 154.422 106.316 159.826 106.316H213.87V96.5263ZM238.435 37.7895L199.13 62.2632L159.826 37.7895H238.435Z" fill="#DEE2EC"/>
</g>
<rect x="1" y="1" width="1161" height="137" stroke="#917DFA" stroke-width="2"/>
<defs>
<clipPath id="clip0_18:1070">
</clipPath>
</defs>
</svg>
