<svg width="1163" height="139" viewBox="0 0 1163 139" fill="none" xmlns="http://www.w3.org/2000/svg">
<rect x="1" y="1" width="1161" height="137" fill="white"/>
<path d="M798.653 10.7658C729.353 21.976 694.125 54.1796 719.969 82.6937C728.954 92.608 744.151 100.767 763.058 106.725C766.104 111.199 770.097 122.211 745.67 132.235C745.67 132.235 786.534 129.285 798.83 114.715C827.918 118.983 860.868 119.093 892.229 114.018C961.526 102.806 996.752 70.6027 970.915 42.0901C945.073 13.5783 867.944 -0.446711 798.653 10.7658V10.7658Z" fill="#0DCC59"/>
<path d="M351.94 63V48.72H362.66V63H360.88V50.3H353.74V63H351.94ZM375.649 57.62C375.649 59.3933 375.196 60.7667 374.289 61.74C373.396 62.7133 372.182 63.2 370.649 63.2C369.702 63.2 368.856 62.9867 368.109 62.56C367.376 62.12 366.796 61.4867 366.369 60.66C365.942 59.82 365.729 58.8067 365.729 57.62C365.729 55.8467 366.176 54.48 367.069 53.52C367.962 52.56 369.176 52.08 370.709 52.08C371.682 52.08 372.536 52.3 373.269 52.74C374.016 53.1667 374.596 53.7933 375.009 54.62C375.436 55.4333 375.649 56.4333 375.649 57.62ZM367.549 57.62C367.549 58.8867 367.796 59.8933 368.289 60.64C368.796 61.3733 369.596 61.74 370.689 61.74C371.769 61.74 372.562 61.3733 373.069 60.64C373.576 59.8933 373.829 58.8867 373.829 57.62C373.829 56.3533 373.576 55.36 373.069 54.64C372.562 53.92 371.762 53.56 370.669 53.56C369.576 53.56 368.782 53.92 368.289 54.64C367.796 55.36 367.549 56.3533 367.549 57.62ZM387.498 52.28V63H385.738V53.78H380.198V63H378.438V52.28H387.498ZM400.239 57.62C400.239 59.3933 399.785 60.7667 398.879 61.74C397.985 62.7133 396.772 63.2 395.239 63.2C394.292 63.2 393.445 62.9867 392.699 62.56C391.965 62.12 391.385 61.4867 390.959 60.66C390.532 59.82 390.319 58.8067 390.319 57.62C390.319 55.8467 390.765 54.48 391.659 53.52C392.552 52.56 393.765 52.08 395.299 52.08C396.272 52.08 397.125 52.3 397.859 52.74C398.605 53.1667 399.185 53.7933 399.599 54.62C400.025 55.4333 400.239 56.4333 400.239 57.62ZM392.139 57.62C392.139 58.8867 392.385 59.8933 392.879 60.64C393.385 61.3733 394.185 61.74 395.279 61.74C396.359 61.74 397.152 61.3733 397.659 60.64C398.165 59.8933 398.419 58.8867 398.419 57.62C398.419 56.3533 398.165 55.36 397.659 54.64C397.152 53.92 396.352 53.56 395.259 53.56C394.165 53.56 393.372 53.92 392.879 54.64C392.385 55.36 392.139 56.3533 392.139 57.62ZM411.188 63H409.408V53.74H406.248C406.075 55.9933 405.835 57.8133 405.528 59.2C405.221 60.5733 404.815 61.5733 404.308 62.2C403.801 62.8267 403.161 63.14 402.388 63.14C402.215 63.14 402.041 63.1267 401.868 63.1C401.708 63.0867 401.575 63.0533 401.468 63V61.68C401.548 61.7067 401.635 61.7267 401.728 61.74C401.821 61.7533 401.915 61.76 402.008 61.76C402.728 61.76 403.301 60.9933 403.728 59.46C404.168 57.9267 404.501 55.5333 404.728 52.28H411.188V63ZM416.351 52.28V56.74H422.171V52.28H423.931V63H422.171V58.22H416.351V63H414.591V52.28H416.351ZM428.985 58.82C428.985 58.98 428.978 59.22 428.965 59.54C428.952 59.86 428.932 60.18 428.905 60.5C428.892 60.82 428.878 61.0733 428.865 61.26L434.605 52.28H436.765V63H435.125V56.68C435.125 56.4667 435.125 56.1867 435.125 55.84C435.138 55.4933 435.152 55.1533 435.165 54.82C435.178 54.4733 435.192 54.2133 435.205 54.04L429.505 63H427.325V52.28H428.985V58.82ZM449.672 63.2C448.725 63.2 447.879 63.0067 447.132 62.62C446.399 62.2333 445.819 61.6333 445.392 60.82C444.979 60.0067 444.772 58.9667 444.772 57.7C444.772 56.38 444.992 55.3067 445.432 54.48C445.872 53.6533 446.465 53.0467 447.212 52.66C447.972 52.2733 448.832 52.08 449.792 52.08C450.339 52.08 450.865 52.14 451.372 52.26C451.879 52.3667 452.292 52.5 452.612 52.66L452.072 54.12C451.752 54 451.379 53.8867 450.952 53.78C450.525 53.6733 450.125 53.62 449.752 53.62C447.645 53.62 446.592 54.9733 446.592 57.68C446.592 58.9733 446.845 59.9667 447.352 60.66C447.872 61.34 448.639 61.68 449.652 61.68C450.239 61.68 450.752 61.62 451.192 61.5C451.645 61.38 452.059 61.2333 452.432 61.06V62.62C452.072 62.8067 451.672 62.9467 451.232 63.04C450.805 63.1467 450.285 63.2 449.672 63.2ZM456.521 56.18C456.521 57.4067 457.208 58.02 458.581 58.02C459.248 58.02 459.855 57.92 460.401 57.72C460.948 57.5067 461.508 57.2267 462.081 56.88V52.28H463.841V63H462.081V58.22C461.481 58.6067 460.888 58.9133 460.301 59.14C459.728 59.3533 459.035 59.46 458.221 59.46C457.128 59.46 456.275 59.1733 455.661 58.6C455.061 58.0267 454.761 57.26 454.761 56.3V52.28H456.521V56.18ZM471.387 52.08C472.307 52.08 473.094 52.28 473.747 52.68C474.414 53.08 474.92 53.6467 475.267 54.38C475.627 55.1 475.807 55.9467 475.807 56.92V57.98H468.467C468.494 59.1933 468.8 60.12 469.387 60.76C469.987 61.3867 470.82 61.7 471.887 61.7C472.567 61.7 473.167 61.64 473.687 61.52C474.22 61.3867 474.767 61.2 475.327 60.96V62.5C474.78 62.74 474.24 62.9133 473.707 63.02C473.174 63.14 472.54 63.2 471.807 63.2C470.794 63.2 469.894 62.9933 469.107 62.58C468.334 62.1667 467.727 61.5533 467.287 60.74C466.86 59.9133 466.647 58.9067 466.647 57.72C466.647 56.5467 466.84 55.54 467.227 54.7C467.627 53.86 468.18 53.2133 468.887 52.76C469.607 52.3067 470.44 52.08 471.387 52.08ZM471.367 53.52C470.527 53.52 469.86 53.7933 469.367 54.34C468.887 54.8733 468.6 55.62 468.507 56.58H473.967C473.954 55.6733 473.74 54.94 473.327 54.38C472.914 53.8067 472.26 53.52 471.367 53.52ZM485.936 53.76H482.436V63H480.696V53.76H477.236V52.28H485.936V53.76ZM495.003 52.28V56.74H500.823V52.28H502.583V63H500.823V58.22H495.003V63H493.243V52.28H495.003ZM510.037 52.1C511.344 52.1 512.311 52.3867 512.937 52.96C513.564 53.5333 513.877 54.4467 513.877 55.7V63H512.597L512.257 61.48H512.177C511.711 62.0667 511.217 62.5 510.697 62.78C510.191 63.06 509.484 63.2 508.577 63.2C507.604 63.2 506.797 62.9467 506.157 62.44C505.517 61.92 505.197 61.1133 505.197 60.02C505.197 58.9533 505.617 58.1333 506.457 57.56C507.297 56.9733 508.591 56.6533 510.337 56.6L512.157 56.54V55.9C512.157 55.0067 511.964 54.3867 511.577 54.04C511.191 53.6933 510.644 53.52 509.937 53.52C509.377 53.52 508.844 53.6067 508.337 53.78C507.831 53.94 507.357 54.1267 506.917 54.34L506.377 53.02C506.844 52.7667 507.397 52.5533 508.037 52.38C508.677 52.1933 509.344 52.1 510.037 52.1ZM510.557 57.82C509.224 57.8733 508.297 58.0867 507.777 58.46C507.271 58.8333 507.017 59.36 507.017 60.04C507.017 60.64 507.197 61.08 507.557 61.36C507.931 61.64 508.404 61.78 508.977 61.78C509.884 61.78 510.637 61.5333 511.237 61.04C511.837 60.5333 512.137 59.76 512.137 58.72V57.76L510.557 57.82ZM530.544 63H528.764V53.74H525.604C525.43 55.9933 525.19 57.8133 524.884 59.2C524.577 60.5733 524.17 61.5733 523.664 62.2C523.157 62.8267 522.517 63.14 521.744 63.14C521.57 63.14 521.397 63.1267 521.224 63.1C521.064 63.0867 520.93 63.0533 520.824 63V61.68C520.904 61.7067 520.99 61.7267 521.084 61.74C521.177 61.7533 521.27 61.76 521.364 61.76C522.084 61.76 522.657 60.9933 523.084 59.46C523.524 57.9267 523.857 55.5333 524.084 52.28H530.544V63ZM547.866 57.62C547.866 59.3933 547.439 60.7667 546.586 61.74C545.733 62.7133 544.579 63.2 543.126 63.2C541.766 63.2 540.666 62.7733 539.826 61.92C538.999 61.0667 538.533 59.8333 538.426 58.22H535.706V63H533.946V52.28H535.706V56.74H538.446C538.593 55.2333 539.079 54.08 539.906 53.28C540.733 52.48 541.819 52.08 543.166 52.08C544.086 52.08 544.899 52.3 545.606 52.74C546.313 53.1667 546.866 53.7933 547.266 54.62C547.666 55.4333 547.866 56.4333 547.866 57.62ZM540.226 57.62C540.226 58.9667 540.459 59.9933 540.926 60.7C541.393 61.3933 542.133 61.74 543.146 61.74C544.173 61.74 544.913 61.3933 545.366 60.7C545.819 59.9933 546.046 58.9667 546.046 57.62C546.046 56.2733 545.813 55.26 545.346 54.58C544.893 53.9 544.159 53.56 543.146 53.56C542.133 53.56 541.393 53.9 540.926 54.58C540.459 55.26 540.226 56.2733 540.226 57.62ZM550.105 56.56C550.105 54.2133 550.458 52.3867 551.165 51.08C551.872 49.76 553.012 48.9333 554.585 48.6C555.452 48.4133 556.298 48.2467 557.125 48.1C557.952 47.9533 558.725 47.82 559.445 47.7L559.745 49.24C559.278 49.3067 558.752 49.3933 558.165 49.5C557.578 49.5933 556.998 49.6933 556.425 49.8C555.852 49.8933 555.358 49.9867 554.945 50.08C554.078 50.2667 553.392 50.72 552.885 51.44C552.378 52.1467 552.092 53.2533 552.025 54.76H552.145C552.332 54.5067 552.585 54.2467 552.905 53.98C553.238 53.7133 553.632 53.4867 554.085 53.3C554.552 53.1133 555.078 53.02 555.665 53.02C557.052 53.02 558.098 53.4667 558.805 54.36C559.512 55.2533 559.865 56.4133 559.865 57.84C559.865 59.0267 559.658 60.02 559.245 60.82C558.832 61.62 558.258 62.22 557.525 62.62C556.792 63.0067 555.938 63.2 554.965 63.2C553.485 63.2 552.305 62.6333 551.425 61.5C550.545 60.3667 550.105 58.72 550.105 56.56ZM555.105 61.74C555.972 61.74 556.672 61.46 557.205 60.9C557.738 60.34 558.005 59.38 558.005 58.02C558.005 56.9267 557.798 56.0667 557.385 55.44C556.985 54.8 556.318 54.48 555.385 54.48C554.798 54.48 554.265 54.6133 553.785 54.88C553.305 55.1333 552.905 55.4267 552.585 55.76C552.265 56.0933 552.038 56.3733 551.905 56.6C551.905 57.2533 551.952 57.8867 552.045 58.5C552.138 59.1133 552.298 59.6667 552.525 60.16C552.765 60.64 553.092 61.0267 553.505 61.32C553.932 61.6 554.465 61.74 555.105 61.74ZM560.958 52.28H562.838L565.158 58.38C565.358 58.9133 565.538 59.4267 565.698 59.92C565.858 60.4 565.978 60.86 566.058 61.3H566.138C566.218 60.9667 566.344 60.5333 566.518 60C566.691 59.4533 566.871 58.9067 567.058 58.36L569.238 52.28H571.138L566.518 64.48C566.144 65.4933 565.658 66.3 565.058 66.9C564.471 67.5 563.658 67.8 562.618 67.8C562.298 67.8 562.018 67.78 561.778 67.74C561.538 67.7133 561.331 67.68 561.158 67.64V66.24C561.304 66.2667 561.478 66.2933 561.678 66.32C561.891 66.3467 562.111 66.36 562.338 66.36C562.951 66.36 563.444 66.1867 563.818 65.84C564.204 65.4933 564.504 65.0333 564.718 64.46L565.278 63.04L560.958 52.28ZM586.753 57.62C586.753 59.3933 586.326 60.7667 585.473 61.74C584.619 62.7133 583.466 63.2 582.013 63.2C580.653 63.2 579.553 62.7733 578.713 61.92C577.886 61.0667 577.419 59.8333 577.313 58.22H574.593V63H572.833V52.28H574.593V56.74H577.333C577.479 55.2333 577.966 54.08 578.793 53.28C579.619 52.48 580.706 52.08 582.053 52.08C582.973 52.08 583.786 52.3 584.493 52.74C585.199 53.1667 585.753 53.7933 586.153 54.62C586.553 55.4333 586.753 56.4333 586.753 57.62ZM579.113 57.62C579.113 58.9667 579.346 59.9933 579.813 60.7C580.279 61.3933 581.019 61.74 582.033 61.74C583.059 61.74 583.799 61.3933 584.253 60.7C584.706 59.9933 584.933 58.9667 584.933 57.62C584.933 56.2733 584.699 55.26 584.233 54.58C583.779 53.9 583.046 53.56 582.033 53.56C581.019 53.56 580.279 53.9 579.813 54.58C579.346 55.26 579.113 56.2733 579.113 57.62ZM356 92.2C355.053 92.2 354.207 92.0067 353.46 91.62C352.727 91.2333 352.147 90.6333 351.72 89.82C351.307 89.0067 351.1 87.9667 351.1 86.7C351.1 85.38 351.32 84.3067 351.76 83.48C352.2 82.6533 352.793 82.0467 353.54 81.66C354.3 81.2733 355.16 81.08 356.12 81.08C356.667 81.08 357.193 81.14 357.7 81.26C358.207 81.3667 358.62 81.5 358.94 81.66L358.4 83.12C358.08 83 357.707 82.8867 357.28 82.78C356.853 82.6733 356.453 82.62 356.08 82.62C353.973 82.62 352.92 83.9733 352.92 86.68C352.92 87.9733 353.173 88.9667 353.68 89.66C354.2 90.34 354.967 90.68 355.98 90.68C356.567 90.68 357.08 90.62 357.52 90.5C357.973 90.38 358.387 90.2333 358.76 90.06V91.62C358.4 91.8067 358 91.9467 357.56 92.04C357.133 92.1467 356.613 92.2 356 92.2ZM359.629 81.28H361.509L363.829 87.38C364.029 87.9133 364.209 88.4267 364.369 88.92C364.529 89.4 364.649 89.86 364.729 90.3H364.809C364.889 89.9667 365.016 89.5333 365.189 89C365.363 88.4533 365.543 87.9067 365.729 87.36L367.909 81.28H369.809L365.189 93.48C364.816 94.4933 364.329 95.3 363.729 95.9C363.143 96.5 362.329 96.8 361.289 96.8C360.969 96.8 360.689 96.78 360.449 96.74C360.209 96.7133 360.003 96.68 359.829 96.64V95.24C359.976 95.2667 360.149 95.2933 360.349 95.32C360.563 95.3467 360.783 95.36 361.009 95.36C361.623 95.36 362.116 95.1867 362.489 94.84C362.876 94.4933 363.176 94.0333 363.389 93.46L363.949 92.04L359.629 81.28ZM383.005 81.28V92H381.425V85.16C381.425 84.88 381.431 84.5867 381.445 84.28C381.471 83.9733 381.498 83.6733 381.525 83.38H381.465L377.965 92H376.485L373.085 83.38H373.025C373.065 83.98 373.085 84.5933 373.085 85.22V92H371.505V81.28H373.845L377.225 89.9L380.665 81.28H383.005ZM397.927 81.28V92H396.347V85.16C396.347 84.88 396.353 84.5867 396.367 84.28C396.393 83.9733 396.42 83.6733 396.447 83.38H396.387L392.887 92H391.407L388.007 83.38H387.947C387.987 83.98 388.007 84.5933 388.007 85.22V92H386.427V81.28H388.767L392.147 89.9L395.587 81.28H397.927ZM399.668 81.28H401.548L403.868 87.38C404.068 87.9133 404.248 88.4267 404.408 88.92C404.568 89.4 404.688 89.86 404.768 90.3H404.848C404.928 89.9667 405.055 89.5333 405.228 89C405.402 88.4533 405.582 87.9067 405.768 87.36L407.948 81.28H409.848L405.228 93.48C404.855 94.4933 404.368 95.3 403.768 95.9C403.182 96.5 402.368 96.8 401.328 96.8C401.008 96.8 400.728 96.78 400.488 96.74C400.248 96.7133 400.042 96.68 399.868 96.64V95.24C400.015 95.2667 400.188 95.2933 400.388 95.32C400.602 95.3467 400.822 95.36 401.048 95.36C401.662 95.36 402.155 95.1867 402.528 94.84C402.915 94.4933 403.215 94.0333 403.428 93.46L403.988 92.04L399.668 81.28ZM418.399 87.82C418.399 87.98 418.392 88.22 418.379 88.54C418.366 88.86 418.346 89.18 418.319 89.5C418.306 89.82 418.292 90.0733 418.279 90.26L424.019 81.28H426.179V92H424.539V85.68C424.539 85.4667 424.539 85.1867 424.539 84.84C424.552 84.4933 424.566 84.1533 424.579 83.82C424.592 83.4733 424.606 83.2133 424.619 83.04L418.919 92H416.739V81.28H418.399V87.82ZM443.846 81.28V92H442.086V82.78H436.546V92H434.786V81.28H443.846ZM456.586 86.62C456.586 88.3933 456.133 89.7667 455.226 90.74C454.333 91.7133 453.12 92.2 451.586 92.2C450.64 92.2 449.793 91.9867 449.046 91.56C448.313 91.12 447.733 90.4867 447.306 89.66C446.88 88.82 446.666 87.8067 446.666 86.62C446.666 84.8467 447.113 83.48 448.006 82.52C448.9 81.56 450.113 81.08 451.646 81.08C452.62 81.08 453.473 81.3 454.206 81.74C454.953 82.1667 455.533 82.7933 455.946 83.62C456.373 84.4333 456.586 85.4333 456.586 86.62ZM448.486 86.62C448.486 87.8867 448.733 88.8933 449.226 89.64C449.733 90.3733 450.533 90.74 451.626 90.74C452.706 90.74 453.5 90.3733 454.006 89.64C454.513 88.8933 454.766 87.8867 454.766 86.62C454.766 85.3533 454.513 84.36 454.006 83.64C453.5 82.92 452.7 82.56 451.606 82.56C450.513 82.56 449.72 82.92 449.226 83.64C448.733 84.36 448.486 85.3533 448.486 86.62ZM467.536 92H465.756V82.74H462.596C462.422 84.9933 462.182 86.8133 461.876 88.2C461.569 89.5733 461.162 90.5733 460.656 91.2C460.149 91.8267 459.509 92.14 458.736 92.14C458.562 92.14 458.389 92.1267 458.216 92.1C458.056 92.0867 457.922 92.0533 457.816 92V90.68C457.896 90.7067 457.982 90.7267 458.076 90.74C458.169 90.7533 458.262 90.76 458.356 90.76C459.076 90.76 459.649 89.9933 460.076 88.46C460.516 86.9267 460.849 84.5333 461.076 81.28H467.536V92ZM469.258 81.28H471.138L473.458 87.38C473.658 87.9133 473.838 88.4267 473.998 88.92C474.158 89.4 474.278 89.86 474.358 90.3H474.438C474.518 89.9667 474.645 89.5333 474.818 89C474.992 88.4533 475.172 87.9067 475.358 87.36L477.538 81.28H479.438L474.818 93.48C474.445 94.4933 473.958 95.3 473.358 95.9C472.772 96.5 471.958 96.8 470.918 96.8C470.598 96.8 470.318 96.78 470.078 96.74C469.838 96.7133 469.632 96.68 469.458 96.64V95.24C469.605 95.2667 469.778 95.2933 469.978 95.32C470.192 95.3467 470.412 95.36 470.638 95.36C471.252 95.36 471.745 95.1867 472.118 94.84C472.505 94.4933 472.805 94.0333 473.018 93.46L473.578 92.04L469.258 81.28ZM482.674 85.18C482.674 86.4067 483.36 87.02 484.734 87.02C485.4 87.02 486.007 86.92 486.554 86.72C487.1 86.5067 487.66 86.2267 488.234 85.88V81.28H489.994V92H488.234V87.22C487.634 87.6067 487.04 87.9133 486.454 88.14C485.88 88.3533 485.187 88.46 484.374 88.46C483.28 88.46 482.427 88.1733 481.814 87.6C481.214 87.0267 480.914 86.26 480.914 85.3V81.28H482.674V85.18ZM495.059 87.82C495.059 87.98 495.053 88.22 495.039 88.54C495.026 88.86 495.006 89.18 494.979 89.5C494.966 89.82 494.953 90.0733 494.939 90.26L500.679 81.28H502.839V92H501.199V85.68C501.199 85.4667 501.199 85.1867 501.199 84.84C501.213 84.4933 501.226 84.1533 501.239 83.82C501.253 83.4733 501.266 83.2133 501.279 83.04L495.579 92H493.399V81.28H495.059V87.82ZM521.986 85.74H517.946V89.88H515.826V85.74H511.786V83.82H515.826V79.68H517.946V83.82H521.986V85.74ZM526.483 88.9C527.763 87.7933 528.77 86.8867 529.503 86.18C530.25 85.46 530.87 84.7133 531.363 83.94C531.857 83.1667 532.103 82.3933 532.103 81.62C532.103 80.82 531.91 80.1933 531.523 79.74C531.15 79.2867 530.557 79.06 529.743 79.06C528.957 79.06 528.343 79.3133 527.903 79.82C527.477 80.3133 527.25 80.98 527.223 81.82H525.023C525.063 80.3 525.517 79.14 526.383 78.34C527.263 77.5267 528.377 77.12 529.723 77.12C531.177 77.12 532.31 77.52 533.123 78.32C533.95 79.12 534.363 80.1867 534.363 81.52C534.363 82.48 534.117 83.4067 533.623 84.3C533.143 85.18 532.563 85.9733 531.883 86.68C531.217 87.3733 530.363 88.18 529.323 89.1L528.423 89.9H534.763V91.8H525.043V90.14L526.483 88.9ZM536.766 84.52C536.766 82.2133 537.153 80.4133 537.926 79.12C538.713 77.8133 540.06 77.16 541.966 77.16C543.873 77.16 545.213 77.8133 545.986 79.12C546.773 80.4133 547.166 82.2133 547.166 84.52C547.166 86.8533 546.773 88.68 545.986 90C545.213 91.3067 543.873 91.96 541.966 91.96C540.06 91.96 538.713 91.3067 537.926 90C537.153 88.68 536.766 86.8533 536.766 84.52ZM544.926 84.52C544.926 83.44 544.853 82.5267 544.706 81.78C544.573 81.0333 544.293 80.4267 543.866 79.96C543.44 79.48 542.806 79.24 541.966 79.24C541.126 79.24 540.493 79.48 540.066 79.96C539.64 80.4267 539.353 81.0333 539.206 81.78C539.073 82.5267 539.006 83.44 539.006 84.52C539.006 85.64 539.073 86.58 539.206 87.34C539.34 88.1 539.62 88.7133 540.046 89.18C540.486 89.6467 541.126 89.88 541.966 89.88C542.806 89.88 543.44 89.6467 543.866 89.18C544.306 88.7133 544.593 88.1 544.726 87.34C544.86 86.58 544.926 85.64 544.926 84.52ZM549.219 80.94C549.219 79.9667 549.499 79.2067 550.059 78.66C550.632 78.1 551.366 77.82 552.259 77.82C553.152 77.82 553.879 78.1 554.439 78.66C555.012 79.2067 555.299 79.9667 555.299 80.94C555.299 81.9133 555.012 82.68 554.439 83.24C553.879 83.8 553.152 84.08 552.259 84.08C551.366 84.08 550.632 83.8 550.059 83.24C549.499 82.68 549.219 81.9133 549.219 80.94ZM561.419 78.08L553.439 92H551.199L559.179 78.08H561.419ZM552.259 79.2C551.419 79.2 550.999 79.78 550.999 80.94C550.999 82.1133 551.419 82.7 552.259 82.7C552.659 82.7 552.966 82.56 553.179 82.28C553.406 81.9867 553.519 81.54 553.519 80.94C553.519 79.78 553.099 79.2 552.259 79.2ZM557.359 89.12C557.359 88.1467 557.639 87.3867 558.199 86.84C558.772 86.28 559.506 86 560.399 86C561.279 86 561.999 86.28 562.559 86.84C563.132 87.3867 563.419 88.1467 563.419 89.12C563.419 90.0933 563.132 90.86 562.559 91.42C561.999 91.98 561.279 92.26 560.399 92.26C559.506 92.26 558.772 91.98 558.199 91.42C557.639 90.86 557.359 90.0933 557.359 89.12ZM560.379 87.38C559.539 87.38 559.119 87.96 559.119 89.12C559.119 90.28 559.539 90.86 560.379 90.86C561.219 90.86 561.639 90.28 561.639 89.12C561.639 87.96 561.219 87.38 560.379 87.38ZM570.593 85.56C570.593 83.2133 570.946 81.3867 571.653 80.08C572.36 78.76 573.5 77.9333 575.073 77.6C575.94 77.4133 576.786 77.2467 577.613 77.1C578.44 76.9533 579.213 76.82 579.933 76.7L580.233 78.24C579.766 78.3067 579.24 78.3933 578.653 78.5C578.066 78.5933 577.486 78.6933 576.913 78.8C576.34 78.8933 575.846 78.9867 575.433 79.08C574.566 79.2667 573.88 79.72 573.373 80.44C572.866 81.1467 572.58 82.2533 572.513 83.76H572.633C572.82 83.5067 573.073 83.2467 573.393 82.98C573.726 82.7133 574.12 82.4867 574.573 82.3C575.04 82.1133 575.566 82.02 576.153 82.02C577.54 82.02 578.586 82.4667 579.293 83.36C580 84.2533 580.353 85.4133 580.353 86.84C580.353 88.0267 580.146 89.02 579.733 89.82C579.32 90.62 578.746 91.22 578.013 91.62C577.28 92.0067 576.426 92.2 575.453 92.2C573.973 92.2 572.793 91.6333 571.913 90.5C571.033 89.3667 570.593 87.72 570.593 85.56ZM575.593 90.74C576.46 90.74 577.16 90.46 577.693 89.9C578.226 89.34 578.493 88.38 578.493 87.02C578.493 85.9267 578.286 85.0667 577.873 84.44C577.473 83.8 576.806 83.48 575.873 83.48C575.286 83.48 574.753 83.6133 574.273 83.88C573.793 84.1333 573.393 84.4267 573.073 84.76C572.753 85.0933 572.526 85.3733 572.393 85.6C572.393 86.2533 572.44 86.8867 572.533 87.5C572.626 88.1133 572.786 88.6667 573.013 89.16C573.253 89.64 573.58 90.0267 573.993 90.32C574.42 90.6 574.953 90.74 575.593 90.74ZM592.446 86.62C592.446 88.3933 591.992 89.7667 591.086 90.74C590.192 91.7133 588.979 92.2 587.446 92.2C586.499 92.2 585.652 91.9867 584.906 91.56C584.172 91.12 583.592 90.4867 583.166 89.66C582.739 88.82 582.526 87.8067 582.526 86.62C582.526 84.8467 582.972 83.48 583.866 82.52C584.759 81.56 585.972 81.08 587.506 81.08C588.479 81.08 589.332 81.3 590.066 81.74C590.812 82.1667 591.392 82.7933 591.806 83.62C592.232 84.4333 592.446 85.4333 592.446 86.62ZM584.346 86.62C584.346 87.8867 584.592 88.8933 585.086 89.64C585.592 90.3733 586.392 90.74 587.486 90.74C588.566 90.74 589.359 90.3733 589.866 89.64C590.372 88.8933 590.626 87.8867 590.626 86.62C590.626 85.3533 590.372 84.36 589.866 83.64C589.359 82.92 588.559 82.56 587.466 82.56C586.372 82.56 585.579 82.92 585.086 83.64C584.592 84.36 584.346 85.3533 584.346 86.62ZM596.995 81.28V85.74H602.815V81.28H604.575V92H602.815V87.22H596.995V92H595.235V81.28H596.995ZM606.29 81.28H608.17L610.49 87.38C610.69 87.9133 610.87 88.4267 611.03 88.92C611.19 89.4 611.31 89.86 611.39 90.3H611.47C611.55 89.9667 611.676 89.5333 611.85 89C612.023 88.4533 612.203 87.9067 612.39 87.36L614.57 81.28H616.47L611.85 93.48C611.476 94.4933 610.99 95.3 610.39 95.9C609.803 96.5 608.99 96.8 607.95 96.8C607.63 96.8 607.35 96.78 607.11 96.74C606.87 96.7133 606.663 96.68 606.49 96.64V95.24C606.636 95.2667 606.81 95.2933 607.01 95.32C607.223 95.3467 607.443 95.36 607.67 95.36C608.283 95.36 608.776 95.1867 609.15 94.84C609.536 94.4933 609.836 94.0333 610.05 93.46L610.61 92.04L606.29 81.28ZM622.465 92.2C621.518 92.2 620.672 92.0067 619.925 91.62C619.192 91.2333 618.612 90.6333 618.185 89.82C617.772 89.0067 617.565 87.9667 617.565 86.7C617.565 85.38 617.785 84.3067 618.225 83.48C618.665 82.6533 619.258 82.0467 620.005 81.66C620.765 81.2733 621.625 81.08 622.585 81.08C623.132 81.08 623.658 81.14 624.165 81.26C624.672 81.3667 625.085 81.5 625.405 81.66L624.865 83.12C624.545 83 624.172 82.8867 623.745 82.78C623.318 82.6733 622.918 82.62 622.545 82.62C620.438 82.62 619.385 83.9733 619.385 86.68C619.385 87.9733 619.638 88.9667 620.145 89.66C620.665 90.34 621.432 90.68 622.445 90.68C623.032 90.68 623.545 90.62 623.985 90.5C624.438 90.38 624.852 90.2333 625.225 90.06V91.62C624.865 91.8067 624.465 91.9467 624.025 92.04C623.598 92.1467 623.078 92.2 622.465 92.2ZM637.094 86.62C637.094 88.3933 636.641 89.7667 635.734 90.74C634.841 91.7133 633.628 92.2 632.094 92.2C631.148 92.2 630.301 91.9867 629.554 91.56C628.821 91.12 628.241 90.4867 627.814 89.66C627.388 88.82 627.174 87.8067 627.174 86.62C627.174 84.8467 627.621 83.48 628.514 82.52C629.408 81.56 630.621 81.08 632.154 81.08C633.128 81.08 633.981 81.3 634.714 81.74C635.461 82.1667 636.041 82.7933 636.454 83.62C636.881 84.4333 637.094 85.4333 637.094 86.62ZM628.994 86.62C628.994 87.8867 629.241 88.8933 629.734 89.64C630.241 90.3733 631.041 90.74 632.134 90.74C633.214 90.74 634.008 90.3733 634.514 89.64C635.021 88.8933 635.274 87.8867 635.274 86.62C635.274 85.3533 635.021 84.36 634.514 83.64C634.008 82.92 633.208 82.56 632.114 82.56C631.021 82.56 630.228 82.92 629.734 83.64C629.241 84.36 628.994 85.3533 628.994 86.62ZM648.504 83.98C648.504 84.6467 648.304 85.1667 647.904 85.54C647.504 85.9133 646.99 86.1667 646.364 86.3V86.38C647.03 86.4733 647.61 86.7133 648.104 87.1C648.597 87.4733 648.844 88.06 648.844 88.86C648.844 89.7667 648.504 90.52 647.824 91.12C647.157 91.7067 646.05 92 644.504 92H639.884V81.28H644.484C645.244 81.28 645.924 81.3667 646.524 81.54C647.137 81.7 647.617 81.98 647.964 82.38C648.324 82.7667 648.504 83.3 648.504 83.98ZM646.724 84.2C646.724 83.6933 646.537 83.3267 646.164 83.1C645.804 82.86 645.21 82.74 644.384 82.74H641.644V85.68H644.064C645.837 85.68 646.724 85.1867 646.724 84.2ZM647.024 88.86C647.024 88.2467 646.79 87.8067 646.324 87.54C645.857 87.2733 645.17 87.14 644.264 87.14H641.644V90.58H644.304C645.184 90.58 645.857 90.4533 646.324 90.2C646.79 89.9333 647.024 89.4867 647.024 88.86ZM654.067 78.1L653.807 87.8H651.907L651.647 78.1H654.067ZM652.927 92.14C652.514 92.14 652.167 92 651.887 91.72C651.607 91.44 651.467 91.0933 651.467 90.68C651.467 90.2667 651.607 89.92 651.887 89.64C652.167 89.36 652.514 89.22 652.927 89.22C653.327 89.22 653.667 89.36 653.947 89.64C654.227 89.92 654.367 90.2667 654.367 90.68C654.367 91.0933 654.227 91.44 653.947 91.72C653.667 92 653.327 92.14 652.927 92.14Z" fill="#011948"/>
<path d="M772.268 76.36C777.388 72.0933 781.468 68.5467 784.508 65.72C787.548 62.84 790.081 59.8533 792.108 56.76C794.134 53.6667 795.148 50.6267 795.148 47.64C795.148 44.92 794.508 42.7867 793.228 41.24C791.948 39.6933 789.974 38.92 787.308 38.92C784.641 38.92 782.588 39.8267 781.148 41.64C779.708 43.4 778.961 45.8267 778.908 48.92H768.028C768.241 42.52 770.134 37.6667 773.708 34.36C777.334 31.0533 781.921 29.4 787.468 29.4C793.548 29.4 798.214 31.0267 801.468 34.28C804.721 37.48 806.348 41.72 806.348 47C806.348 51.16 805.228 55.1333 802.988 58.92C800.748 62.7067 798.188 66.0133 795.308 68.84C792.428 71.6133 788.668 74.9733 784.028 78.92H807.628V88.2H768.108V79.88L772.268 76.36ZM814.685 59.08C814.685 49.8533 816.339 42.6267 819.645 37.4C823.005 32.1733 828.552 29.56 836.285 29.56C844.019 29.56 849.539 32.1733 852.845 37.4C856.205 42.6267 857.885 49.8533 857.885 59.08C857.885 68.36 856.205 75.64 852.845 80.92C849.539 86.2 844.019 88.84 836.285 88.84C828.552 88.84 823.005 86.2 819.645 80.92C816.339 75.64 814.685 68.36 814.685 59.08ZM846.845 59.08C846.845 55.1333 846.579 51.8267 846.045 49.16C845.565 46.44 844.552 44.2267 843.005 42.52C841.512 40.8133 839.272 39.96 836.285 39.96C833.299 39.96 831.032 40.8133 829.485 42.52C827.992 44.2267 826.979 46.44 826.445 49.16C825.965 51.8267 825.725 55.1333 825.725 59.08C825.725 63.1333 825.965 66.5467 826.445 69.32C826.925 72.04 827.939 74.2533 829.485 75.96C831.032 77.6133 833.299 78.44 836.285 78.44C839.272 78.44 841.539 77.6133 843.085 75.96C844.632 74.2533 845.645 72.04 846.125 69.32C846.605 66.5467 846.845 63.1333 846.845 59.08ZM865.124 45C865.124 40.9467 866.297 37.7733 868.644 35.48C871.044 33.1867 874.111 32.04 877.844 32.04C881.577 32.04 884.617 33.1867 886.964 35.48C889.364 37.7733 890.564 40.9467 890.564 45C890.564 49.1067 889.364 52.3067 886.964 54.6C884.617 56.8933 881.577 58.04 877.844 58.04C874.111 58.04 871.044 56.8933 868.644 54.6C866.297 52.3067 865.124 49.1067 865.124 45ZM916.484 33L885.044 89H874.164L905.524 33H916.484ZM877.764 38.76C874.831 38.76 873.364 40.84 873.364 45C873.364 49.2133 874.831 51.32 877.764 51.32C879.204 51.32 880.324 50.8133 881.124 49.8C881.924 48.7333 882.324 47.1333 882.324 45C882.324 40.84 880.804 38.76 877.764 38.76ZM900.244 76.92C900.244 72.8133 901.417 69.64 903.764 67.4C906.164 65.1067 909.231 63.96 912.964 63.96C916.697 63.96 919.711 65.1067 922.004 67.4C924.351 69.64 925.524 72.8133 925.524 76.92C925.524 81.0267 924.351 84.2267 922.004 86.52C919.711 88.8133 916.697 89.96 912.964 89.96C909.177 89.96 906.111 88.8133 903.764 86.52C901.417 84.2267 900.244 81.0267 900.244 76.92ZM912.884 70.68C909.844 70.68 908.324 72.76 908.324 76.92C908.324 81.1333 909.844 83.24 912.884 83.24C915.871 83.24 917.364 81.1333 917.364 76.92C917.364 72.76 915.871 70.68 912.884 70.68Z" fill="white"/>
<path d="M250.4 88.4286V99.8571H267.5V117H278.9V99.8571H296V88.4286H278.9V71.2857H267.5V88.4286H250.4ZM250.229 69.0571C249.545 61.4571 242.363 53.9714 233.3 54.1429C223.61 54.3143 216.2 61.5714 216.2 71.2857C216.2 81 223.61 88.0857 233.3 88.4286C235.466 88.4286 237.689 87.9714 239.798 87.1143C241.337 80.8286 243.902 74.8857 250.229 69.0571ZM239 94.1429H204.8C204.8 87.8571 199.727 82.7143 193.4 82.7143V59.8571C199.727 59.8571 204.8 54.7714 204.8 48.4286H261.8C261.8 54.7714 266.93 59.8571 273.2 59.8571V60.2C277.019 60.2 280.838 60.8857 284.6 62.1429V37H182V105.571H240.824C239.57 101.743 239 97.9143 239 94.1429Z" fill="#DEE2EC"/>
<rect x="1" y="1" width="1161" height="137" stroke="#917DFA" stroke-width="2"/>
</svg>
