<svg width="140" height="140" viewBox="0 0 140 140" fill="none" xmlns="http://www.w3.org/2000/svg">
<path d="M112.474 108.313C110.465 110.56 108.565 112.008 107.064 113.153C89.4152 126.607 68.5325 122.685 64.0941 121.728C57.5404 120.314 44.8719 117.579 35.7129 106.136C21.8565 88.8218 24.0142 61.5443 34.7622 43.5384C36.7281 40.2447 47.1135 21.9642 68.2212 19.0328C80.9954 17.2586 95.8857 20.8369 106.669 30.4358C129.305 50.5848 127.693 91.2893 112.474 108.313Z" fill="url(#paint0_linear_28:274)"/>
<path d="M95.331 98.3515C110.119 82.6387 110.119 57.1633 95.331 41.4505C80.5424 25.7377 56.5655 25.7377 41.777 41.4505C26.9885 57.1633 26.9885 82.6387 41.777 98.3515C56.5655 114.064 80.5424 114.064 95.331 98.3515Z" fill="#BDD0FB"/>
<path d="M68.5549 104.24C86.4044 104.24 100.874 88.8661 100.874 69.901C100.874 50.936 86.4044 35.5618 68.5549 35.5618C50.7054 35.5618 36.2356 50.936 36.2356 69.901C36.2356 88.8661 50.7054 104.24 68.5549 104.24Z" fill="url(#paint1_linear_28:274)"/>
<path d="M68.5544 105.961C49.8409 105.961 34.6165 89.7847 34.6165 69.9012C34.6165 50.0177 49.8413 33.8417 68.5544 33.8417C87.2676 33.8417 102.492 50.0177 102.492 69.9012C102.492 89.7847 87.2679 105.961 68.5544 105.961ZM68.5544 35.5619C50.7335 35.5619 36.2351 50.9664 36.2351 69.9012C36.2351 88.836 50.7335 104.24 68.5544 104.24C86.3754 104.24 100.874 88.836 100.874 69.9012C100.874 50.9664 86.3754 35.5619 68.5544 35.5619Z" fill="white"/>
<path d="M68.5549 90.8362C79.4368 90.8362 88.2582 81.4633 88.2582 69.9014C88.2582 58.3394 79.4368 48.9666 68.5549 48.9666C57.673 48.9666 48.8516 58.3394 48.8516 69.9014C48.8516 81.4633 57.673 90.8362 68.5549 90.8362Z" fill="url(#paint2_linear_28:274)"/>
<path d="M68.5546 92.5563C56.7976 92.5563 47.2322 82.3933 47.2322 69.9012C47.2322 57.4091 56.7973 47.2466 68.5546 47.2466C80.3118 47.2466 89.8769 57.4095 89.8769 69.9012C89.8769 82.393 80.3118 92.5563 68.5546 92.5563ZM68.5546 50.6863C58.5827 50.6863 50.4699 59.3061 50.4699 69.9012C50.4699 80.4963 58.5827 89.1166 68.5546 89.1166C78.5264 89.1166 86.6392 80.4963 86.6392 69.9012C86.6392 59.3061 78.5268 50.6863 68.5546 50.6863Z" fill="white"/>
<path d="M68.5549 78.012C72.7709 78.012 76.1886 74.3806 76.1886 69.9011C76.1886 65.4216 72.7709 61.7903 68.5549 61.7903C64.3389 61.7903 60.9211 65.4216 60.9211 69.9011C60.9211 74.3806 64.3389 78.012 68.5549 78.012Z" fill="url(#paint3_linear_28:274)"/>
<path d="M68.5544 79.7322C63.4527 79.7322 59.302 75.3221 59.302 69.9015C59.302 64.4809 63.4527 60.0708 68.5544 60.0708C73.6561 60.0708 77.8068 64.4809 77.8068 69.9015C77.8068 75.3221 73.6565 79.7322 68.5544 79.7322ZM68.5544 63.5101C65.2377 63.5101 62.5394 66.3771 62.5394 69.9011C62.5394 73.4251 65.2377 76.2921 68.5544 76.2921C71.8711 76.2921 74.5695 73.4251 74.5695 69.9011C74.5695 66.3771 71.8711 63.5101 68.5544 63.5101Z" fill="white"/>
<path d="M104.688 31.6134L105.492 32.4677L75.045 64.8178L74.241 63.9635L104.688 31.6134Z" fill="url(#paint4_linear_28:274)"/>
<path d="M74.8101 61.9021C75.2715 61.4118 77.4461 63.7227 76.9847 64.2126L68.9192 70.9496C68.6213 71.1987 68.235 70.7882 68.4694 70.4717L74.8101 61.9021Z" fill="url(#paint5_linear_28:274)"/>
<path d="M105.475 32.4862L109.571 32.9188L103.948 38.8933C102.105 40.851 99.5336 41.827 96.9409 41.5533L105.475 32.4862Z" fill="#91B3FA"/>
<path d="M104.67 31.632L104.263 27.2799L98.6401 33.2544C96.7976 35.2121 95.879 37.9443 96.1367 40.699L104.67 31.632Z" fill="#91B3FA"/>
<g opacity="0.3">
<path opacity="0.3" d="M48.459 25.6076C48.3444 25.7293 48.159 25.7289 48.0444 25.6076C47.822 25.3712 47.5869 25.1417 47.3454 24.9252C47.2231 24.8158 47.2062 24.6225 47.3067 24.4911C47.3077 24.4896 47.3091 24.4881 47.3102 24.4862C47.4145 24.3548 47.5992 24.3379 47.723 24.4488C47.9775 24.6765 48.2249 24.9181 48.459 25.1671C48.5661 25.281 48.5728 25.4608 48.4794 25.5828C48.4731 25.5915 48.4664 25.5997 48.459 25.6076ZM46.1011 23.9578C45.8339 23.7784 45.5572 23.6094 45.278 23.4559C45.1345 23.3769 45.0785 23.1888 45.1529 23.036C45.2283 22.8832 45.4042 22.8241 45.548 22.9031C45.8417 23.0649 46.1332 23.2428 46.4141 23.4312C46.5509 23.5229 46.5918 23.7154 46.5054 23.8608C46.4991 23.8712 46.4924 23.8814 46.485 23.8907C46.3926 24.0117 46.228 24.0428 46.1011 23.9578ZM43.8641 22.8046C43.567 22.6933 43.2617 22.5941 42.9568 22.5106C42.8003 22.4675 42.7058 22.2975 42.7464 22.1312C42.7869 21.9649 42.9466 21.8649 43.1034 21.9076C43.4249 21.996 43.7464 22.1001 44.0591 22.2173C44.2117 22.2746 44.2917 22.4525 44.2381 22.6143C44.2265 22.6488 44.2099 22.6799 44.1895 22.7068C44.1134 22.8064 43.984 22.8495 43.8641 22.8046ZM41.4403 22.2117C41.127 22.1735 40.8083 22.1495 40.4935 22.1402C40.3317 22.1353 40.2041 21.9922 40.2087 21.8203C40.2133 21.6484 40.3483 21.5132 40.5097 21.5177C40.8414 21.5274 41.1767 21.5529 41.5066 21.5926C41.6674 21.6121 41.783 21.7664 41.7646 21.9372C41.7579 21.9982 41.7354 22.0533 41.7012 22.0978C41.6402 22.1784 41.5436 22.2244 41.4403 22.2117ZM38.9528 22.2076C38.6401 22.2443 38.3242 22.296 38.0144 22.3608C37.8554 22.3941 37.7014 22.2844 37.6704 22.1154C37.639 21.9465 37.7423 21.7829 37.9012 21.7499C38.2273 21.6814 38.5594 21.6274 38.8886 21.5885C39.0493 21.5694 39.1942 21.6926 39.2122 21.8638C39.2214 21.9499 39.1963 22.0315 39.1487 22.0941C39.1015 22.1559 39.0328 22.1982 38.9528 22.2076ZM36.5265 22.7885C36.2286 22.8978 35.9318 23.0226 35.6435 23.1585C35.4954 23.2282 35.3224 23.1574 35.2568 23.0005C35.1912 22.8432 35.2575 22.6593 35.4055 22.5896C35.7087 22.4465 36.0214 22.3154 36.3347 22.2001C36.4877 22.1439 36.6545 22.23 36.7073 22.3926C36.7419 22.4982 36.7197 22.6098 36.658 22.6907C36.6248 22.7342 36.5801 22.7686 36.5265 22.7885ZM29.0528 31.1903C28.8963 31.1469 28.8022 30.9768 28.8431 30.8105C28.9266 30.4697 29.0253 30.1282 29.1367 29.7952C29.191 29.633 29.3584 29.5484 29.5107 29.6061C29.663 29.6634 29.743 29.8416 29.6887 30.0034C29.5833 30.3195 29.4895 30.6439 29.4102 30.9675C29.3993 31.012 29.3799 31.0514 29.3545 31.0851C29.284 31.1768 29.1674 31.2222 29.0528 31.1903ZM34.2832 23.9255C34.016 24.1027 33.7527 24.2941 33.5006 24.4948C33.3713 24.5978 33.1873 24.5701 33.0903 24.4327C32.993 24.2952 33.0202 24.1005 33.1488 23.9967C33.4143 23.7855 33.6913 23.5836 33.973 23.3971C34.1105 23.3061 34.2909 23.3506 34.3766 23.4967C34.4446 23.6124 34.4323 23.757 34.3554 23.8574C34.3361 23.8836 34.3114 23.9064 34.2832 23.9255ZM29.909 28.6342C29.7655 28.5547 29.7099 28.3667 29.7846 28.2143C29.9379 27.9019 30.1057 27.5926 30.2837 27.2948C30.3697 27.1491 30.5516 27.1068 30.688 27.1986C30.8248 27.2907 30.865 27.4832 30.7786 27.6282C30.6094 27.9113 30.4497 28.2053 30.3042 28.5019C30.295 28.521 30.2841 28.5383 30.2717 28.5544C30.1861 28.6671 30.0345 28.7038 29.909 28.6342ZM32.3356 25.5664C32.1125 25.8023 31.8961 26.0518 31.6923 26.3076C31.588 26.439 31.4029 26.4551 31.2795 26.3443C31.1576 26.2345 31.141 26.042 31.2411 25.9106C31.2425 25.9087 31.2436 25.9072 31.245 25.9053C31.4593 25.636 31.6874 25.3735 31.9221 25.1248C32.0371 25.0034 32.2225 25.0038 32.3367 25.1259C32.4435 25.2398 32.4498 25.4192 32.3568 25.5413C32.3501 25.5499 32.343 25.5581 32.3356 25.5664Z" fill="#91B3FA"/>
<path opacity="0.3" d="M29.0179 33.2416C29.0542 33.1941 29.0779 33.1345 29.0824 33.0686C29.0934 32.9087 29.1082 32.7461 29.1251 32.5855C29.1434 32.4147 29.0282 32.2604 28.8674 32.2405C28.7067 32.2207 28.5611 32.3435 28.5428 32.5143C28.5244 32.6832 28.5093 32.854 28.4976 33.0225C28.4857 33.1941 28.6069 33.3431 28.7684 33.3559C28.8681 33.3641 28.9598 33.3184 29.0179 33.2416Z" fill="#91B3FA"/>
</g>
<g opacity="0.3">
<path opacity="0.3" d="M31.8918 42.229C31.981 42.1121 31.9796 41.941 31.8823 41.8253C31.7815 41.7058 31.6813 41.5818 31.5848 41.4575C31.4818 41.3249 31.2971 41.3058 31.1723 41.4151C31.0468 41.5249 31.0296 41.7208 31.1325 41.8533C31.2344 41.9844 31.3398 42.1148 31.4459 42.2406C31.5537 42.3687 31.7392 42.3796 31.8597 42.2646C31.8717 42.2537 31.8823 42.2414 31.8918 42.229Z" fill="#91B3FA"/>
<path opacity="0.3" d="M48.8798 42.2564C48.772 42.3845 48.5866 42.3954 48.466 42.2808C48.3454 42.1662 48.3352 41.9695 48.4431 41.8411C48.6486 41.5973 48.8474 41.3403 49.0367 41.0744C49.1333 40.9377 49.318 40.9104 49.4474 41.0141C49.5764 41.1178 49.6017 41.313 49.5041 41.4501C49.422 41.565 49.3388 41.6785 49.2538 41.7898C49.1329 41.9486 49.0071 42.1055 48.8798 42.2564ZM49.98 40.1497C49.839 40.0654 49.7889 39.8755 49.8682 39.7257C50.0205 39.4381 50.1629 39.1403 50.2912 38.8407C50.3579 38.6841 50.5323 38.6152 50.6793 38.6868C50.8263 38.7579 50.8915 38.9429 50.8242 39.0991C50.6889 39.4145 50.539 39.728 50.3787 40.0306C50.3702 40.0463 50.361 40.0609 50.3505 40.0744C50.2627 40.1901 50.1065 40.225 49.98 40.1497ZM47.7356 43.4399C47.4871 43.6639 47.2259 43.8796 46.9598 44.0811C46.8279 44.1808 46.645 44.1482 46.5512 44.0081C46.4575 43.868 46.4881 43.674 46.62 43.574C46.8731 43.3826 47.1209 43.1778 47.3567 42.965C47.4801 42.8538 47.6651 42.8699 47.7698 43.001C47.8625 43.1171 47.8611 43.2841 47.774 43.398C47.7628 43.413 47.7501 43.4268 47.7356 43.4399ZM51.0216 37.7197C50.8665 37.6707 50.7784 37.4969 50.8249 37.3325C50.9138 37.0167 50.991 36.6931 51.0544 36.3707C51.0875 36.2021 51.2426 36.0943 51.4013 36.1295C51.5595 36.1647 51.6611 36.3295 51.6283 36.4976C51.5616 36.837 51.4802 37.1778 51.3868 37.5104C51.3755 37.5504 51.3572 37.5864 51.3339 37.6171C51.2606 37.7126 51.1387 37.7568 51.0216 37.7197ZM45.5995 44.9673C45.3108 45.1276 45.0115 45.277 44.7101 45.4115C44.561 45.4781 44.3893 45.4036 44.3266 45.2452C44.2638 45.0868 44.334 44.904 44.4835 44.8377C44.7697 44.71 45.0542 44.568 45.3284 44.4156C45.4719 44.3358 45.6488 44.395 45.7239 44.5474C45.7796 44.6609 45.763 44.7943 45.6918 44.8879C45.6668 44.9197 45.6361 44.9471 45.5995 44.9673ZM43.1997 45.9598C42.8842 46.0493 42.5613 46.1261 42.2405 46.1871C42.0812 46.2175 41.9289 46.1051 41.9003 45.9358C41.8718 45.7662 41.9775 45.6047 42.1369 45.5744C42.4418 45.516 42.7484 45.4433 43.0484 45.3583C43.2049 45.3137 43.3653 45.4126 43.4073 45.5785C43.4323 45.6785 43.4087 45.7804 43.3516 45.8553C43.3139 45.9047 43.2617 45.9422 43.1997 45.9598ZM40.6535 46.3733C40.3271 46.3879 39.9961 46.3879 39.6704 46.3733C39.5086 46.3662 39.3831 46.2208 39.3898 46.0493C39.3965 45.8774 39.5333 45.7441 39.6947 45.7512C40.0042 45.765 40.3183 45.765 40.6289 45.7512C40.7907 45.7441 40.9271 45.8774 40.9338 46.0493C40.937 46.1283 40.9123 46.2014 40.8686 46.2583C40.8178 46.3253 40.741 46.3695 40.6535 46.3733ZM38.0828 46.1868C37.7613 46.125 37.4384 46.0482 37.1233 45.9579C36.9671 45.9134 36.8744 45.7422 36.9167 45.5763C36.9586 45.4104 37.1197 45.3122 37.2759 45.3568C37.5752 45.4426 37.8815 45.5156 38.1871 45.574C38.3464 45.6047 38.4522 45.7665 38.4233 45.9358C38.4141 45.9894 38.393 46.037 38.3626 46.0763C38.2974 46.1617 38.1917 46.2077 38.0828 46.1868ZM35.6124 45.4044C35.3121 45.2692 35.0135 45.1186 34.7245 44.9568C34.5814 44.8767 34.5264 44.6883 34.6018 44.5362C34.6773 44.3845 34.8546 44.3257 34.9977 44.4059C35.2723 44.5598 35.556 44.7029 35.8409 44.8313C35.99 44.8984 36.0594 45.0811 35.9963 45.2396C35.9854 45.2673 35.9709 45.292 35.954 45.3145C35.874 45.419 35.7355 45.4598 35.6124 45.4044ZM33.3663 44.0658C33.1707 43.9175 32.9772 43.7609 32.791 43.6002C32.7237 43.5422 32.6571 43.4834 32.5912 43.4242C32.4678 43.313 32.4488 43.116 32.557 42.9856C32.6617 42.8546 32.8464 42.8381 32.9701 42.9493C33.0329 43.0059 33.0963 43.0617 33.1601 43.1167C33.3371 43.2692 33.5211 43.4182 33.7068 43.559C33.8387 43.659 33.869 43.8534 33.7749 43.9931C33.7713 43.9984 33.7678 44.0036 33.7639 44.0085C33.667 44.1358 33.4929 44.162 33.3663 44.0658Z" fill="#91B3FA"/>
<path opacity="0.3" d="M51.7825 34.9832C51.8192 34.9353 51.8428 34.875 51.847 34.8087C51.8579 34.6405 51.8657 34.469 51.8699 34.2986C51.8745 34.1267 51.7469 33.9836 51.5851 33.9787C51.4233 33.9743 51.2886 34.1095 51.2841 34.2814C51.2798 34.4432 51.2724 34.6061 51.2622 34.7656C51.2509 34.9372 51.3729 35.0859 51.5343 35.0975C51.6337 35.105 51.7247 35.0593 51.7825 34.9832Z" fill="#91B3FA"/>
</g>
<path d="M48.4865 30.9556C48.4745 30.8949 48.4277 30.8489 48.3698 30.841L46.7166 30.6167C46.3884 29.8669 45.9453 29.1669 45.3933 28.5504L45.8026 26.8347C45.817 26.7744 45.7938 26.7114 45.7448 26.6773L44.0729 25.5126C44.0239 25.4785 43.9601 25.4811 43.9139 25.5193L42.5962 26.6021C41.844 26.3099 41.0632 26.1575 40.2849 26.1365L39.4322 24.6148C39.4022 24.5616 39.3437 24.5343 39.2866 24.5466L37.3292 24.9792C37.2721 24.992 37.2287 25.0418 37.2213 25.1032L37.0102 26.8597C36.3045 27.2084 35.6456 27.6792 35.0654 28.2657L33.4506 27.8309C33.3939 27.8155 33.3347 27.8403 33.3026 27.8923L32.2063 29.6687C32.1742 29.7208 32.1767 29.7886 32.2126 29.8376L33.2317 31.2376C32.9568 32.0369 32.8133 32.8665 32.7936 33.6934L31.3614 34.5994C31.3113 34.6313 31.2856 34.6934 31.2972 34.7541L31.7043 36.8339C31.7163 36.8946 31.7632 36.9406 31.821 36.9485L33.4746 37.1728C33.8028 37.9226 34.2459 38.6226 34.7979 39.2391L34.3886 40.9548C34.3742 41.0151 34.3974 41.0784 34.4464 41.1122L36.1183 42.2769C36.1673 42.311 36.2311 42.3084 36.2773 42.2702L37.595 41.1874C38.3472 41.4796 39.128 41.632 39.9063 41.653L40.759 43.1747C40.789 43.2279 40.8475 43.2552 40.9046 43.2429L42.862 42.8103C42.9191 42.7975 42.9625 42.7477 42.9699 42.6863L43.181 40.9298C43.8867 40.5811 44.5456 40.1103 45.1258 39.5238L46.7406 39.9586C46.7973 39.974 46.8566 39.9492 46.8886 39.8972L47.9849 38.1208C48.017 38.0687 48.0145 38.0009 47.9786 37.9519L46.9595 36.5519C47.2344 35.7522 47.3779 34.923 47.3976 34.0961L48.8299 33.1901C48.8799 33.1582 48.9056 33.0961 48.894 33.0354L48.4865 30.9556Z" fill="#91B3FA"/>
<path d="M41.4555 35.4672C40.6395 36.2638 39.3659 36.2069 38.6161 35.3398C38.2527 34.92 38.0651 34.3747 38.0881 33.805C38.1106 33.2353 38.3408 32.7087 38.7363 32.323C39.5523 31.5264 40.8259 31.5833 41.5757 32.4503C42.2578 33.2391 42.2747 34.4305 41.6578 35.2387C41.5965 35.3189 41.5292 35.3953 41.4555 35.4672ZM38.5562 33.8256C38.5389 34.2627 38.6827 34.6803 38.9612 35.0024C39.5361 35.6668 40.5129 35.711 41.1382 35.1001C41.7643 34.4893 41.8052 33.4514 41.2302 32.787C40.6553 32.1226 39.6785 32.0784 39.0532 32.6893C38.9965 32.7447 38.9443 32.8039 38.8967 32.8661C38.6898 33.1376 38.5703 33.4705 38.5562 33.8256Z" fill="#BDD0FB"/>
<path d="M43.8865 37.2148C43.9926 37.0758 44.0924 36.9305 44.1862 36.7792C44.2158 36.7317 44.2443 36.6833 44.2722 36.6347C44.41 36.3946 44.5298 36.1433 44.6296 35.8845C44.631 35.8811 44.6324 35.8773 44.6338 35.874C44.6377 35.8639 44.6416 35.8538 44.6451 35.844C44.6525 35.8245 44.6596 35.8047 44.667 35.7852C44.6857 35.7335 44.6698 35.677 44.6317 35.6436C44.6226 35.6358 44.6116 35.629 44.6 35.6242C44.5397 35.5994 44.472 35.6317 44.4484 35.6957C44.3286 36.026 44.1745 36.3444 43.9902 36.6429C43.0758 38.1253 41.5417 38.9215 39.9861 38.9002C39.1207 38.8886 38.249 38.6238 37.4731 38.0833C37.3371 37.9886 37.2066 37.8871 37.0819 37.78C36.2429 37.0571 35.6683 36.0582 35.4456 34.9197C35.1896 33.6118 35.4283 32.2762 36.1174 31.159C37.5415 28.8519 40.4641 28.2066 42.6348 29.7186C42.7688 29.8118 42.8974 29.9118 43.0211 30.0182C43.5562 30.4792 43.9905 31.0598 44.2905 31.7193C44.2983 31.7362 44.3092 31.7508 44.3222 31.7616C44.3564 31.7912 44.4047 31.7987 44.447 31.777C44.5052 31.747 44.5298 31.6729 44.5016 31.6107C44.1865 30.9182 43.7307 30.3088 43.1688 29.8249C43.0391 29.7133 42.9041 29.6081 42.7635 29.5103C40.4846 27.9227 37.415 28.6021 35.9214 31.0223C35.1977 32.195 34.9471 33.5972 35.2161 34.9702C35.4501 36.1657 36.0533 37.2144 36.9338 37.9732C37.0646 38.086 37.2017 38.1923 37.3445 38.292C38.4485 39.0609 39.7679 39.3272 41.0602 39.0414C42.185 38.792 43.1724 38.1508 43.8865 37.2148Z" fill="#BDD0FB"/>
<g opacity="0.3">
<path opacity="0.3" d="M60.7745 22.4978C60.8238 22.433 60.8294 22.3393 60.7826 22.2674C60.6955 22.133 60.6031 21.9996 60.5083 21.8712C60.4466 21.7877 60.3331 21.7727 60.2542 21.8382C60.1752 21.9034 60.1614 22.0244 60.2231 22.1083C60.3134 22.2307 60.4015 22.3581 60.4847 22.4862C60.5414 22.5734 60.6542 22.5955 60.7364 22.5352C60.7515 22.5244 60.7639 22.5116 60.7745 22.4978Z" fill="#91B3FA"/>
<path opacity="0.3" d="M59.8699 21.3772C59.7994 21.4525 59.6848 21.4528 59.614 21.3779C59.4352 21.1888 59.2449 21.0075 59.0493 20.8386C59.008 20.803 58.9661 20.7678 58.9238 20.733C58.8448 20.6678 58.8307 20.5472 58.892 20.4633C58.953 20.3865 59.0669 20.3644 59.1462 20.4296C59.1906 20.4663 59.2343 20.503 59.2773 20.5401C59.4828 20.7169 59.682 20.9071 59.8695 21.1056C59.9358 21.1757 59.9404 21.2873 59.8826 21.3629C59.8787 21.3674 59.8745 21.3723 59.8699 21.3772ZM58.1648 20.1821C57.9022 20.0154 57.6276 19.8644 57.3484 19.7337C57.2568 19.6907 57.2155 19.5776 57.2557 19.4802C57.2959 19.3836 57.4027 19.339 57.4944 19.3817C57.7869 19.5188 58.0749 19.6768 58.3502 19.8517C58.4359 19.906 58.4641 20.0244 58.413 20.1154C58.4084 20.1232 58.4035 20.1311 58.3978 20.1379C58.3425 20.2113 58.2431 20.2315 58.1648 20.1821ZM56.4862 19.3963C56.1936 19.3034 55.8926 19.2289 55.5912 19.1749C55.4929 19.1573 55.4263 19.0581 55.4428 18.9536C55.4594 18.8487 55.5524 18.7783 55.6511 18.7959C55.9673 18.8525 56.2832 18.9307 56.5899 19.0281C56.6857 19.0585 56.74 19.1659 56.7115 19.2674C56.7044 19.2922 56.6931 19.3143 56.6787 19.3334C56.6339 19.3918 56.5585 19.4191 56.4862 19.3963ZM54.6768 19.0727C54.3712 19.0588 54.0621 19.0648 53.7582 19.0907C53.6585 19.0993 53.5714 19.0203 53.5633 18.9143C53.5552 18.8086 53.6296 18.7158 53.729 18.7072C54.048 18.6798 54.3719 18.6734 54.6923 18.688C54.7921 18.6925 54.8697 18.7824 54.8654 18.8884C54.8637 18.9311 54.8489 18.9701 54.8252 19.0012C54.7907 19.0472 54.7364 19.0753 54.6768 19.0727ZM52.8484 19.2281C52.5488 19.2933 52.2506 19.3791 51.9615 19.4828C51.8671 19.5169 51.7641 19.4626 51.7324 19.3618C51.7003 19.2611 51.7511 19.1521 51.8463 19.1184C52.1494 19.0098 52.4621 18.9203 52.7758 18.8513C52.8738 18.83 52.9693 18.897 52.9894 19.0008C53.0007 19.0596 52.9855 19.1176 52.9528 19.1607C52.927 19.1944 52.8911 19.2188 52.8484 19.2281ZM51.1106 19.8506C50.8353 19.991 50.566 20.1513 50.3097 20.327C50.2258 20.3847 50.1137 20.3588 50.0594 20.2697C50.0055 20.1806 50.0295 20.0618 50.1134 20.0038C50.382 19.8199 50.665 19.6517 50.9537 19.5042C51.044 19.4581 51.1518 19.4985 51.1952 19.594C51.2266 19.6633 51.2153 19.7427 51.1726 19.7985C51.1564 19.8199 51.1356 19.8379 51.1106 19.8506ZM49.5695 20.9053C49.3358 21.1128 49.1116 21.3386 48.9025 21.5764C48.8341 21.654 48.7199 21.6581 48.6466 21.5858C48.5736 21.5135 48.5705 21.3929 48.6378 21.3139C48.8571 21.0644 49.0922 20.8277 49.3372 20.6101C49.414 20.542 49.5282 20.5528 49.592 20.6345C49.6484 20.706 49.6474 20.8086 49.5938 20.8787C49.5867 20.888 49.5786 20.897 49.5695 20.9053ZM47.5785 23.2292C47.4911 23.1779 47.4594 23.0611 47.5077 22.9678C47.6416 22.7105 47.7911 22.4566 47.9515 22.2139C47.9758 22.1768 48.0001 22.1405 48.0252 22.1041C48.0812 22.0169 48.1972 21.9993 48.2779 22.0618C48.3586 22.1244 48.3766 22.2446 48.3177 22.3304C48.2945 22.3644 48.2712 22.3989 48.2483 22.4341C48.0946 22.6663 47.9518 22.9086 47.8242 23.1539C47.8189 23.1641 47.8129 23.1734 47.8063 23.182C47.7523 23.2536 47.6564 23.2749 47.5785 23.2292Z" fill="#91B3FA"/>
</g>
<g opacity="0.3">
<path opacity="0.3" d="M60.3514 32.3057C60.1498 32.5634 59.9313 32.8098 59.7025 33.0391C59.6299 33.1117 59.5153 33.1083 59.4466 33.0308C59.3778 32.9533 59.3824 32.8319 59.4543 32.7589C59.6725 32.5406 59.8808 32.3054 60.0733 32.0597C60.1371 31.978 60.2513 31.9672 60.3282 32.0349C60.4043 32.1024 60.4152 32.2222 60.3532 32.3039C60.3525 32.3046 60.3518 32.3054 60.3514 32.3057ZM60.6627 31.5514C60.5788 31.4937 60.5548 31.3746 60.6091 31.2855C60.7723 31.0173 60.9221 30.7357 61.054 30.4488C61.0977 30.3541 61.2062 30.3136 61.2961 30.3604C61.386 30.4069 61.423 30.5218 61.3793 30.6173C61.2411 30.9181 61.0843 31.2128 60.913 31.4941C60.9094 31.5001 60.9056 31.5057 60.9013 31.511C60.8439 31.5866 60.7409 31.6054 60.6627 31.5514ZM58.9735 33.6836C58.719 33.8818 58.4508 34.0653 58.1769 34.2286C58.0898 34.2806 57.9791 34.2477 57.9305 34.1548C57.8815 34.0623 57.9125 33.9454 57.9996 33.893C58.2611 33.7372 58.5167 33.5623 58.7599 33.3731C58.8406 33.3102 58.9538 33.3289 59.0126 33.4143C59.0623 33.4863 59.0578 33.5829 59.0073 33.6492C58.9978 33.6623 58.9866 33.6735 58.9735 33.6836ZM61.5119 29.8061C61.4174 29.7717 61.367 29.6623 61.3998 29.5615C61.4974 29.2597 61.5788 28.9481 61.6412 28.6361C61.662 28.5323 61.7583 28.466 61.8559 28.4878C61.9535 28.5099 62.0163 28.6121 61.9955 28.7159C61.9303 29.0432 61.845 29.3702 61.7424 29.6866C61.7353 29.7084 61.7248 29.7282 61.7117 29.7451C61.6648 29.8065 61.5859 29.8331 61.5119 29.8061ZM57.3242 34.6664C57.033 34.7934 56.7313 34.9027 56.4274 34.9919C56.3312 35.02 56.2314 34.9597 56.205 34.8574C56.1785 34.7552 56.2349 34.6492 56.3315 34.6211C56.6213 34.5364 56.9089 34.4319 57.1867 34.311C57.279 34.2705 57.3848 34.3177 57.4229 34.4158C57.4489 34.4833 57.4363 34.557 57.3961 34.6102C57.3774 34.6338 57.3531 34.6537 57.3242 34.6664ZM55.5003 35.2001C55.1884 35.2495 54.8708 35.2791 54.5563 35.2881C54.4566 35.2911 54.3734 35.2076 54.3706 35.1012C54.3678 34.9952 54.4464 34.9065 54.5465 34.9038C54.8461 34.8952 55.1492 34.8668 55.4471 34.8196C55.5458 34.8038 55.6382 34.8765 55.6526 34.9814C55.6604 35.0368 55.6449 35.0904 55.6142 35.1308C55.5867 35.1671 55.5469 35.193 55.5003 35.2001ZM53.6088 35.2548C53.2944 35.2233 52.9793 35.1709 52.6719 35.0994C52.5742 35.0765 52.5125 34.9743 52.5337 34.8701C52.5552 34.7664 52.6518 34.7009 52.7491 34.7233C53.042 34.7915 53.3427 34.8413 53.6423 34.8713C53.7417 34.8814 53.815 34.975 53.8055 35.0806C53.802 35.12 53.7879 35.1552 53.766 35.1836C53.7297 35.2323 53.6716 35.2608 53.6088 35.2548Z" fill="#91B3FA"/>
<path opacity="0.3" d="M62.0966 27.8151C62.1185 27.7863 62.1329 27.7504 62.1361 27.7107C62.1495 27.5466 62.1583 27.3814 62.1625 27.22C62.1653 27.114 62.0864 27.0253 61.9866 27.0226C61.8868 27.02 61.8037 27.1035 61.8008 27.2095C61.797 27.3638 61.7885 27.5211 61.7758 27.6777C61.7673 27.7837 61.841 27.8766 61.9404 27.8859C62.0025 27.8915 62.0599 27.8631 62.0966 27.8151Z" fill="#91B3FA"/>
</g>
<path d="M59.9134 24.9833C59.9053 24.9425 59.8739 24.9118 59.8351 24.9065L58.7286 24.7564C58.509 24.2545 58.2126 23.7863 57.8431 23.3736L58.117 22.2257C58.1266 22.1852 58.111 22.1433 58.0786 22.1204L56.9598 21.341C56.927 21.3182 56.8843 21.32 56.8533 21.3455L55.9717 22.0702C55.4683 21.8747 54.9459 21.7725 54.4253 21.7586L53.8546 20.7406C53.8345 20.7051 53.7954 20.6867 53.7573 20.6949L52.4474 20.9845C52.409 20.9931 52.3801 21.0264 52.3752 21.0676L52.2338 22.2433C51.7615 22.4766 51.3208 22.7916 50.9324 23.1841L49.852 22.8931C49.8139 22.883 49.7744 22.8994 49.7529 22.9339L49.0194 24.1227C48.9979 24.1575 48.9996 24.2028 49.0236 24.2358L49.7057 25.1725C49.5217 25.7073 49.4254 26.2623 49.4128 26.8155L48.4543 27.4219C48.4208 27.4432 48.4035 27.4848 48.4116 27.5253L48.6841 28.917C48.6922 28.9578 48.7236 28.9886 48.7624 28.9938L49.8689 29.144C50.0885 29.6459 50.3849 30.114 50.7544 30.5268L50.4805 31.6747C50.471 31.7148 50.4865 31.7571 50.5189 31.7799L51.6377 32.5593C51.6705 32.5822 51.7132 32.5803 51.7442 32.5548L52.6258 31.8301C53.1292 32.0256 53.6516 32.1279 54.1722 32.1414L54.7429 33.1593C54.763 33.1949 54.8021 33.2133 54.8402 33.205L56.1501 32.9155C56.1885 32.9069 56.2174 32.8736 56.2223 32.8324L56.3637 31.6567C56.836 31.4234 57.2767 31.1084 57.6651 30.7159L58.7455 31.0069C58.7833 31.017 58.8231 31.0005 58.8446 30.9661L59.5781 29.7773C59.5997 29.7425 59.5979 29.6972 59.5739 29.6642L58.8918 28.7275C59.0758 28.1927 59.1717 27.6376 59.1848 27.0844L60.1432 26.4781C60.1767 26.4567 60.194 26.4152 60.1859 26.3747L59.9134 24.9833Z" fill="#91B3FA"/>
<path d="M55.2247 28.0208C54.9554 28.2837 54.6061 28.4196 54.2405 28.4032C53.8753 28.3867 53.5376 28.2204 53.2905 27.9342C52.7797 27.344 52.8164 26.4234 53.3723 25.8792C53.9282 25.3365 54.7957 25.3758 55.3065 25.9661C55.5539 26.2522 55.6819 26.6234 55.6664 27.0114C55.6537 27.3268 55.5479 27.623 55.3639 27.8638C55.3216 27.9193 55.2751 27.9717 55.2247 28.0208ZM53.557 27.6739C53.7389 27.8844 53.9874 28.0069 54.256 28.0189C54.5246 28.0309 54.7816 27.9309 54.9797 27.7376C55.1775 27.544 55.2931 27.2803 55.3044 26.9949C55.3156 26.7095 55.2215 26.4365 55.0396 26.226C54.6639 25.7916 54.0258 25.7631 53.6169 26.162C53.5799 26.1979 53.5464 26.2361 53.5158 26.2766C53.2066 26.6818 53.2151 27.2788 53.557 27.6739Z" fill="#BDD0FB"/>
<path d="M56.9169 29.2371C56.9892 29.1427 57.0572 29.0435 57.1214 28.9397C57.2486 28.7334 57.3565 28.5135 57.4418 28.2847C57.4457 28.2742 57.4492 28.2641 57.4531 28.2536C57.482 28.1738 57.4577 28.0862 57.3984 28.0352C57.384 28.0229 57.3674 28.0124 57.3495 28.0053C57.256 27.9671 57.1517 28.0169 57.1157 28.1154C57.0382 28.3296 56.9381 28.536 56.8193 28.7285C56.8129 28.739 56.8062 28.7495 56.7995 28.76C56.514 29.2131 56.133 29.5738 55.6899 29.8203C55.4495 29.954 55.1904 30.0543 54.9183 30.1173C54.9161 30.1176 54.9137 30.1184 54.9116 30.1188C54.9049 30.1203 54.8982 30.1218 54.8911 30.1233C54.0941 30.2993 53.2805 30.1352 52.5999 29.6611C52.5117 29.5997 52.4271 29.5341 52.3464 29.4648C51.8036 28.997 51.4313 28.3502 51.2872 27.6131C51.1215 26.7663 51.2762 25.9019 51.7221 25.1787C52.1684 24.4562 52.853 23.9603 53.65 23.7839C54.447 23.6079 55.2605 23.772 55.9412 24.2461C56.0279 24.3064 56.1111 24.3712 56.1911 24.4401C56.5376 24.7386 56.8186 25.1143 57.0128 25.5412C57.0248 25.5675 57.0417 25.5896 57.0618 25.6068C57.1147 25.6521 57.1894 25.6641 57.2546 25.6308C57.3445 25.5843 57.3822 25.4697 57.3389 25.3738C57.1214 24.8959 56.807 24.4757 56.4196 24.1416C56.33 24.0645 56.237 23.9922 56.14 23.9244C55.3783 23.3937 54.4681 23.2102 53.5763 23.4072C52.6848 23.6042 51.9185 24.1573 51.4197 24.9675C50.9202 25.7764 50.7475 26.7439 50.9329 27.691C51.0943 28.5158 51.5103 29.2394 52.118 29.763C52.2082 29.8405 52.3027 29.9143 52.4011 29.9828C53.8756 31.0098 55.8298 30.6618 56.9169 29.2371Z" fill="#BDD0FB"/>
<path d="M38.6939 120.064C38.6939 120.064 38.4902 121.225 38.3851 122.375C38.3439 122.824 38.6671 123.218 39.0915 123.242C40.534 123.32 43.619 123.476 44.727 123.434C44.8937 123.428 45.004 123.248 44.9437 123.083C44.8933 122.945 44.7946 122.832 44.6684 122.768L39.5928 120.227L38.6939 120.064Z" fill="url(#paint6_linear_28:274)"/>
<path d="M38.5417 119.379L38.6845 120.771C38.6845 120.771 39.5735 121.222 40.1879 120.731L39.8319 119.177L38.5417 119.379Z" fill="url(#paint7_linear_28:274)"/>
<path d="M38.8936 93.2281C38.8231 93.5907 38.3708 111.352 40.0864 119.331C40.1143 119.461 40.0512 119.594 39.9345 119.644C39.6592 119.76 39.1202 119.927 38.4762 119.943C38.2767 119.949 38.099 119.809 38.0447 119.605C37.5505 117.753 35.1856 108.474 34.9456 99.6304C34.6773 89.7487 34.9487 99.294 34.9487 99.294L35.2128 93.1903L38.8936 93.2281Z" fill="url(#paint8_linear_28:274)"/>
<path d="M32.8239 120.611C32.8239 120.611 32.5109 121.195 32.199 122.752C32.1426 123.033 32.3255 123.305 32.5945 123.336C33.0703 123.39 33.8032 123.462 34.3908 123.463C34.6615 123.464 34.8751 123.216 34.8452 122.93C34.7852 122.36 34.591 121.423 33.971 120.689L32.8239 120.611Z" fill="url(#paint9_linear_28:274)"/>
<path d="M32.5701 118.819L32.9141 120.926C32.9141 120.926 33.2705 121.214 33.9822 121.015L33.8292 118.75L32.5701 118.819Z" fill="url(#paint10_linear_28:274)"/>
<path d="M31.8148 93.7015C30.269 103.059 31.9237 116.87 32.4993 119.576C32.5346 119.741 32.659 119.869 32.8162 119.898C33.0834 119.948 33.524 119.991 33.9601 119.861C34.1102 119.817 34.2167 119.674 34.2244 119.509C34.3246 117.327 34.2999 103.927 35.7095 98.6457C35.7811 98.3779 35.9372 98.1457 36.1523 97.9865L38.8136 96.0165L39.0452 92.791L31.8148 93.7015Z" fill="url(#paint11_linear_28:274)"/>
<path d="M41.288 76.0368C36.9082 75.9154 32.0635 77.1652 32.0635 77.1652C30.6852 85.2469 31.6785 94.5945 31.6785 94.5945C35.0611 95.5739 38.9002 94.09 38.9002 94.09C39.4942 90.7121 42.2095 81.2166 42.2095 81.2166C44.3523 80.9559 46.1212 80.3177 47.5809 79.4652C46.4856 78.09 45.9791 76.3491 45.7616 75.321C44.2085 75.8169 42.6388 76.0742 41.288 76.0368Z" fill="url(#paint12_linear_28:274)"/>
<path d="M54.2885 69.3124C53.863 68.7559 53.3163 69.0117 53.3163 69.0117C52.6458 71.8982 49.2449 74.2098 45.7622 75.3211C45.9797 76.3491 46.4862 78.0903 47.5815 79.4652C53.3748 76.0814 54.2885 69.3124 54.2885 69.3124Z" fill="url(#paint13_linear_28:274)"/>
<path d="M54.1827 69.4517C54.2264 69.6041 53.703 69.8307 53.4016 69.2052C53.3935 68.9071 53.2345 67.6281 53.404 67.3869C54.3085 66.1026 56.0541 64.4989 56.0541 64.4989C56.3439 64.8086 56.1003 65.1075 56.1003 65.1075L55.2522 66.0285C55.4249 66.3674 55.6364 66.6543 55.7334 67.0633C55.8067 67.373 55.757 67.7026 55.6079 67.9824C55.4581 68.2629 55.2536 68.6277 55.0608 68.9131C54.6959 69.4528 54.1827 69.4517 54.1827 69.4517Z" fill="url(#paint14_linear_28:274)"/>
<path d="M54.8796 66.6282L54.108 67.3098L53.8616 67.9937L54.5366 68.805C54.5366 68.805 54.7784 67.4454 54.9515 67.1525C55.1246 66.8593 55.0375 66.7158 54.8796 66.6282Z" fill="url(#paint15_linear_28:274)"/>
<path d="M33.7032 81.6887L32.0637 77.1652C32.0637 77.1652 27.9458 80.0775 27.239 83.8157C28.0117 83.8838 29.4164 84.1119 30.7866 84.8647C31.1052 83.0992 33.7032 81.6887 33.7032 81.6887Z" fill="url(#paint16_linear_28:274)"/>
<path d="M37.2404 85.9655C37.2404 85.9655 32.6219 88.6775 31.0931 86.3063C30.7759 85.8138 30.7033 85.3273 30.7865 84.8647C29.4163 84.1119 28.0112 83.8842 27.2389 83.8157C27.026 84.9426 27.1222 86.1445 27.7359 87.3644C30.4037 92.6689 37.8375 87.1752 37.8375 87.1752L37.2404 85.9655Z" fill="url(#paint17_linear_28:274)"/>
<path d="M36.8848 72.2131L35.4526 76.4817C35.429 76.5525 35.4558 76.6311 35.5171 76.6682C35.895 76.8952 37.2581 77.5544 38.9177 76.4596C39.0904 76.3457 39.2092 76.1581 39.2374 75.9439L39.7221 72.242L36.8848 72.2131Z" fill="url(#paint18_linear_28:274)"/>
<path d="M39.9533 68.2783C39.9533 68.2783 41.4564 71.3547 41.2491 72.5896C41.0418 73.824 39.1457 73.7161 37.4985 72.6952L36.3708 69.3783L39.9533 68.2783Z" fill="url(#paint19_linear_28:274)"/>
<path d="M37.5859 71.0723C37.6535 71.0412 37.6789 70.9539 37.6394 70.888C37.5185 70.6876 37.2922 70.2794 37.2221 69.9232C37.2221 69.9232 36.9485 69.7333 37.9264 69.4951C38.9039 69.2569 40.3621 68.8865 40.6759 68.0075C40.9818 67.1505 40.218 64.9794 38.9529 66.6902C38.9049 66.7554 38.8115 66.7558 38.7646 66.6899C38.5623 66.4045 38.0289 65.8112 37.2781 66.1599C36.5756 66.4865 36.4917 67.0303 36.4987 67.3052C36.5009 67.3861 36.4325 67.4483 36.3577 67.4322C36.0045 67.3569 35.1564 67.2869 34.7518 68.2078C34.4186 68.9666 34.627 69.4004 34.818 69.6131C34.8801 69.682 34.8515 69.7944 34.7655 69.8213C34.5321 69.8947 34.2304 70.1011 34.2551 70.6801C34.2896 71.4805 35.1321 71.4187 35.3722 71.3846C35.4116 71.379 35.4511 71.3936 35.4772 71.4255C35.6806 71.6693 36.5974 72.7049 37.5985 72.8386C37.6853 72.8502 37.7533 72.7599 37.7258 72.6719L37.3042 71.3277C37.2845 71.2652 37.3134 71.1974 37.3701 71.1711L37.5859 71.0723Z" fill="url(#paint20_linear_28:274)"/>
<path d="M37.7588 71.2639C37.7588 71.2639 36.6763 70.4587 36.5906 71.1269C36.5049 71.795 37.5632 72.1059 38.0909 71.8617L37.7588 71.2639Z" fill="url(#paint21_linear_28:274)"/>
<path d="M36.2966 90.2512L38.8124 80.916C38.841 80.81 38.9259 80.7328 39.0292 80.7201C39.485 80.6636 40.8058 80.5051 42.3311 80.3681C44.168 80.2029 46.3013 80.0692 47.5759 80.183C47.7571 80.1991 47.8667 80.4029 47.786 80.5759C47.0613 82.134 44.0795 88.4725 42.5863 90.5489C42.5369 90.6179 42.4604 90.6579 42.3787 90.6572L36.5413 90.5995C36.3717 90.598 36.2501 90.4246 36.2966 90.2512Z" fill="url(#paint22_linear_28:274)"/>
<path d="M36.9047 87.9958C36.9047 87.9958 36.5544 86.4647 36.6957 85.9213C36.8371 85.3782 37.111 84.6798 38.0239 84.8348C38.9369 84.9899 40.0138 85.3985 40.0138 85.3985C40.0138 85.3985 39.9595 86.106 39.2654 85.8779L39.6958 86.2318C39.6958 86.2318 39.6341 86.7985 39.0483 86.4958L39.4484 86.9651C39.4484 86.9651 39.1967 87.4303 38.7656 87.1322C38.3341 86.8333 38.1276 88.1801 36.9047 87.9958Z" fill="url(#paint23_linear_28:274)"/>
<path d="M42.1633 83.1546C42.1633 83.588 42.494 83.9393 42.9018 83.9393C43.3097 83.9393 43.6403 83.588 43.6403 83.1546C43.6403 82.7213 43.3097 82.37 42.9018 82.37C42.494 82.37 42.1633 82.7213 42.1633 83.1546Z" fill="#91B3FA"/>
<path d="M39.097 83.6719L39.6092 81.8259C39.672 81.5993 39.8436 81.4289 40.0569 81.3817C41.6625 81.0259 46.0568 80.9502 46.1009 80.9495L46.098 80.7408C45.9169 80.7438 41.6407 80.8176 40.0167 81.1775C39.7326 81.2405 39.5042 81.4663 39.4206 81.7671L38.9084 83.6131L39.097 83.6719Z" fill="#BDD0FB"/>
<path d="M104.485 69.7889C104.555 69.6473 104.752 69.6694 104.792 69.8237C104.941 70.3941 105.303 71.39 106.06 71.7436C106.098 71.7615 106.134 71.7795 106.169 71.7975C106.204 71.6881 106.204 71.5608 106.122 71.4271C105.886 71.0447 106.311 70.5222 106.311 70.5222C106.311 70.5222 106.34 70.9825 106.669 71.272C106.952 71.5215 107.088 72.0769 106.895 72.5323C106.485 74.2248 105.87 76.4634 108.263 78.0986C110.655 79.7338 114.024 75.0125 114.024 75.0125L112.352 80.6443C112.352 80.6443 109.771 82.6679 106.769 79.8226C103.767 76.9773 105.757 72.8368 105.757 72.8368C105.757 72.8368 103.468 71.8556 104.485 69.7889Z" fill="url(#paint24_linear_28:274)"/>
<path d="M114.443 66.738C114.443 66.738 113.75 63.435 117.311 64.3095C117.311 64.3095 119.039 64.0095 119.127 65.7428C119.127 65.7428 120.241 66.523 119.426 68.023C119.426 68.023 122.737 66.6642 124.18 69.7477C125.623 72.8316 124.297 74.5282 122.906 74.9701C122.906 74.9701 124.033 75.5709 123.5 76.9278C122.967 78.2847 120.266 79.2409 118.671 77.5911C118.671 77.5911 114.133 78.2282 114.224 74.8222C114.224 74.8222 112.113 73.3739 114.33 70.5593C116.547 67.7443 114.443 66.738 114.443 66.738Z" fill="url(#paint25_linear_28:274)"/>
<path d="M114.247 74.3939C114.963 74.1658 117.046 73.7452 119.028 75.6882C119.364 76.0178 119.501 76.5186 119.381 76.9875C118.849 79.0695 117.445 85.2212 118.676 87.8826C118.676 87.8826 116.506 90.4241 114.139 88.3758C114.139 88.3758 113.077 83.4571 111.685 81.298C110.725 79.8073 113.217 75.6998 113.847 74.7077C113.943 74.5571 114.084 74.4463 114.247 74.3939Z" fill="url(#paint26_linear_28:274)"/>
<path d="M116.223 70.2576C116.223 70.2576 117.281 73.4381 117.361 74.8411C117.361 74.8411 116.191 75.4062 115.089 74.4523C115.089 74.4523 114.974 71.2755 114.807 70.7066L116.223 70.2576Z" fill="url(#paint27_linear_28:274)"/>
<path d="M114.753 65.9211C114.753 65.9211 111.985 70.0368 113.64 71.2323C115.294 72.4278 117.265 69.5031 117.265 69.5031C117.265 69.5031 117.907 67.2503 117.236 66.4862C116.564 65.7214 114.753 65.9211 114.753 65.9211Z" fill="url(#paint28_linear_28:274)"/>
<path d="M116.034 64.9373C116.034 64.9373 114.763 65.2575 114.584 65.8687C114.406 66.48 116.388 67.047 116.943 67.0747L117.39 69.5414C117.39 69.5414 118.713 67.2208 118.189 65.8807C117.665 64.5407 116.034 64.9373 116.034 64.9373Z" fill="url(#paint29_linear_28:274)"/>
<path d="M116.728 69.1997C116.728 69.1997 117.806 67.8739 118.234 68.7383C118.663 69.6027 117.264 70.2514 116.78 69.8271L116.728 69.1997Z" fill="url(#paint30_linear_28:274)"/>
<path d="M111.375 98.7031C111.383 98.9263 111.014 100.698 110.814 101.642C110.733 102.023 110.789 102.42 110.971 102.759L117.926 115.195C118.01 115.346 118.071 115.509 118.108 115.679C118.236 116.263 118.5 117.693 118.362 118.994L118.002 119.788L119.558 119.413L119.897 114.973L119.456 114.688C119.075 114.441 118.779 114.073 118.61 113.635C117.981 112.012 116.419 107.881 116.017 105.867C115.559 103.579 113.168 101.72 113.168 101.72L113.588 100.665L111.375 98.7031Z" fill="url(#paint31_linear_28:274)"/>
<path d="M121.288 117.885C121.288 117.885 120.447 116.47 120.349 115.919C120.25 115.368 119.975 114.395 119.456 114.688C119.456 114.688 119.212 117.364 119.296 118.41C119.381 119.456 118.184 119.422 118.184 119.422C118.184 119.422 117.854 119.471 117.612 119.728C117.446 119.905 117.565 120.212 117.8 120.229C118.192 120.256 118.814 120.262 119.467 120.128C119.696 120.081 119.865 119.875 119.879 119.628L120.051 116.548L121.111 117.97L121.288 117.885Z" fill="url(#paint32_linear_28:274)"/>
<path d="M115.53 100.684C115.53 100.684 115.775 111.808 115.808 113.388C115.841 114.969 115.573 118.47 114.083 119.516L114.731 120.026C114.731 120.026 115.542 119.294 116.334 117.885C117.224 116.303 117.492 116.014 117.492 116.014L117.197 115.371C117.068 115.09 117.03 114.772 117.089 114.465C117.411 112.809 118.485 107.299 118.779 106.112C119.125 104.711 119.149 102.841 117.945 101.275C116.742 99.7098 115.53 100.684 115.53 100.684Z" fill="url(#paint33_linear_28:274)"/>
<path d="M116.906 120.528C116.953 120.529 116.992 120.493 116.998 120.445C117.048 120.074 117.255 118.587 117.424 118.202C117.617 117.761 118.249 115.905 117.423 115.748C117.423 115.748 115.369 118.936 114.975 119.366C114.58 119.796 114.083 119.517 114.083 119.517C114.083 119.517 113.699 119.637 113.409 120.03C113.271 120.218 113.399 120.493 113.623 120.495L115.007 120.509C115.409 120.513 115.77 120.253 115.919 119.857C116.163 119.211 116.581 118.263 117.069 117.842L116.816 120.42C116.81 120.477 116.852 120.527 116.906 120.528Z" fill="url(#paint34_linear_28:274)"/>
<path d="M113.812 87.1766C113.812 87.1766 114.123 88.2324 113.645 89.9717L110.673 100.996C110.627 101.17 110.715 101.351 110.874 101.412C111.763 101.751 114.685 102.709 118.673 102.417C118.874 102.402 119.042 102.251 119.086 102.042C119.349 100.785 120.245 96.4972 120.43 95.6159C121.134 92.2586 121.919 88.638 118.464 86.4485C116.871 87.1728 115.386 87.6002 113.812 87.1766Z" fill="url(#paint35_linear_28:274)"/>
<path d="M119.312 76.1039C119.312 76.1039 122.692 79.0889 123.531 83.1683C124.37 87.2473 118.591 87.681 118.591 87.681C118.591 87.681 117.806 86.7503 116.875 87.0822C115.944 87.414 116.803 85.4574 117.893 85.4627C118.983 85.4679 118.478 86.3833 120.019 85.6413C121.521 84.9185 122.45 82.6833 118.618 79.2949C118.396 79.0986 118.219 78.8481 118.112 78.5627C117.368 76.5717 117.958 75.2668 119.312 76.1039Z" fill="url(#paint36_linear_28:274)"/>
<path d="M98.1563 106.581H96.9504V120.437H98.1563V106.581Z" fill="#7D97F4"/>
<path d="M102.834 120.704H92.2725V119.963C92.2725 119.911 92.3116 119.87 92.3595 119.87H102.747C102.795 119.87 102.834 119.912 102.834 119.963V120.704H102.834Z" fill="#7D97F4"/>
<path d="M104.832 106.07C104.832 106.875 104.212 107.534 103.453 107.534H92.0968C91.3389 107.534 90.7185 106.876 90.7185 106.07V104.746C90.7185 103.941 91.3386 103.282 92.0968 103.282H103.453C104.211 103.282 104.832 103.94 104.832 104.746V106.07Z" fill="#7D97F4"/>
<path d="M86.8636 116.229C86.8636 116.229 82.965 118.013 83.1885 119.88C83.1885 119.88 87.2182 119.059 87.9395 117.835C88.6607 116.611 88.2634 115.903 88.2634 115.903L86.8636 116.229Z" fill="url(#paint37_linear_28:274)"/>
<path d="M87.8185 114.19L88.0163 116.008C88.0462 116.282 87.9028 116.553 87.6581 116.646C87.5358 116.693 87.3751 116.725 87.1643 116.727C86.8668 116.728 86.6035 116.521 86.5241 116.216L86.1406 114.745L87.8185 114.19Z" fill="url(#paint38_linear_28:274)"/>
<path d="M96.3349 100.249C96.3349 100.249 89.1644 99.8969 85.5964 102.107C82.0284 104.318 85.7772 114.929 85.7772 114.929C85.7772 114.929 86.7092 115.141 88.0512 114.38C88.0512 114.38 86.1361 106.612 89.4626 105.261C93.2026 103.742 97.0713 104.111 97.0713 104.111L96.3547 100.489L96.3349 100.249Z" fill="url(#paint39_linear_28:274)"/>
<path d="M83.972 119.061C84.7874 118.871 87.2052 117.807 87.5725 117.821C87.9398 117.835 88.4601 118.42 88.4601 118.42C88.4601 118.42 88.5496 118.739 88.287 119.198C87.6641 119.714 86.3222 120.662 84.7616 120.765C83.6139 120.842 82.9234 120.356 82.5286 119.886C82.8744 119.529 83.4292 119.187 83.972 119.061Z" fill="url(#paint40_linear_28:274)"/>
<path d="M84.7617 120.766C86.3219 120.662 87.6639 119.715 88.2871 119.198C88.1094 119.509 87.7714 119.882 87.1358 120.264C85.5591 121.21 82.9531 121.072 82.4367 120.859C82.0228 120.688 82.1508 120.278 82.529 119.887C82.9238 120.357 83.6144 120.842 84.7617 120.766Z" fill="url(#paint41_linear_28:274)"/>
<path d="M89.316 117.469C89.2628 117.683 88.6914 118.327 88.3615 118.687C88.2046 118.858 87.9769 118.931 87.7573 118.88C87.6181 118.848 87.4608 118.797 87.3251 118.719C87.121 118.601 87.0502 118.326 87.1619 118.11L87.997 116.496L89.316 117.469Z" fill="url(#paint42_linear_28:274)"/>
<path d="M103.441 99.6105C103.441 99.6105 104.067 104.328 102.258 105.292C100.448 106.257 96.4786 106.888 95.1113 109.335C93.7443 111.782 91.2888 116.585 89.0543 117.965C89.0543 117.965 87.7782 117.524 87.4053 116.857C87.4053 116.857 90.0575 109.449 91.164 107.648C92.1221 106.088 93.5233 103.842 95.5142 102.87C96.0842 102.592 96.1286 101.95 96.0285 101.292L95.8459 100.094L103.441 99.6105Z" fill="url(#paint43_linear_28:274)"/>
<path d="M86.6686 94.2621C89.2059 95.0318 90.3413 87.4449 90.3311 87.2606L94.2209 92.0932C94.2209 92.0932 91.9032 96.4265 88.4033 96.888C87.5178 97.0048 86.7645 96.8419 86.1328 96.5344C86.5985 95.7239 86.7046 94.9239 86.6686 94.2621Z" fill="url(#paint44_linear_28:274)"/>
<path d="M81.9701 91.7791C83.0759 91.2963 84.0139 92.2596 84.0139 92.2596C85.1095 93.4514 85.9788 94.0529 86.6686 94.2622C86.7049 94.924 86.5985 95.724 86.1328 96.5341C84.7658 95.8686 83.9688 94.5236 83.6406 93.8521C83.5225 93.6105 83.2455 93.5083 83.0146 93.6266C82.7802 93.7472 82.5387 93.9308 82.5235 94.1802C82.4936 94.6723 81.9426 94.7012 81.9394 94.5195C81.9363 94.3379 82.3663 93.366 82.3663 93.366C82.3663 93.366 81.0959 94.2319 80.6013 94.563C80.1068 94.8941 79.6855 94.3476 79.6855 94.3476C79.6855 94.3476 80.8643 92.2619 81.9701 91.7791Z" fill="url(#paint45_linear_28:274)"/>
<path d="M102.464 84.1389C102.464 84.1389 99.0546 81.6673 90.8202 86.137C90.8202 86.137 89.9721 87.2793 90.3694 88.5666C90.7666 89.8542 95.6558 96.8228 95.8458 100.094C95.8458 100.094 99.1879 102.184 103.526 100.112C103.526 100.112 104.981 91.4741 102.464 84.1389Z" fill="url(#paint46_linear_28:274)"/>
<path d="M95.364 80.979L96.7113 83.7843C96.8452 84.0629 96.8171 84.4 96.6334 84.6442C96.2622 85.1382 95.4878 85.8019 94.1659 85.3742C93.7725 85.2468 93.4718 84.9071 93.377 84.482L92.6787 81.3509L95.364 80.979Z" fill="url(#paint47_linear_28:274)"/>
<path d="M104.989 93.9344C105.22 92.2292 100.979 88.9243 100.979 88.9243L102.464 84.1389C102.464 84.1389 110.557 90.2752 108.855 95.2861C108.611 96.0044 108.248 96.5277 107.804 96.8988C106.946 95.0314 105.784 94.2554 104.989 93.9344Z" fill="url(#paint48_linear_28:274)"/>
<path d="M99.0721 94.4075C99.0721 94.4075 103.87 95.8311 104.865 94.2794C104.932 94.1742 104.972 94.0581 104.989 93.9341C105.784 94.2551 106.946 95.0311 107.803 96.8985C105.525 98.8022 101.134 96.6681 99.9404 96.0284C99.744 95.9232 99.5184 95.9026 99.3083 95.9723C98.8839 96.1131 98.1486 96.3314 97.7386 96.3075C97.139 96.2726 96.4957 98.5741 95.4756 97.9913C95.4756 97.9917 95.9391 94.0592 99.0721 94.4075Z" fill="url(#paint49_linear_28:274)"/>
<path d="M93.6372 76.3949C93.5946 76.4342 91.8172 79.7323 90.9124 81.4136C90.636 81.9267 90.8429 82.5802 91.3544 82.8132L91.7464 82.9915C92.2819 83.2353 93.4335 83.4394 93.8868 83.0506L96.7438 79.8462C96.7441 79.8465 94.5981 75.511 93.6372 76.3949Z" fill="url(#paint50_linear_28:274)"/>
<path d="M97.5492 78.972C97.8996 78.763 98.3208 78.3394 97.993 77.5899C97.6595 76.8285 97.0007 76.7622 96.5763 76.8109C96.4046 76.8304 96.2495 76.7147 96.1995 76.539C96.1709 76.439 96.1015 76.3506 95.951 76.3255C95.7483 76.2914 95.6224 76.0716 95.6753 75.8607C95.7768 75.4559 95.7596 74.906 95.1469 74.512C94.0595 73.8124 93.0429 74.8285 92.7598 75.7117C92.4767 76.5948 93.6964 77.2821 94.475 77.4225C95.0669 77.5293 95.3559 78.2547 95.4603 78.5963C95.4934 78.7046 95.4776 78.8225 95.4187 78.9173L94.5501 80.3195C94.7891 80.639 95.0006 80.9765 95.2093 81.3177C95.2876 81.2281 95.3559 81.1536 95.4092 81.1016C95.7863 80.7341 96.4575 80.924 96.7339 81.0248C96.8244 81.0577 96.9228 81.0502 97.0081 81.0034C97.3088 80.8383 97.9165 80.3742 97.4184 79.4963C97.3141 79.3139 97.3733 79.0772 97.5492 78.972Z" fill="url(#paint51_linear_28:274)"/>
<path d="M94.8928 81.918C94.8928 81.918 95.448 80.4016 96.0793 80.4862C96.7107 80.5708 97.183 81.2633 96.368 81.9824C95.355 82.8764 94.8928 81.918 94.8928 81.918Z" fill="url(#paint52_linear_28:274)"/>
<path d="M92.9462 97.6532C92.9377 97.6536 92.9289 97.6539 92.9204 97.6539L81.7127 97.6408C81.4356 97.6405 81.2114 97.4015 81.2114 97.1071C81.2118 96.8127 81.4374 96.5693 81.7137 96.5745L92.9215 96.5876C93.1986 96.588 93.4227 96.827 93.4227 97.121C93.4224 97.4064 93.2112 97.639 92.9462 97.6532Z" fill="url(#paint53_linear_28:274)"/>
<path d="M71.6376 86.8412H80.9715C81.6599 86.8412 82.2867 87.2633 82.5806 87.9251L86.8956 97.6468H75.2962C74.8524 97.6468 74.4537 97.3588 74.2909 96.9202L70.9446 87.9243C70.7511 87.4045 71.1113 86.8412 71.6376 86.8412Z" fill="url(#paint54_linear_28:274)"/>
<path d="M78.213 91.8259C78.4154 92.4937 78.2659 93.142 77.8792 93.2742C77.4925 93.4064 77.0152 92.9724 76.8129 92.3046C76.6105 91.6368 76.76 90.9884 77.1467 90.8562C77.5334 90.724 78.0111 91.1581 78.213 91.8259Z" fill="#91B3FA"/>
<path d="M73.1506 123.194C73.0886 123.194 73.0255 123.181 72.9649 123.154C72.7259 123.049 72.6155 122.764 72.7185 122.518L82.5959 98.8982C82.6985 98.6525 82.9755 98.539 83.2145 98.6446C83.4535 98.7502 83.5638 99.0352 83.4609 99.2809L73.5835 122.901C73.507 123.084 73.3332 123.194 73.1506 123.194Z" fill="#91B3FA"/>
<path d="M84.2784 123.194C84.0958 123.194 83.9221 123.084 83.8456 122.901L73.9682 99.2809C73.8652 99.0352 73.9759 98.7502 74.2146 98.6446C74.4532 98.539 74.7306 98.6525 74.8332 98.8982L84.7106 122.518C84.8135 122.764 84.7029 123.049 84.4642 123.154C84.4036 123.181 84.3405 123.194 84.2784 123.194Z" fill="#91B3FA"/>
<path d="M103.726 123.194C103.664 123.194 103.601 123.181 103.541 123.154C103.302 123.049 103.191 122.764 103.294 122.518L113.172 98.8982C113.274 98.6525 113.551 98.539 113.79 98.6446C114.029 98.7502 114.139 99.0352 114.037 99.2809L104.159 122.901C104.082 123.084 103.909 123.194 103.726 123.194Z" fill="#91B3FA"/>
<path d="M114.853 123.194C114.671 123.194 114.497 123.084 114.421 122.901L104.543 99.2809C104.44 99.0352 104.551 98.7502 104.79 98.6446C105.028 98.539 105.306 98.6525 105.408 98.8982L115.286 122.518C115.389 122.764 115.278 123.049 115.039 123.154C114.979 123.181 114.915 123.194 114.853 123.194Z" fill="#91B3FA"/>
<path d="M116.012 98.169C116.037 98.0139 116.003 97.854 115.919 97.7323C115.834 97.6106 115.709 97.5402 115.576 97.5402H70.64C70.4655 97.5402 70.303 97.6458 70.2092 97.8207C70.1151 97.9956 70.1028 98.2151 70.1758 98.4035L70.6626 99.657C70.7739 99.9443 71.0158 100.128 71.2815 100.128H115.267C115.515 100.128 115.727 99.9192 115.774 99.6304L116.012 98.169Z" fill="#91B3FA"/>
<defs>
<linearGradient id="paint0_linear_28:274" x1="136.528" y1="153.813" x2="42.5844" y2="44.0048" gradientUnits="userSpaceOnUse">
<stop stop-color="#DAE3FE"/>
<stop offset="1" stop-color="#E9EFFD"/>
</linearGradient>
<linearGradient id="paint1_linear_28:274" x1="96.711" y1="30.1829" x2="18.2214" y2="128.261" gradientUnits="userSpaceOnUse">
<stop stop-color="#4F52FF"/>
<stop offset="1" stop-color="#4042E2"/>
</linearGradient>
<linearGradient id="paint2_linear_28:274" x1="96.7109" y1="30.1832" x2="18.2215" y2="128.261" gradientUnits="userSpaceOnUse">
<stop stop-color="#4F52FF"/>
<stop offset="1" stop-color="#4042E2"/>
</linearGradient>
<linearGradient id="paint3_linear_28:274" x1="75.1538" y1="14.6335" x2="70.5902" y2="48.4902" gradientUnits="userSpaceOnUse">
<stop stop-color="#FF928E"/>
<stop offset="1" stop-color="#FE7062"/>
</linearGradient>
<linearGradient id="paint4_linear_28:274" x1="59.9556" y1="67.4407" x2="93.547" y2="48.3154" gradientUnits="userSpaceOnUse">
<stop stop-color="#09005D"/>
<stop offset="1" stop-color="#1A0F91"/>
</linearGradient>
<linearGradient id="paint5_linear_28:274" x1="70.933" y1="67.4321" x2="95.1085" y2="48.5592" gradientUnits="userSpaceOnUse">
<stop stop-color="#09005D"/>
<stop offset="1" stop-color="#1A0F91"/>
</linearGradient>
<linearGradient id="paint6_linear_28:274" x1="44.6095" y1="118.516" x2="24.5273" y2="138.687" gradientUnits="userSpaceOnUse">
<stop stop-color="#09005D"/>
<stop offset="1" stop-color="#1A0F91"/>
</linearGradient>
<linearGradient id="paint7_linear_28:274" x1="38.5359" y1="120.057" x2="40.1941" y2="120.072" gradientUnits="userSpaceOnUse">
<stop stop-color="#FEBBBA"/>
<stop offset="1" stop-color="#FF928E"/>
</linearGradient>
<linearGradient id="paint8_linear_28:274" x1="46.2988" y1="94.1305" x2="28.943" y2="115.836" gradientUnits="userSpaceOnUse">
<stop stop-color="#09005D"/>
<stop offset="1" stop-color="#1A0F91"/>
</linearGradient>
<linearGradient id="paint9_linear_28:274" x1="40.458" y1="114.382" x2="20.3749" y2="134.554" gradientUnits="userSpaceOnUse">
<stop stop-color="#09005D"/>
<stop offset="1" stop-color="#1A0F91"/>
</linearGradient>
<linearGradient id="paint10_linear_28:274" x1="32.5603" y1="119.906" x2="33.992" y2="119.919" gradientUnits="userSpaceOnUse">
<stop stop-color="#FEBBBA"/>
<stop offset="1" stop-color="#FF928E"/>
</linearGradient>
<linearGradient id="paint11_linear_28:274" x1="43.487" y1="91.8824" x2="26.1315" y2="113.587" gradientUnits="userSpaceOnUse">
<stop stop-color="#09005D"/>
<stop offset="1" stop-color="#1A0F91"/>
</linearGradient>
<linearGradient id="paint12_linear_28:274" x1="-461.837" y1="-308.307" x2="-444.207" y2="-296.037" gradientUnits="userSpaceOnUse">
<stop stop-color="#FF928E"/>
<stop offset="1" stop-color="#FE7062"/>
</linearGradient>
<linearGradient id="paint13_linear_28:274" x1="45.7722" y1="74.1605" x2="54.2443" y2="74.2362" gradientUnits="userSpaceOnUse">
<stop stop-color="#FEBBBA"/>
<stop offset="1" stop-color="#FF928E"/>
</linearGradient>
<linearGradient id="paint14_linear_28:274" x1="52.3705" y1="72.7182" x2="45.954" y2="86.1117" gradientUnits="userSpaceOnUse">
<stop stop-color="#FEBBBA"/>
<stop offset="1" stop-color="#FF928E"/>
</linearGradient>
<linearGradient id="paint15_linear_28:274" x1="54.258" y1="68.1601" x2="56.8719" y2="64.4552" gradientUnits="userSpaceOnUse">
<stop stop-color="#FEBBBA"/>
<stop offset="1" stop-color="#FF928E"/>
</linearGradient>
<linearGradient id="paint16_linear_28:274" x1="-463.034" y1="-306.586" x2="-445.404" y2="-294.317" gradientUnits="userSpaceOnUse">
<stop stop-color="#FF928E"/>
<stop offset="1" stop-color="#FE7062"/>
</linearGradient>
<linearGradient id="paint17_linear_28:274" x1="27.1195" y1="86.7225" x2="37.8408" y2="86.8183" gradientUnits="userSpaceOnUse">
<stop stop-color="#FEBBBA"/>
<stop offset="1" stop-color="#FF928E"/>
</linearGradient>
<linearGradient id="paint18_linear_28:274" x1="35.0017" y1="80.4324" x2="39.4544" y2="72.2974" gradientUnits="userSpaceOnUse">
<stop stop-color="#FEBBBA"/>
<stop offset="1" stop-color="#FF928E"/>
</linearGradient>
<linearGradient id="paint19_linear_28:274" x1="40.734" y1="71.8158" x2="35.9475" y2="69.0092" gradientUnits="userSpaceOnUse">
<stop stop-color="#FEBBBA"/>
<stop offset="1" stop-color="#FF928E"/>
</linearGradient>
<linearGradient id="paint20_linear_28:274" x1="33.6618" y1="65.5399" x2="39.9186" y2="70.2824" gradientUnits="userSpaceOnUse">
<stop stop-color="#09005D"/>
<stop offset="1" stop-color="#1A0F91"/>
</linearGradient>
<linearGradient id="paint21_linear_28:274" x1="39.4999" y1="72.9296" x2="35.1935" y2="70.4044" gradientUnits="userSpaceOnUse">
<stop stop-color="#FEBBBA"/>
<stop offset="1" stop-color="#FF928E"/>
</linearGradient>
<linearGradient id="paint22_linear_28:274" x1="40.7157" y1="79.4844" x2="47.3476" y2="105.492" gradientUnits="userSpaceOnUse">
<stop stop-color="#09005D"/>
<stop offset="1" stop-color="#1A0F91"/>
</linearGradient>
<linearGradient id="paint23_linear_28:274" x1="36.662" y1="86.4132" x2="40.0138" y2="86.4132" gradientUnits="userSpaceOnUse">
<stop stop-color="#FEBBBA"/>
<stop offset="1" stop-color="#FF928E"/>
</linearGradient>
<linearGradient id="paint24_linear_28:274" x1="103.463" y1="65.8241" x2="113.262" y2="80.604" gradientUnits="userSpaceOnUse">
<stop stop-color="#FEBBBA"/>
<stop offset="1" stop-color="#FF928E"/>
</linearGradient>
<linearGradient id="paint25_linear_28:274" x1="128.428" y1="64.4146" x2="119.014" y2="70.3224" gradientUnits="userSpaceOnUse">
<stop stop-color="#09005D"/>
<stop offset="1" stop-color="#1A0F91"/>
</linearGradient>
<linearGradient id="paint26_linear_28:274" x1="125.882" y1="65.4949" x2="118.755" y2="75.8606" gradientUnits="userSpaceOnUse">
<stop stop-color="#FF928E"/>
<stop offset="1" stop-color="#FE7062"/>
</linearGradient>
<linearGradient id="paint27_linear_28:274" x1="114.54" y1="76.4175" x2="116.402" y2="72.5236" gradientUnits="userSpaceOnUse">
<stop stop-color="#FEBBBA"/>
<stop offset="1" stop-color="#FF928E"/>
</linearGradient>
<linearGradient id="paint28_linear_28:274" x1="114.453" y1="66.7487" x2="118.23" y2="74.4454" gradientUnits="userSpaceOnUse">
<stop stop-color="#FEBBBA"/>
<stop offset="1" stop-color="#FF928E"/>
</linearGradient>
<linearGradient id="paint29_linear_28:274" x1="125.988" y1="60.5245" x2="116.573" y2="66.4325" gradientUnits="userSpaceOnUse">
<stop stop-color="#09005D"/>
<stop offset="1" stop-color="#1A0F91"/>
</linearGradient>
<linearGradient id="paint30_linear_28:274" x1="116.063" y1="65.9586" x2="119.84" y2="73.6552" gradientUnits="userSpaceOnUse">
<stop stop-color="#FEBBBA"/>
<stop offset="1" stop-color="#FF928E"/>
</linearGradient>
<linearGradient id="paint31_linear_28:274" x1="124.001" y1="125.963" x2="110.236" y2="102.58" gradientUnits="userSpaceOnUse">
<stop stop-color="#FEBBBA"/>
<stop offset="1" stop-color="#FF928E"/>
</linearGradient>
<linearGradient id="paint32_linear_28:274" x1="121.291" y1="117.463" x2="117.557" y2="117.429" gradientUnits="userSpaceOnUse">
<stop stop-color="#09005D"/>
<stop offset="1" stop-color="#1A0F91"/>
</linearGradient>
<linearGradient id="paint33_linear_28:274" x1="109.681" y1="108.09" x2="128.946" y2="114.079" gradientUnits="userSpaceOnUse">
<stop stop-color="#FEBBBA"/>
<stop offset="1" stop-color="#FF928E"/>
</linearGradient>
<linearGradient id="paint34_linear_28:274" x1="117.823" y1="118.145" x2="113.371" y2="118.105" gradientUnits="userSpaceOnUse">
<stop stop-color="#09005D"/>
<stop offset="1" stop-color="#1A0F91"/>
</linearGradient>
<linearGradient id="paint35_linear_28:274" x1="131.091" y1="82.752" x2="119.895" y2="90.8307" gradientUnits="userSpaceOnUse">
<stop stop-color="#09005D"/>
<stop offset="1" stop-color="#1A0F91"/>
</linearGradient>
<linearGradient id="paint36_linear_28:274" x1="122.795" y1="88.7953" x2="103.255" y2="61.5288" gradientUnits="userSpaceOnUse">
<stop stop-color="#FEBBBA"/>
<stop offset="1" stop-color="#FF928E"/>
</linearGradient>
<linearGradient id="paint37_linear_28:274" x1="84.5387" y1="112.96" x2="85.8531" y2="117.753" gradientUnits="userSpaceOnUse">
<stop stop-color="#09005D"/>
<stop offset="1" stop-color="#1A0F91"/>
</linearGradient>
<linearGradient id="paint38_linear_28:274" x1="88.131" y1="115.618" x2="86.0494" y2="115.184" gradientUnits="userSpaceOnUse">
<stop stop-color="#FEBBBA"/>
<stop offset="1" stop-color="#FF928E"/>
</linearGradient>
<linearGradient id="paint39_linear_28:274" x1="92.209" y1="110.47" x2="85.4898" y2="95.5922" gradientUnits="userSpaceOnUse">
<stop stop-color="#09005D"/>
<stop offset="1" stop-color="#1A0F91"/>
</linearGradient>
<linearGradient id="paint40_linear_28:274" x1="84.8301" y1="117.634" x2="90.4808" y2="129.078" gradientUnits="userSpaceOnUse">
<stop stop-color="#09005D"/>
<stop offset="1" stop-color="#1A0F91"/>
</linearGradient>
<linearGradient id="paint41_linear_28:274" x1="87.9845" y1="120.651" x2="82.3871" y2="119.485" gradientUnits="userSpaceOnUse">
<stop stop-color="#4F52FF"/>
<stop offset="1" stop-color="#4042E2"/>
</linearGradient>
<linearGradient id="paint42_linear_28:274" x1="89.2054" y1="118" x2="87.2517" y2="117.593" gradientUnits="userSpaceOnUse">
<stop stop-color="#FEBBBA"/>
<stop offset="1" stop-color="#FF928E"/>
</linearGradient>
<linearGradient id="paint43_linear_28:274" x1="94.0202" y1="117.746" x2="97.5764" y2="100.192" gradientUnits="userSpaceOnUse">
<stop stop-color="#09005D"/>
<stop offset="1" stop-color="#1A0F91"/>
</linearGradient>
<linearGradient id="paint44_linear_28:274" x1="100.205" y1="83.68" x2="80.2269" y2="98.2658" gradientUnits="userSpaceOnUse">
<stop stop-color="#FF928E"/>
<stop offset="1" stop-color="#FE7062"/>
</linearGradient>
<linearGradient id="paint45_linear_28:274" x1="86.7386" y1="94.6235" x2="79.9236" y2="93.2039" gradientUnits="userSpaceOnUse">
<stop stop-color="#FEBBBA"/>
<stop offset="1" stop-color="#FF928E"/>
</linearGradient>
<linearGradient id="paint46_linear_28:274" x1="78.2223" y1="105.561" x2="97.0436" y2="94.62" gradientUnits="userSpaceOnUse">
<stop stop-color="#FF928E"/>
<stop offset="1" stop-color="#FE7062"/>
</linearGradient>
<linearGradient id="paint47_linear_28:274" x1="96.9101" y1="83.6866" x2="92.3886" y2="82.7448" gradientUnits="userSpaceOnUse">
<stop stop-color="#FEBBBA"/>
<stop offset="1" stop-color="#FF928E"/>
</linearGradient>
<linearGradient id="paint48_linear_28:274" x1="79.3242" y1="107.456" x2="98.1456" y2="96.5152" gradientUnits="userSpaceOnUse">
<stop stop-color="#FF928E"/>
<stop offset="1" stop-color="#FE7062"/>
</linearGradient>
<linearGradient id="paint49_linear_28:274" x1="100.482" y1="95.6313" x2="119.804" y2="121.097" gradientUnits="userSpaceOnUse">
<stop stop-color="#FEBBBA"/>
<stop offset="1" stop-color="#FF928E"/>
</linearGradient>
<linearGradient id="paint50_linear_28:274" x1="94.421" y1="77.5621" x2="91.8844" y2="88.761" gradientUnits="userSpaceOnUse">
<stop stop-color="#FEBBBA"/>
<stop offset="1" stop-color="#FF928E"/>
</linearGradient>
<linearGradient id="paint51_linear_28:274" x1="97.5459" y1="80.5685" x2="92.7295" y2="75.3318" gradientUnits="userSpaceOnUse">
<stop stop-color="#09005D"/>
<stop offset="1" stop-color="#1A0F91"/>
</linearGradient>
<linearGradient id="paint52_linear_28:274" x1="95.3099" y1="88.2964" x2="95.9415" y2="81.2972" gradientUnits="userSpaceOnUse">
<stop stop-color="#FEBBBA"/>
<stop offset="1" stop-color="#FF928E"/>
</linearGradient>
<linearGradient id="paint53_linear_28:274" x1="94.8477" y1="94.4891" x2="85.8509" y2="97.2663" gradientUnits="userSpaceOnUse">
<stop stop-color="#09005D"/>
<stop offset="1" stop-color="#1A0F91"/>
</linearGradient>
<linearGradient id="paint54_linear_28:274" x1="82.6259" y1="88.2909" x2="75.8079" y2="95.0733" gradientUnits="userSpaceOnUse">
<stop stop-color="#09005D"/>
<stop offset="1" stop-color="#1A0F91"/>
</linearGradient>
</defs>
</svg>
