<svg width="200" height="200" viewBox="0 0 200 200" fill="none" xmlns="http://www.w3.org/2000/svg">
<path d="M91.3476 30.5811L54.5793 63.7237C51.8609 66.1747 50.3083 69.6631 50.3083 73.3226V147.881V151.405V165.866C50.3083 169.665 53.3868 172.743 57.1854 172.743H142.815C146.613 172.743 149.692 169.665 149.692 165.866V151.405V147.881V73.3226C149.692 69.6631 148.139 66.1747 145.421 63.7237L108.652 30.5811C103.736 26.1497 96.2638 26.1497 91.3476 30.5811Z" fill="#FF2542"/>
<path d="M78.1319 103.414L66.7094 103.428L66.18 113.403L76.9233 113.389L76.6595 118.709L65.9144 118.724L65.0873 134.583L60.7843 134.588L62.6025 98.164L78.3975 98.1426L78.1319 103.414Z" fill="white"/>
<path d="M96.5917 120.194C97.0213 120.961 97.3832 122.043 97.6791 123.442L99.9981 134.538L95.3885 134.544L92.9322 122.424C92.704 121.299 92.3065 120.517 91.7414 120.073C91.1764 119.631 90.4206 119.41 89.4705 119.41L85.2673 119.415L84.5062 134.558L80.1675 134.563L81.9839 98.139L92.6933 98.1248C95.1782 98.1212 97.1051 99.0071 98.4759 100.777C99.8448 102.549 100.533 104.97 100.536 108.039C100.54 110.836 100.08 113.139 99.1568 114.947C98.2316 116.756 96.8431 117.968 94.991 118.583C95.6274 118.891 96.1603 119.426 96.5917 120.194ZM91.6684 114.292C94.8324 114.289 96.4117 112.326 96.4063 108.403C96.401 104.959 95.0106 103.239 92.2299 103.242L86.0623 103.25L85.5008 114.299L91.6684 114.292Z" fill="white"/>
<path d="M121.684 103.307L109.822 103.323L109.292 113.401L120.478 113.387L120.18 118.604L109.03 118.618L108.501 129.31L120.33 129.294L120.066 134.512L103.966 134.533L105.782 98.1087L121.916 98.0873L121.684 103.307Z" fill="white"/>
<path d="M141.85 103.28L129.987 103.296L129.458 113.372L140.643 113.358L140.346 118.576L129.196 118.59L128.667 129.281L140.495 129.265L140.232 134.483L124.132 134.504L125.948 98.0801L142.082 98.0587L141.85 103.28Z" fill="white"/>
<path d="M105.473 53.9948C107.107 50.9732 105.981 47.1997 102.96 45.5665C99.938 43.9332 96.1645 45.0587 94.5312 48.0803C92.898 51.1019 94.0235 54.8754 97.0451 56.5086C100.067 58.1419 103.84 57.0164 105.473 53.9948Z" fill="white"/>
</svg>
