<svg width="108" height="114" viewBox="0 0 108 114" fill="none" xmlns="http://www.w3.org/2000/svg">
<path d="M80.331 85.3515C95.1195 69.6387 95.1195 44.1633 80.331 28.4505C65.5424 12.7377 41.5655 12.7377 26.777 28.4505C11.9885 44.1633 11.9885 69.6387 26.777 85.3515C41.5655 101.064 65.5424 101.064 80.331 85.3515Z" fill="#BDD0FB"/>
<path d="M53.5549 91.2403C71.4044 91.2403 85.8742 75.8661 85.8742 56.901C85.8742 37.936 71.4044 22.5618 53.5549 22.5618C35.7054 22.5618 21.2356 37.936 21.2356 56.901C21.2356 75.8661 35.7054 91.2403 53.5549 91.2403Z" fill="#4F52FF"/>
<path d="M53.5544 92.9607C34.8409 92.9607 19.6165 76.7847 19.6165 56.9012C19.6165 37.0177 34.8413 20.8417 53.5544 20.8417C72.2676 20.8417 87.4924 37.0177 87.4924 56.9012C87.4924 76.7847 72.2679 92.9607 53.5544 92.9607ZM53.5544 22.5619C35.7335 22.5619 21.2351 37.9664 21.2351 56.9012C21.2351 75.836 35.7335 91.2404 53.5544 91.2404C71.3754 91.2404 85.8737 75.836 85.8737 56.9012C85.8737 37.9664 71.3754 22.5619 53.5544 22.5619Z" fill="white"/>
<path d="M53.5549 65.012C57.7709 65.012 61.1886 61.3806 61.1886 56.9011C61.1886 52.4216 57.7709 48.7903 53.5549 48.7903C49.3389 48.7903 45.9211 52.4216 45.9211 56.9011C45.9211 61.3806 49.3389 65.012 53.5549 65.012Z" fill="#FF2542"/>
<path d="M53.5546 79.5563C41.7976 79.5563 32.2322 69.3933 32.2322 56.9012C32.2322 44.4091 41.7973 34.2466 53.5546 34.2466C65.3118 34.2466 74.8769 44.4095 74.8769 56.9012C74.8769 69.393 65.3118 79.5563 53.5546 79.5563ZM53.5546 37.6863C43.5827 37.6863 35.4699 46.3061 35.4699 56.9012C35.4699 67.4963 43.5827 76.1166 53.5546 76.1166C63.5264 76.1166 71.6392 67.4963 71.6392 56.9012C71.6392 46.3061 63.5268 37.6863 53.5546 37.6863Z" fill="white"/>
<path d="M53.5 65C48.8132 65 45 61.1869 45 56.4999C45 51.8129 48.813 48 53.5 48C58.187 48 62 51.8131 62 56.4999C62 61.1868 58.187 65 53.5 65ZM53.5 49.2906C49.5248 49.2906 46.2907 52.5247 46.2907 56.4999C46.2907 60.4752 49.5248 63.7094 53.5 63.7094C57.4752 63.7094 60.7093 60.4752 60.7093 56.4999C60.7093 52.5247 57.4754 49.2906 53.5 49.2906Z" fill="white"/>
<path d="M89.6878 18.6134L90.4922 19.4677L60.045 51.8178L59.241 50.9635L89.6878 18.6134Z" fill="#09005D"/>
<path d="M90.4745 19.4862L94.5705 19.9188L88.9474 25.8933C87.1049 27.851 84.5334 28.827 81.9408 28.5533L90.4745 19.4862Z" fill="#91B3FA"/>
<path d="M89.6705 18.632L89.2633 14.2799L83.6403 20.2544C81.7977 22.2121 80.8791 24.9443 81.1368 27.699L89.6705 18.632Z" fill="#91B3FA"/>
<path d="M59.8101 48.9021C60.2715 48.4118 62.4461 50.7227 61.9847 51.2126L53.9192 57.9496C53.6213 58.1987 53.235 57.7882 53.4694 57.4717L59.8101 48.9021Z" fill="url(#paint0_linear_29:303)"/>
<defs>
<linearGradient id="paint0_linear_29:303" x1="55.933" y1="54.4321" x2="80.1085" y2="35.5592" gradientUnits="userSpaceOnUse">
<stop stop-color="#09005D"/>
<stop offset="1" stop-color="#1A0F91"/>
</linearGradient>
</defs>
</svg>
