<?xml version="1.0" encoding="utf-8"?>
<!-- Generator: Adobe Illustrator 23.0.1, SVG Export Plug-In . SVG Version: 6.00 Build 0)  -->
<svg version="1.1" id="Layer_1" xmlns="http://www.w3.org/2000/svg" xmlns:xlink="http://www.w3.org/1999/xlink" x="0px" y="0px"
	 viewBox="0 0 512 512" style="enable-background:new 0 0 512 512;" xml:space="preserve">
<style type="text/css">
	.st0{fill:#FFFFFF;}
	.st1{fill:#177848;}
	.st2{opacity:0.2;fill:#FFFFFF;enable-background:new    ;}
	.st3{opacity:0.1;enable-background:new    ;}
	.st4{fill:url(#SVGID_1_);}
	.st5{opacity:5.000000e-02;fill:url(#SVGID_2_);enable-background:new    ;}
	.st6{fill:url(#SVGID_3_);}
</style>
<g>
	<rect x="256" y="114.3" class="st0" width="191.7" height="283.3"/>
	<path class="st1" d="M447.7,406H281c-4.6,0-8.3-3.7-8.3-8.3c0-4.6,3.7-8.3,8.3-8.3h158.3V122.7H281c-4.6,0-8.3-3.7-8.3-8.3
		c0-4.6,3.7-8.3,8.3-8.3h166.7c4.6,0,8.3,3.7,8.3,8.3v283.3C456,402.3,452.3,406,447.7,406z"/>
	<polygon class="st1" points="289.3,56 56,99.5 56,412.5 289.3,456 	"/>
	<polygon class="st2" points="56,99.5 56,103.6 289.3,60.2 289.3,56 	"/>
	<rect x="272.7" y="139.3" class="st1" width="66.7" height="33.3"/>
	<rect x="356" y="139.3" class="st1" width="66.7" height="33.3"/>
	<rect x="272.7" y="189.3" class="st1" width="66.7" height="33.3"/>
	<rect x="356" y="189.3" class="st1" width="66.7" height="33.3"/>
	<rect x="272.7" y="239.3" class="st1" width="66.7" height="33.3"/>
	<rect x="356" y="239.3" class="st1" width="66.7" height="33.3"/>
	<rect x="272.7" y="289.3" class="st1" width="66.7" height="33.3"/>
	<rect x="356" y="289.3" class="st1" width="66.7" height="33.3"/>
	<rect x="272.7" y="339.3" class="st1" width="66.7" height="33.3"/>
	<rect x="356" y="339.3" class="st1" width="66.7" height="33.3"/>
	<polygon class="st3" points="56,412.5 289.3,456 289.3,451.8 56,408.4 	"/>
	
		<linearGradient id="SVGID_1_" gradientUnits="userSpaceOnUse" x1="214.3333" y1="330.8898" x2="445.2273" y2="99.9958" gradientTransform="matrix(1 0 0 -1 0 511.8898)">
		<stop  offset="0" style="stop-color:#000000;stop-opacity:0.1"/>
		<stop  offset="1" style="stop-color:#000000;stop-opacity:0"/>
	</linearGradient>
	<path class="st4" d="M447.7,406c4.6,0,8.3-3.7,8.3-8.3v-125L289.3,106v300H447.7z"/>
	<polygon class="st0" points="178.6,264.3 216.9,195.4 216.4,195.1 187.3,197.2 164.3,238.6 143.1,200.4 115.6,202.3 150,264.3 
		115.6,326.3 143.1,328.3 164.3,290.1 187.3,331.5 216.4,333.5 216.9,333.3 	"/>
	
		<linearGradient id="SVGID_2_" gradientUnits="userSpaceOnUse" x1="-376.5952" y1="231.3114" x2="-372.7685" y2="231.3114" gradientTransform="matrix(60.9756 0 0 -60.9756 23019.1211 14360.3516)">
		<stop  offset="0" style="stop-color:#FFFFFF"/>
		<stop  offset="1" style="stop-color:#000000"/>
	</linearGradient>
	<path class="st5" d="M289.3,56L56,99.5v313L289.3,456V56z"/>
	
		<linearGradient id="SVGID_3_" gradientUnits="userSpaceOnUse" x1="29.9425" y1="356.5309" x2="473.4233" y2="149.7324" gradientTransform="matrix(1 0 0 -1 0 511.8898)">
		<stop  offset="0" style="stop-color:#FFFFFF;stop-opacity:0.2"/>
		<stop  offset="1" style="stop-color:#FFFFFF;stop-opacity:0"/>
	</linearGradient>
	<path class="st6" d="M447.7,106H289.3V56L56,99.5v313L289.3,456v-50h158.3c4.6,0,8.3-3.7,8.3-8.3V114.3
		C456,109.7,452.3,106,447.7,106z"/>
</g>
</svg>
